<mxfile host="Electron" agent="Mozilla/5.0 (Macintosh; Intel Mac OS X 10_15_7) AppleWebKit/537.36 (KHTML, like Gecko) draw.io/24.7.17 Chrome/128.0.6613.36 Electron/32.0.1 Safari/537.36" version="24.7.17">
  <diagram name="페이지-1" id="2GpgEIWOA0rMoAVSIMEl">
    <mxGraphModel dx="1012" dy="592" grid="1" gridSize="10" guides="1" tooltips="1" connect="1" arrows="1" fold="1" page="1" pageScale="1" pageWidth="827" pageHeight="1169" math="0" shadow="0">
      <root>
        <mxCell id="0" />
        <mxCell id="1" parent="0" />
        <mxCell id="rl5POnUg0VRBX6LyOwiJ-8" value="" style="shape=image;verticalLabelPosition=bottom;labelBackgroundColor=default;verticalAlign=top;aspect=fixed;imageAspect=0;image=data:image/png,iVBORw0KGgoAAAANSUhEUgAABa8AAARNCAYAAABVBrytAAAAOXRFWHRTb2Z0d2FyZQBNYXRwbG90bGliIHZlcnNpb24zLjYuMywgaHR0cHM6Ly9tYXRwbG90bGliLm9yZy/P9b71AAAACXBIWXMAAB7CAAAewgFu0HU+AAEAAElEQVR4nOzdd1gT2dcH8G8I0jv2gthBVBBRRMXeFXvXn13Xteza+9pde13Xxd6w61qwdxGxgFiQYgEVAUGQ3iHk/YM3s5k0MiEQkPN5Hh/JZMpNMnfKmXvP5QmFQiEIIYQQQgghhBBCCCGEkBJES9MFIIQQQgghhBBCCCGEEEIkUfCaEEIIIYQQQgghhBBCSIlDwWtCCCGEEEIIIYQQQgghJQ4FrwkhhBBCCCGEEEIIIYSUOBS8JoQQQgghhBBCCCGEEFLiUPCaEEIIIYQQQgghhBBCSIlDwWtCCCGEEEIIIYQQQgghJQ4FrwkhhBBCCCGEEEIIIYSUOBS8JoQQQgghhBBCCCGEEFLiUPCaEEIIIYQQQgghhBBCSIlDwWtCCCGEEEIIIYQQQgghJQ4FrwkhhBBCCCGEEEIIIYSUOBS8JoQQQgghhBBCCCGEEFLiUPCaEEIIIYQQQgghhBBCSIlDwWtCCCGEEEIIIYQQQgghJQ4FrwkhhBBCCCGEEEIIIYSUOBS8JoQQQgghhBBCCCGEEFLiUPCaEEIIIYQQQgghhBBCSIlDwWtCCCGEEEIIIYQQQgghJY62pgtASg4nJyfWaz8/Pw2VhBBClOfm5oZv374xry9fvoyqVatqsESEEFnKUl19+/Ytxo0bB6FQCADYsmUL2rVrx3k9qampCA4Oxrdv35CSkoKMjAzo6elBX18fFSpUQNWqVVGjRg3o6upyWq+npydWrlzJvO7duzdWrFjBuXyElCQrVqzAlStXmNfLly+Hm5ubBktEFKHjECGEqF94eDiCgoIQGxuL7OxsGBoaokaNGrC3t4eRkZFK6/ztt9/g4+MDAGjSpAkOHDgAHo+nzmIXiILXpYTkxZijoyP27t2rwRKRn4nkxaM8PB4PBgYGMDIyQoUKFWBjYwN7e3t06NABenp6xVBSQkhRkQwsFhbdhJKyKi8vDxs3bmQC1w4ODpwC1+np6bh27RouXryId+/eMeuRh8/no06dOmjUqBFcXFzQvHlzlW9OSMmm7HG6XLlyMDIygrGxMWrXrg0bGxu0a9cO9erVK4ZSEvLzoHtwQghXQqEQX79+RWBgIIKCghAYGIh3794hKyuLNZ86G4sKhUJcuXIFx44dQ1hYmMx5tLW14erqismTJ3O+Hpg2bRqePHkCoVCIN2/e4OrVq+jdu7c6iq40Cl4TQpQmFAqRlpaGtLQ0xMTE4O3btzh37hwMDQ0xaNAgTJ48mXPrL0IIIeRncvnyZQQFBTGvp0+frvSy3t7eWLt2LWJjY5VeRiAQ4P3793j//j3+/fdfVKhQAdevX+dUZvJzycnJQUJCAhISEhAeHo4HDx7A3d0ddnZ2mDNnDpo0aaLpIhJC1MTPzw8vXrxgXjdr1kyqRzUhsuzZs4f1+pdfftFQSUq/9PR0HDp0CEFBQQgKCkJKSkqxbTshIQELFiyAv7+/wvlyc3Nx//59eHl54ddff8XYsWOV3kaDBg3QpUsX3Lp1CwDw119/oWPHjjAwMChM0Tmh4DUhpNDS0tJw5MgReHl54e+//0bFihU1XSRCCCGk2GVnZ2Pfvn3Ma0dHRzg4OCi17IkTJ7B161a572tra8PQ0BDZ2dnIyMiQO19eXp7S5SVlS2BgICZOnIjp06dj9OjRmi4OIUQNXrx4wTrvANLpQAmRRXK/oeC16hITE3Ho0CGNbHfy5Mn49OmT1HtaWlrQ19dHWloaa7pAIMCuXbuQlJSE33//XeltjR8/ngle//jxAydPnsSECRMK9wE4oOA1IUSmhQsXypyempqKyMhI+Pr6IiIigvXep0+fMGPGDBw6dKhYn8IRQtSvTZs2aNOmjcrLW1tbq68whJQS586dQ0xMDPN6zJgxSi13+/ZtmYHrtm3bokePHmjcuDEqV67MTM/JyWFyGr548QIPHz4s1lY+pGSQd5wWtbwOCQmBr68vcnJymPfy8vKwc+dOmJubUz5oQgghpJQSCoVYunSpVODa1dUVY8aMgZ2dHcqVK4ekpCTcu3cPBw8eZKUeO3bsGBo0aIDu3bsrtb26deuidevWePz4MQDAw8MDQ4YMgbGxsfo+lAIUvCYMGqCRiBs0aJDC94VCIe7evYt169YhKSmJmR4aGorjx49j0qRJRV1EQgDk52wn6mdra1vgcYAQ8p+cnBwcPXqUeW1lZYXWrVsXuFx6ejq2bNnCmmZqaoqNGzeiWbNmMpcpV64c6tSpgzp16sDNzQ25ubl48uQJTp8+jY8fPxbug5BSQ5njdFxcHDZv3ow7d+6wpm/btg3t27cvtptOQgghpKzQ19eHjY0NGjZsiIYNG+Lr169wd3dX6zbu3r2Lp0+fsqZNmDABv/76K2uaqakp+vfvj3bt2mH69Ol4//498962bdvQrl076OvrK7XN4cOHM8HrlJQUnD59GhMnTizkJ1GOVrFshRDy0+HxeOjcuTP+/vtvqTzXx48fZ7XyIYQQQn52N2/eRFxcHPO6f//+Si1348YN1nJaWlrYunWr3MC1LKJBeHbt2qWRbquk5CpfvjzWr1+PLl26sKYnJyfj/PnzGioVIYQQ8vPQ09PDwIED8ccff+DUqVN48OAB9u3bh1mzZqFbt26oVKmSWrcnEAikguGtWrWSClyLs7CwwMaNG6Gnp8dM+/HjB06dOqX0dp2dnVGtWjXm9dmzZ4st7kPBa0JIodjY2KBfv36saampqXjz5o1mCkQIIYRowMmTJ5m/+Xy+0ikZvLy8WK9btWoFe3t7lctRpUoVlZclP685c+ZAR0eHNe3JkycaKg0hhBDy87CwsMCiRYvQt29f1K1bF3w+v0i35+Xlhc+fPzOveTwe5s2bV+By1atXx8iRI1nTPDw8kJubq9R2eTwe6/r2x48fTB7sokbBa0JIoXXq1Elq2tu3bzVQEkIIIaT4vXv3Du/evWNeOzk5wczMTKllw8LCWK8dHR3VWTRCAOS3wG7SpAlrGl2rEUIIIaXP/fv3Wa+bN2+OGjVqKLVsv379oKX1Xyg4KSkJr169UnrbnTt3Zr0urhSelPOaFBmhUMjczMXHx4PP58Pc3Bz169dH/fr1wePx1LatqKgoZjtJSUkwMDCAhYUF6tevr7ZBw75//45Pnz4hMjISqampyM3NhbGxMUxNTdGgQQPUrFlTLduRJSMjAwEBAQgPD0dycjK0tLRgaWlZYgbaqVOnjtS0hIQElddXHL8nAHz9+hXBwcGIjY1FdnY2TE1NUadOHdjZ2UFbu2gPjzk5OXj79i0+f/6MpKQk5OXlwcLCAt27d2d15ZGnqL+jrKwshIaGIiwsDMnJyUhPT0e5cuVgYGCAChUqoFq1aqhVq5ZK31Nubi4+ffqE0NBQJCYmIi0tDXw+H/r6+ihfvjyzbsl0NEUtPT0db968wffv35GQkMAcs6pUqYLGjRujXLlyRbLduLg4vHnzBlFRUcjOzoaJiQmqVq2Kpk2bKp1/jCgvNzcXX758wefPnxEXF4e0tDRoa2vDxMQEFSpUQOPGjWFiYlJk2//8+TOCgoIQGxsLgUAACwsL2NnZoV69egUum5eXh+DgYHz48AGJiYnQ1tZG+fLl0axZM1SoUEHtZY2NjcWbN2/w7ds3ZGdnw8LCgtk3i6o+KKu4zhPKun79Out1x44dlV72x48frNelLQdxWFgYQkNDkZCQgNTUVJiYmMDc3Bx2dnasQSbVKSsrCwEBAfj06ROSk5NhaGiIChUqwN7eHuXLl1frtkravlYYderUYY1xk5WVhfT0dJUG2c7OzkZAQABiYmKQkJCAnJwcmJubo1KlSnBwcFDqWkYZubm5ePXqFSIjI/Hjxw/o6OigcuXKaNKkCSpWrKiWbZQEmZmZCAgIwPfv35GYmIjMzEwYGhqifPnyqFOnDqytrQt17yS6LwsPD0dCQgLS0tJgYmLCPNSwsLBQ22cJCQlBWFgYYmNjAQCWlpawsbFB3bp11baN0qw475HVQSAQICgoCJGRkUhISEBmZibMzMyYY25RnbM+f/6Md+/eITY2FpmZmTAyMoKTk5NS+1FOTg4CAwMRHR3N3Gvo6+vD0tIStWvXVvkeRpz4vUxycjKMjY1hbm6ORo0aFdm5LyIiAoGBgfj+/TsEAgEsLS1Ro0YNNGnShBWMJD83gUDA5J0W6dq1q9LLV6lSBY0aNWL1lH/48CGcnJyUWt7a2hq1a9dmGl+8ePEC0dHRRbbfi1DwmjAkd9aCBnB0c3NjjVZ6+fJlVK1aFXl5eTh//jyOHTuGqKgomctWrFgR48aNQ//+/VU+caSmpuLEiRO4ceMGwsPD5c5XrVo19O/fH8OGDeN0IZ2TkwMfHx88ePAAfn5+rM8qi4WFBXr37o0RI0ZwunHy8/PDlClTmNeOjo7Yu3cvACA8PBx79+7FvXv3kJ2dLbVsSQleGxoaSk1LTU3ltI6i/j3F3b17FwcOHGANViDO1NQUQ4YMwZgxY6Cnp4eoqCj06dOHeb9KlSoKnzAqmj8uLg779+/HtWvXkJ6eLrVsixYtULVqVZnrLY7v6OPHjzhy5AgePHiAjIwMhfPq6urCzs4O7dq1g5ubW4EBv2/fvuHQoUO4c+cOkpOTFc6rra2NBg0aoG3btnBzc1N4gyrvWKSs58+f4/Dhw3j58qXcnF0GBgZwcXHBpEmTON187dmzB/v27WNeT5o0Cb/88gsAIDAwEO7u7nj69CmEQqHUsuXKlUP37t3x66+//lQ36IsXL2Z1LzM1NcXx48eVvuDJzc3FpEmTEBAQwEyrXr06PDw8YGRkJHOZuLg43L59Gz4+Pnj16pXCfZvH48HGxgbDhw9H165dOZ2jVqxYgStXrjCvly9fzhynb926hf3790u1shWpX78+Zs2ahebNm0u9l5OTg5MnT+LkyZNMMECyzC4uLpg9e7bSwTRPT0+sXLmSed27d2+sWLECAPDq1Su4u7vjxYsXMvdNY2NjdO/eHVOmTIGpqalS21OH4jxPcCU5GF6rVq2UXlYyUPH9+3e1lKkopaSk4OjRo7h+/Tqio6Plzle7dm3069cPgwcP5vTAQ941aVJSEvbt24fLly/LPIdqaWmhadOmmDp1aqFSr5Tkfa0w5F2vcQle+/v749ixY/D19UVmZqbMeXR0dODs7IzJkyfD1tZWpbKmpqZiz549uHbtGmtgcHGOjo6YOnUqHBwcVNpGYa8fFJ3jlZGXl4c7d+7g3LlzCAgIUJg31MzMDC4uLnBzc0Pz5s2VDnBGRETg8OHD8PLyQnx8vMx5eDwebG1tMXr0aKkWdVw+y9mzZ3Hy5ElERETInMfKygrjxo0rMfcvRaU47pEl9z1x+/btk/sewL7XVOT9+/c4dOgQnjx5Ive+js/nw8HBARMmTECLFi0KXKfI5MmT4e/vz7x2d3eHk5MTBAIBLl68iOPHj8s89hZ0Hf7kyROcPHkS/v7+co9PQP6xsEWLFujVqxfatGmj9LXejx8/cOTIEdy7d6/Ac9+wYcPQt29fpdNHKDqePHr0CPv27UNQUJDMZS0tLdGnTx9MmDChwHORogBlQcFL0e9ENOv9+/dS50Wu1zz29vas4PXz5885Ld+6dWvmnkYoFOLOnTsYNWoUp3VwRY9niFolJiZiypQp2LBhg9yTMpB/Y7ZhwwbMmTNH4YlFnqtXr6Jv377Yu3evwpsKAIiMjMSuXbswcOBABAcHK72N3r17Y86cOfD09CwwcA0A8fHxOHr0KPr37y91E6uKS5cuYdiwYbhx44bMwHVJIuuChkuL0eL4PYH8Vi1z587FggUL5Aaugf9ujkeOHCn3AlwV3t7eGDhwIM6dOyfzpluR4viO9u/fj5EjR+L69esFBq6B/BZb/v7+2LZtG+sCVJaLFy9i0KBB+PfffwsMXAP5AcrAwED8888/aqlPsqSmpmLWrFmYOnUqnj9/rvCmMT09HXfv3sWIESOwYcMGpfOCyXP48GGMHz8eT548kRkcBPIDlp6enhgxYoTci9XSaMmSJbCysmJeJyUlYeHChUp/pzt37mQFrnV0dLB+/Xq5gWtvb2/07NkTW7ZswZMnTwrct4VCIYKDg7Fs2TKMHz8eMTExSpVLnpycHPzxxx9YvHix3MA1kH8hOm3aNJw+fZo1PSYmBmPHjsXOnTtlBq5FZfbx8cHo0aM5dfuTZf/+/Zg0aRL8/Pzk7pspKSk4e/YsBg8eDF9f30JtT1nFdZ5QRWhoKOsmtmrVqpzyTltaWrJe379/X+53XxLcuXMH/fr1w6FDhxTevAP5rbK3bt2KgQMHFjpFRXBwMIYMGYJTp07JPYfm5eXhxYsXmDhxIrZv367S91iS97XCKsz1WkJCAn7//XdMnjwZjx49Unj9np2djUePHmH06NHYsGEDBAIBp3IGBARgyJAhOHnypNzANZAfSJ80aRL279/Paf0lQXBwMIYNG4bFixfD39+/wAGvEhMTcf36dUydOrXAay4g/zpqx44dGDRoEC5evCg3cA3kn0OCgoKwcOFCTJo0CYmJiZw+S3x8PCZOnIhNmzYpvG4ODw/HypUrMXv2bJXu/0qz4rpHVofMzEwsX74cI0eOxO3btxU2SBIIBHjx4gWmTp2K+fPnF6rM8fHxmDRpEtatW1fgsVdSREQExo8fjxkzZsDHx6fAcqSlpeH+/fuYO3cubty4odQ2jh49in79+uHEiRNKnfv+/PNPDB8+vFD3kgKBAOvWrcOsWbMU3gv8+PEDhw4dwtChQ/HhwweVt0dKB8n7CUNDQ849wRo1asR6/fXrV07naslBxX18fDhtXxUUvCZqk5aWJvOCSk9PT2ZLDwB4/Pgx1q5dq/Q2hEIhdu/ejeXLl8u8mOXz+TA1NZXZuicmJgaTJ09W+qlSSkqKzOmibRgaGsps9ZCRkYGFCxeyWt9xdeXKFaxevVoqaG1sbFzk6SxU8fHjR6lpyrRcKc7fMzMzE7NmzcKDBw9kvq+npyfV8ujLly+YNm1aoVKgiDx79gxz585FWloaa7qhoaHC9BjF9R0dOnQI7u7uMk9afD4fJiYmMDExUWnwiRs3bmDNmjXIysqSuW5R+p3i3Lfj4uIwceJEPHr0SOb7BgYGMn8XUcuiwtxU7Nu3D7t27WJ916LfUdb3m5iYiBkzZkilFiitDA0NsWHDBtb3+/btW+zcubPAZR88eIATJ06wps2ePRs2NjZyl0lLS0NeXp7M93R1dWFqaiq3DgYFBWHs2LGIi4srsGyyCIVCLFu2TCqlhLzzYl5eHjZv3gxvb28A+cGiyZMns3IpA4CRkZHMMqenp2PmzJkql/fYsWNwd3dnBfy0tLRgYmIi83wXHx+PmTNnFmkAuzjPE6p6+vQp63XTpk05LW9nZ8d6/fHjR2zfvl3ufqtJp06dwqJFi+T+FvL2laioKEyZMoXZt7kKDw/HtGnTpI6DhoaGMn97oVAIDw8PrF+/XukAdmnY1wpL8nrNxMREqS7/nz9/xtixY6W6KYvo6+vLXI9QKMTZs2cxd+5cpR9Qvn37FtOnT5fZA4HH48HExITVPV4oFMLd3R0eHh5Krb8kuHnzJiZOnCj3gaa2trbC66KC9um0tDTMnj0bx44dk/m96+joyL3mePnyJcaNG6f0g9uEhARMmTJF7kDtRkZGUnXGy8sLixYtKtEP6dSpOO6R1SUuLg6TJk3C1atXZf4+urq6co/z9+7dwy+//MK59y2Qf/0ybdo0qf2oXLlychsniPj5+WHMmDFy90HRsVtywFqRgvbD3NxcrFy5Ejt37pTZAEJUX2XVp7CwMIwfP17lgPLmzZtx/vx51jTRvZMskZGR+PXXX2Xem5Ofh/hAjUB+LzCu6YaqVavGep2dna3wwZokBwcH1jZfvnxZ5A/cSl4UjJRa69atY1qzNmzYEKNGjYKzszPTpTg5ORn379/HP//8w7qxvn79Otzc3JTqanTs2DEcPHiQNc3KygpDhgxBy5YtUbNmTaYSRURE4MGDBzh27Bhzs5ORkYFFixbh5MmTSnXD5/P5aNSoEVxdXdGoUSPUrVuXNQBTdnY2Pnz4gAcPHuDs2bOsk/X69evRqFEjzk/BYmJisH79egD5QYNevXrBzc2NybkrFAoRHR2NmzdvclpvUZLVMlaZrivF+Xvu2rVLKsBSuXJlTJgwAW3btmVaviUnJ8PHxweHDh1CaGgoIiMjsWnTpgI/iyLp6elYtmwZcwPRvn17DBgwAI6OjkzXrh8/fuDu3btSAfTi+I6+ffsm1X2wRo0aGDlyJFq2bIkqVaqwLsi+f/+O0NBQ+Pn54dGjRwpbk6anp0t9f5aWlhg5ciTatGkDKysr1s1ZQkICQkND8fLlSzx69KhIWhwLBAIsXLhQ6sLO2toa48aNg6urK5MCJTY2Fvfu3cPBgwdZQZPHjx9jy5YtWLJkCadtP336lGl9aGJigpEjR6Jjx45MLkuBQIA3b97gwIEDrIBYUlIStm/fjtWrV6v6sUuUevXqYd68eVizZg0z7cSJE3B0dET79u1lLhMZGclKcwEAXbp0waBBg5TaprGxMVxcXODi4sLkqhUPACckJODNmze4fPkyHj58yEyPjY3FsmXLsHv3bg6fMN/58+cRGBgIAKhZsybGjRuH1q1bw9zcHEB+8PfatWvYu3cv05JUKBRi48aNcHZ2xpIlSxAZGQkAaNmyJYYPH45mzZoxx43Pnz/j5MmTrBub1NRUbN++nfXdKuPjx49MkJ3H46Ffv37o168fbGxswOfzmbyzZ86cwb1795jlsrKysGDBApw5c0btuYaB4j/vq0KyRbEy+cvFderUSWqk9uPHj8PX1xcjRoxAu3btSkQe7CdPnmDLli2sG30+n48BAwagb9++qFevHmtfOX/+PG7fvs3Mm5mZiUWLFuH48eOs3hfKWLZsGdNrx8bGBmPHjoWLiwsT+ImIiMDNmzdx5MgRVqvs8+fPo379+hg4cGCB2ygN+1phxMTESAV3JAdwlCUxMRHTpk1jBTP5fD66du2KXr16oXHjxszvkJWVxRwnxI+jjx49wj///IMZM2Yo3FZKSorMB/2dO3fG4MGDYW9vD21tbQgEAgQHB+PChQu4fPkyhEIhdu3aVSpyKj9//hzLli2Taizg5OSEfv36wcnJiXUsjYuLQ0hICB4/foz79+8X+HBSKBRiyZIlUq3gHB0dMXDgQDRr1oxZf15eHt69e4dr167h/PnzTKOZr1+/YvHixdi7d2+BjRaWL18udR1oa2uLMWPGoFWrVjAwMIBQKERkZCRu3LiBo0ePIj09HY8ePVJL45DSoCjukV1dXZl7F29vb9aDwTZt2qBNmzZyyyNvjIzs7GzMnDkTISEhzDQejwdXV1f07dsXDg4OTJlzc3Px9u1bXLhwAdevX2cetgYGBmLt2rVYt26dUt+NyK5du5j9qFq1ahgzZgzatGnDHEszMzPx6tUrqUBzaGgoZs2aJRVUbtCgAQYPHgxnZ2dUrlyZOXYnJSUhJCQEz549w927d5lrLEW2bNkilS5StH7xdI9CoRCfPn3C7du3ceLECeY4Fh8fj/nz58PDw0PuwwpZnjx5wlxflCtXDsOGDUPv3r1Rq1YtaGlpISsrC76+vvDw8GCle01MTMTcuXNx6tQpmSlEFi5cyPwtijnIek8WdY/x9fDhQ7m9CotCjx49OP0GJZVkz4RKlSpxXoesdI1fvnxRetBHIyMjVK1alalDOTk5CAkJUTmNlzIoeE3URnRBLC/fm4mJCfr27QtnZ2dMmDCBdRF85syZAoPXb968wd9//82aNmLECMyYMUNmK5jq1atj1KhRTPqP169fA8g/af3555/Yvn27wu2NHDkS/fv3V9iCWEdHB3Z2drCzs8OwYcMwe/ZsJlCRmZmJw4cPMzlElSU6ABgaGmLLli1SeaV4PB6qVKmCsWPHclpvUQkMDMTly5dZ02rVqoWGDRsqXK44f8+AgACcOXOGNc3Z2RmbN2+W6i5rYmKC7t27o3Pnzli9ejWuXr1a6K7OohZc2traWLlyJbp16yY1j6WlJYYMGcKaVlzf0c2bN1ndVRs3bozdu3fL7UpcsWJFVKxYES4uLpgxYwZevnzJeqgjztvbm9WCrVq1ajh8+DATvJNkbm4OJycnODk5YdKkSXj//r3a0+YcO3ZMKrVC9+7dsWzZMqlWGRUqVMDQoUPRo0cPzJw5k3Xjf+HCBbi6uqJt27ZKb1uU7qJhw4bYtm2bVLoAPp+Ppk2b4q+//sKqVatYF8t37tzB7Nmz5X53pU2/fv3g7++Pa9euMdNWrlyJevXqSbUGyMnJwaJFi1g9YqysrLB06dICt1OpUiX88ccf6N69u8JeDubm5mjXrh3atWsHb29vLFy4kGlB8Pz5c/j5+XHO8yc6H3Tr1g0rV66UakVnYWGBUaNGwc7ODlOmTGGCGVFRUViwYAGeP38OLS0tzJ07V+r4AOQ/cFm0aBEqVqyIf/75h5l+584dzJkzh9O+IrpZ1dXVxZYtW9CyZUvW+9ra2kzdvHTpEtasWcPcRCYnJ2P9+vXYvHmz0ttTRnGf91Ul+ZCNawCtY8eOaNCggVQL+/fv32PFihXg8/mwsbFB48aNYWdnB1tbW1YgtTikpKRgxYoVrMCBoaEhdu7cKfWwWnxfadeuHZYvX87s2xkZGVi6dCmOHDnCqfyi8/CAAQMwf/58qbpUvXp1TJgwgRknQLz10M6dO9G6dWuFefVLy76mKqFQiM2bN0u1wu3Vq1eBy65YsYJ1zV6lShVs2LBB5nWerq4unJ2d4ezsjKtXr2LVqlXMb3/06FF06NBBqquyuG3btrGCd1paWli+fLlUOUWNSxo1aoSOHTti3rx5yM7OZgXdSqK4uDgsXryYFbjW09PDihUr5OaaLl++PBOMnDNnDm7cuKFwcMVjx46xApm6urpYsmQJevbsKTWvlpYWbG1tYWtri169erF67rx+/RonTpzA//73P7nbunr1qlSQfODAgZg/fz4r6M3j8VC9enVMnDgRPXr0wJQpU/Dt27dCX1+XFkVxj9ywYUOmDv748YP1m9va2ir9YF/ctm3bWHXI1NQUa9eulboeAPKP8w4ODnBwcECPHj2wYMECJlh7+/ZtdOrUiVP+dFHgunPnzli1apXU9bienp5UOTIzMzFv3jxW4JrP52POnDkYPHiwzHOMqakpc4yaMWMGHj58KPceBsi/njp79izzmsfj4bfffsOoUaOk1s/j8VC7dm388ssvTH0StZD9+vUrdu3ahQULFij1fQD/nfdMTU2xe/duNGjQgPW+rq4u2rRpg9atW2Pfvn2shkgRERH4+++/MWfOHKn1iu8bksFrVfabwjh+/LhSaZDUpVWrVj9F8FoyBacqjUfMzMzA5/NZ5yNlUnuKq1evHusBUGBgYJEGryltCFGrwYMHFzhQSeXKlTFr1izWtEePHslMKSBux44drMo1fPhwzJ49u8ABgMzMzLB161ZW/klvb+8Cu9NMmzaN06AtlpaW2LFjB+sEeOvWLYW5+hRZs2ZNiR4QQZSY/7fffpMKLv72228FLl+cv+fRo0dZ3a+trKywZcsWhXketbW1sWzZMjg6Ohb4WZQ1e/ZsmYFreYrrO5IMmEyePJlTzvKmTZuiVq1aMt+TvJEcPXo0p4Ba/fr1Fd7ocpWZmYljx46xpjk6OmLFihVyuxMC+TcWO3fulDomqJJns1KlSvjrr7+kAtfieDwe5s+fz5onJyeH1ZKtqO3bt48JQHH9J6/1tKRFixax9p2UlBQsWrRIKvfntm3bWAFCXV1drF+/XqkLUAcHB/Tt21dh4FpSmzZtpFqfiN+8cNGkSROsWrVKYVqcpk2bonfv3qxpXl5eAIAxY8bIDFyLGzt2LKulRG5ursr7yh9//CHzRlVc3759MXnyZNa0Bw8eqL2banGf91WRlZUl1c2yevXqnNbB4/GwYcMGucdGgUCAwMBAnDp1Cn/88QcGDRqETp06Yc6cOTh16pTKaWK4+Pfff6VSdmzcuLHAXlbdu3fHzJkzWdOCgoLkpp9QxMXFBYsWLVJYl6pVq4a//vqLVd/T0tJw8uRJhesuDfuaquLi4rBgwQLcv3+fNd3Ozq7A4NKzZ89YQTFTU1P8888/BTZQAPID4+ItrYVCIY4ePSp3/ujoaFy9epU1bcqUKQUG2Fu3bo3FixcXWJ6S4PDhw6x80nw+Hzt27FA6yKetrY3evXujdu3aMt9PTk6Wui5Zu3atzMC1JBsbG2zevJkVdD5x4oTCXNySPRVcXFywcOFCha21ZdXRsqAo75HV4cuXL6xeXOXKlcOOHTsKvB4A8nuGLV++nDVNUV2Xp1GjRli7dq3C63Fx58+fl2qBumLFCgwZMkSph6M8Hg/t27eXG2wT5Y0XN3v2bPzvf/8rcP3Vq1fH9u3bWSlPLl++zLm3AY/Hw5YtW6QC15LzTJ48WWog1PPnz3POX09KB8lxP1QdMFpyOa5jckle74aGhqpUDmVR8JqojampqVJBSwDo0KEDq9WAQCBQmAvq9evXTKsWID+f8vTp0zmVTfJG+8KFC0ovrywzMzP06dOHeZ2dnS03/5Yirq6ucHV1VWfRODt37pzMf4cPH8batWvRv39/LFy4UCo4/8svvxRY9uL8PePi4pggkMjs2bOVOsjz+XzMnz9f6XIpUrduXQwePFjp+YvzO5J8ysrloU1BJHPHS7aoLW43btxg7bN8Ph+LFy9WKt+2kZERZs+ezZoWFBTEuY7PmDGD6XapiL6+Prp3786aVhoGBONCX18fGzZsYNXHoKAgbN26lXl9584dqZ4Tc+fORf369Yu0bD179mQ9PHjx4oVK65FsgSZPjx49pKZZWlpi0qRJBS7L5/OlHoypsq84OjpK7XPyjB07Vqo+nzt3jvM25Skt5/1v375JdWOW1yVbkerVq+PYsWNo3LixUvMnJyfj4cOH2Lx5M3r16oV58+bh06dPnLerDFGuf3E9evSAs7OzUssPHTpUKi/9qVOnOJVBdD5WJiBRs2ZNqRHvr1y5IjcAVFr2NVmCg4NlXqudPHkS//zzD3777Te4ubmxUv0A+UGyDRs2FPh9Sgagpk6dyunhzLBhw1jHiQcPHsgN3ly6dIn1AMHKygqjR49Waju9e/cu0tZe6pCYmIiLFy+ypo0ePVpq0KvCkBwQvGvXrko/TAbyg4fi56LY2Fi5Y4P4+fnhy5cvzGsuddTa2lqqjv7MivIeWV08PDxYDX1GjhzJqfFIx44dWQ1+goKCOPeEWLBggdJj6+Tm5uL48eOsad27d5d5LaWqO3fu4Nu3b8zrJk2aYNiwYUovX716dQwfPpx5nZWVJfWAriC9evVS+tj2+++/s4Ll2dnZuHTpEqftkdJBMk2Osg98JEk+ROSas1ryele8vhQFShtC1KZnz55Kt9bk8/mws7NjXRB9/vxZ7klSMr9z//79OT+x79ixI9asWcNcGBdVFxXJG8+AgADOgej+/furs0gqkexGVBBLS0vMmjVLqcBHcf6evr6+rJuhSpUqoXXr1kpvp27dumjSpIlKDyHE9evXj1MX6eL8jiRzqQYHB6stp5nkICtBQUFKteIoKpKt/Vq2bMkpL327du1QtWpVVkvLx48fK5U3FMi/geHSjdLe3p51cS45QMfPoHbt2li4cCErxdLZs2fRrFkzNGjQQCrPd48ePYrlGKmlpQU7Ozvm4VdiYiK+fv2qdC44IL8lm6LBJMXZ2tpKTevZs6fSF6SSLSFVCWQW1MJbXLly5dC/f3/s2rWLmebl5VVgvkRllZbzvuSgcsbGxiq3KKxcuTIOHjyIW7duwcPDQ+kHEAKBAPfv34eXlxfGjx+PyZMnqzWlSFhYGKKjo1nTuNzAa2lpYejQoayc9X5+fsjKylL6u2rZsiWnujdw4EAcOnSICcYkJSXh1atXMgPupWVfk0Uy160yOnbsiIULFypMPQHkH/PEB6A0MjKS6iFSEG1tbXTu3BlHjhwBkP8g5NWrV+jQoYPUvJK9Rfr168dpIOfBgwdLpQQrSR4/fswKDOjq6qo9gCu5L3OppyJdu3ZlDTrv7++Pjh07Ss0n+XsVto7+zIryHlkd8vLyWOMTaGlpcboeEOnatSvr2PfixQulr4FsbGxkXgfJExAQIHX+HT9+vNLLK0OyPinboltct27dsG/fPua1v78/p3rPpeGTmZkZunbtin///ZeZ5uXlhTFjxii9juImOeYSUY7kw/iCeonJI7kc1+C1ZLoSZQf6VRUFr4nacE2vINlyQ7KFpjjJm4BWrVpx2haQn5vRysqKuaEPDQ1Fenq61AB5iiQmJiIsLAxJSUlIS0tDVlaWVIsrye5LXCsxj8dTa6qK4tCrVy8sWrRI6S4rxfl7inIMi7i4uHC+8GjVqlWhg9dcU8AU53dkZ2fHGnRz69atKF++vFrS1tjZ2bFeHzx4EFZWVpwCuOok+TvKuiFThMfjoWPHjvDw8JC7TkVEg00pS7Jlq6LjpLoVNOCPIlxbAPTu3RsvX75ktRBZvXo1KlWqxBq4S5TjubDy8vIQGRmJr1+/Ii0tDWlpaVK5YAFItRCMiYnhdHPetGlTpec1NDSEiYkJqycEl5aEkvl8xQcQVgafz+f8e7dv354VvP7+/TtiYmJUGjhGUkk57xdEcmA5LimXZOHxeOjWrRu6deuGsLAwPHz4EH5+fggICCiwO6dAIMC+ffvw7ds3zuNtKCLeKhnIfwgseWwvSIcOHbBq1Srmmik3NxdBQUFK15F27dpx2l7FihXRsGFDVk7dgIAAmcHr0rKvFZaZmRk2bNigdEtff39/1jVus2bNVHowIxm8evPmjVTwOjMzU6q7MdffvG3bttDS0iqxwVDJ3jutWrVSqheWskT3KCJGRkZKP1gXJ+v3kkU0poOIOuroz6oo75HV4f3796xrhrp166o06KzkviN5D6YI13sOyfpkY2MjN52OKkQP2sSpcm4QDQ4uCjZy+U7Kly/P+Vzbvn17VvA6JCQEubm5nO49SMkneS5WlN5JEcnluJ7jJa95Ja+J1Y32YqI24vn+lCF5QS9vZ8/IyJC6oPX39+d08BcRz82cl5eH+Pj4Am8sQkJC4OnpiQcPHqj0NInrBUeVKlWkWquWdFevXkVeXh7++OOPAoNWxf17SrZUVZQzTB5lWw3Iw+fz5eaElqW4v6OePXtiz549zNPW+Ph4TJkyhcmH2bJlS9StW1ellnyurq6oWLEi0zoiMzMTCxcuRO3atdGlSxe4uLjAxsamWC6qEhISpHK2KpO3U5JkyxAu3Tm5pmSRzOlc1BcF4lQd8EdV8+bNQ2BgIJMrNi0tjXUjLspzrWowKDc3F3fu3MHNmzfh6+vLuXUBoNrxnAt9fX1W8JrL8sqeU+WpWbMm55x5VlZW0NfXZ3Vf/PDhQ6GD15o+73MhuR+pM49r7dq1Ubt2bYwbNw55eXkIDw9HSEgI3rx5A19fX7mt669cuYKGDRuq1HJOFsn8zaocN42MjGBlZcVKM/Dhwwelg9eqnIdtbGxYgTFZx+rStK8VVmJiIhYsWID169crFSiS/A4yMjJUSg0keR0mK0d7aGgoq5ecgYEBrKysOG1HX18fNWvWLLL0OYUlmUKhoHzxXL19+5b1sMHIyEil30sy+C953STy/v171mt11NGfVVHdI6uLZF3n8Xgq7TuSD/y5jMfAdaBjyfqkyoMaRT5//sy65tPX18etW7dUWle5cuWY4HViYiIEAoFS6VFUrVPisrKy8OXLF9SpU4fzukjJJRk0lhx/TFmSLbi5NsAobNoRrih4TdRGMvVAQbS02CnXxS9axcXHx0u1bt6yZQu3wsmRlJQkN3dfamoqNm3ahGvXrkltnwuuie/V2QqjMPz8/KSmZWZmIjo6Gi9fvsTp06dZN7TXr19HZmYmNm7cqDDIWdy/p2SwSZXReBUNrKcMIyMjpXO4AcX/HVlaWmLJkiVYvnw566YlMDAQgYGB2LFjB4yNjWFnZwcHBwc4OTmhcePGSn0mXV1drFq1Smpgz7CwMOzZswd79uyBvr4+bG1t4eDggGbNmsHR0VHl7k+KyBo8VZX83rJaQwuFQqWC+4U9TpbUFmXqoKenh/Xr12P06NEyj5sLFizgfHMj8vr1a6xdu5YVDFcF1xtIrg8iJX9vLiOiF3Zf4XpzLdpm5cqVWcEidQwOpKnzvjoU5npBES0tLVhbW8Pa2ppJz/Xu3TscPXpUqmszAOzZswe9e/dWS/BU8tip6rgI1apVYwWvuYxqr8r+KbmMrHNAad7XAGDSpElSg8AJBAIkJycjNDQUd+7cwaVLl5jWVYmJiZg5cyb++eefAvOrx8fHs14/f/6clUZEVbJ+d8nfpnLlyio9MK9SpUqJDV5LHhvVvW9I/l7R0dGcUwDKIqveZGVlSQUp1FFHf1ZFdY+sLpL7zrt379Sy73A5xnO9/5UMlBd1fcrIyFDLdyIUCpGcnKzU4PWq1A8LCwtWS29Adh0mpZvktZ2qQWPJ4DXXa8aiuuaVhwZsJGqjzvyK4ric+LiSV9FTUlLw66+/4urVq4WulFwDCIXtclyU9PT0YG1tjf79++P48eMYOHAg6/379+8zeQ3lKe7fU7LrvCo38lwCSLJw3aYm9vkePXpg586dclMipKSk4OnTp3B3d8fEiRPRs2dP7NixQ6lWFU5OTjhw4IDcVu8ZGRnw9/fHwYMHMW3aNHTt2hVr165FRESE8h9MCZIPMrS0tFTaHyQDkgKBoFhbRP/MrK2t0atXL6nprVu3Zg2Gy8XTp08xderUQgeuAe4XaYU9LxbVeVUWVY9zkvVBHd2bNXEMVJVka3VVW7+ookGDBli7di02bdok1XslKSkJd+/eVct2JH9TVfcVyeW43FCrsk3JfVPWflWa9jVl8fl8mJubw8nJCQsXLsShQ4dY+a0zMzMxf/78Ar//ovpuZH0v6trHSnLPRcnvW91l1eTvBainjv6sivNcroqiCm5yOQZyvf+VLDPXBwRc169Oyn4v6joOFuV5jmiG5P7OpZeDSGJiolTKRBMTE07rkAx+c+3ByRW1vCYlnqo5fJQhLxCxdetWqYGSKlWqhK5du6JJkyaoVq0aKlasCD09Pejo6LCekPv5+WHKlClFVuaSgs/nY+HChYiJiWENFrRnzx60b99e7iB4xf17SrbgVWX7RVnm4t6eouBby5YtcfbsWTx8+BA3btyAn5+f3EDUjx8/cOzYMZw9exZz585Fv379FG7X1tYWHh4eePr0Ka5du4bnz5/L7YqakpKCCxcu4PLly5g0aRImTJhQ4i/8iXq8ffsWFy5ckJru7++PT58+cUq/A+TffCxdulTq4srJyQmtW7eGra0tKlWqBHNzc+jo6EilPVqxYgVr4CpSPDR1DFSF5E0i195W6tChQwdMmTKFlX8cyB+w2M3NrdjLU5qUpn1NVTY2Nti0aRMmT57MtOCMjY3Fli1bsGrVKrnLFdV3U1K+l59NcV+rkp8H1XVpZeHcUBI8fPgQsbGxxba9Hj16FLpRWklQs2ZN1mtVUttKDsQNgHO6LvG0gUDhG/wVhILXpMST9QTI29u7yJ7sfP36VSpYMWrUKEyfPl2pvLySlfhnxuPxsHTpUgwaNIhp4ZyTk4MtW7bgr7/+krlMcf+ekk8muQ5ipuoyhVHc35E4bW1tdOrUCZ06dUJeXh4+fPiAV69e4dWrV3j58qXUk93MzEysWbMGAAoMYPN4PLi4uMDFxQVAfj65ly9fMuuPjIxkzS8QCODu7o7s7GxMnTq10J9Ncl/Iy8tDeno65xOt5P7A5/N/igshTUtOTsbixYtlDpyYkZGBBQsW4OjRo5zqwcmTJ1ldtY2NjbFp0yalBwbSRCBSU1TtPSBZH9TR+kmTx0CuJPN7p6amIjMzs9jLOmTIEOzZs4d1w62u3iuSv6mq+4rkcly6iaelpXEeCFZy35S1X5Wmfa0w7O3tMXLkSBw9epSZdu3aNQwePFhu+hDJ72b06NH47bffiqR86trHivt6jUsQytTUlBn/A1B/WSV/Lzs7uwJ7Q6pK1nFeHXWUaIbksbhLly5Yt26dhkqjHMkyq3tQS8n1W1hYqJzzWlXqOg5ybU1bnI4fPy41aHJRatWq1U9xzyYZvI6KilI6haX4MuLKlSsnlRqzIJJxAcnB49WN0oaQEk9WTqii7Mrz4MEDqdHVZ86cqfSAcurI91malC9fHmPHjmVNe/LkidQo0CLF/XtK5qsWz7epLMnBhopacX9H8mhpaaFBgwYYOnQo1q1bh+vXr+PYsWMYNGiQVH3Ytm0b5zKKUtCsXLkSly5dwtmzZzFmzBiproNHjhxRy29gZmYmNe3bt2+c1yMZZDc2NqaW4WqwYsUK1oWUubk5K61LWFgYNmzYwGmd9+7dY72ePXs2pxHty9LxXJW6kJeXJ9XaQ1Y946qkHAOVISs3b3G2IhIxMDCQ6vGkrv1X8iZe8oZHWZLHTi431Krsn5LLyAqWl6Z9rbAmTpwo9XklW+uLk5y3KL8Xyd8mJiZGpdaJXPeTwo4VwCVgJnls/Pr1K6dtFaQ4fy9dXV2pBzzqqKNEMyT3zdJwDJTc34ujPhV3i2lV6kd8fLxUb8OSMp4WUZ/atWuzXqempnK+V5YcqLVGjRqcxugCpK93i3ocAwpekxLP1NRUqmXTu3fvimx7kqPR9+jRg9PyQUFB6ixOqTBs2DCpIPGePXtkzlvcv2fDhg1ZryUP1Moo7pHQi/s7UhaPx4OtrS0WLlyIPXv2sALYaWlpePToUaHWX6tWLcyYMQMeHh6sVj0CgUAtrR3MzMykBuxUpb5KphSqV69eocpFAA8PD3h5eTGvtbS0sGbNGixevJg1n6enp9JpPHJzc1kDd2lra6Nr165Kl0kgEJSIeldcvnz5wjlHb3h4uFTrdHXUh5J6DJRFR0dHaqwAdd9EK0symKSu1sOSA6VKHgOVkZqaivDwcNY0LvtKSEgI521KLiNre6VpXyssAwMDqcYGL168kDlANwDUr1+f9boov5c6deqwbprT0tKk9peCZGRkcF5GctwLrr1tuASXbG1tWa/fvHnDaVsFkfy9vn37VqQtmyW3p446SjRDckya9+/fl/jUFjY2NqzX6q5P1tbWrJ4EAoEAoaGhat1GQdRRp3R1daVa6ZLSr379+lINAF6/fs1pHZLzt2jRgnM5JK9369Spw3kdXFDwmpQKzs7OrNfiOZbVTXL0Yi7dH/Ly8vD48WN1F6nE09PTw//+9z/WNH9/f7mtr4vz92zSpAnrta+vr9QI0ork5ORItd4sDsX5HanC3t4eHTp0YE2TfPCjqpo1a2LAgAFFsm7J7tH379/ntLxQKJRaRnIfI9wEBARItf4bP348nJ2d0b17d/Tv35/13oYNG1hBaXkSExNZN19mZmbQ1dVVulz+/v5laiBOgUDA+Tjz4MED1uuKFStKBQJVVdKPgeIkg1IfP37USDnEUxIA0j2PVGVvb896HR0dzfmmWrJXm7a2ttTDZUUePnzIaXvfv3+XejgpLz1GadrXCmvgwIGswRsBYN++fTLnlfxe3r9/X2S9CvT09KRuern+5l5eXkxOb2VJpr/g0qtAIBBwChY0a9aM9drHx0etvXuqV6/O6vItEAiK9J7Ezs6O9VoddZSoRrK1JNceBPb29qzro8TExGJvuMOVZC+6d+/eqWVgbhE9PT2pc19xnxvi4uIQGBjIaRnJ6zIbGxuFvccl9x2ux9DC2rt3L/z8/IrtX9WqVYv18xUVbW1ttG7dmjWNS0Ov6OhoqTrerl07zuWQvN7lcl2nCgpek1KhU6dOrNdXr14tsgtoyQM8ly6Bd+7cUbk7bWk3aNAgqS5W+/fvlzlvcf6eDg4OrAcQAoEAhw4dUnr5M2fOaKT7XHF+R6qSzIulznzvkhcXXFuEytOmTRvWax8fH055YR89eiTV9V1ynUR5SUlJWLRoESvPtZOTEyZNmsS8njt3LquFlyj/dUH7hORgrWlpaZxu6I4dO6b0vD+Ls2fPKj1vTk4OLl68yJrm6uqqtrKUhmOgiGRQ9P3798Vehvfv30ulcJFsTaeq2rVrS3UFPX36tNLLC4VCnDlzhjWtefPmnB4mPX36lFOL9vPnz7Pqu4mJiVQgQqQ07WuFpaenh1GjRrGmvXjxAi9fvpSat3LlyqwAZV5eXpHlUAaAtm3bsl5fvHhR5hgI8pw7d47zNiVbJHIJRt+9e5fT9WHr1q1ZadGysrJw/PhxpZdXhuS+fOTIkSJrQSv5exW2jhLVSebw5driXkdHR+r35HKvpAmNGjWSelh+8OBBtW5Dsj6dPHlSbfcjyuJyXEtMTJQKYBZ0XSbZ+4Ty0Jceko3IfH19lT4GX7x4kXX8NTU1RdOmTTltPyUlhdX7qFy5clI9ItSNgtekVGjdujXrSU5WVhaWLFlSqJGA5V3MSZ4IlU2FEBcXh82bN6tcntJOT08PI0eOZE3z9fXFq1evpOYtzt9TS0tLqhXvmTNnlGqNEhISIjf9SVErzu+Iy82hOMnWr7Ja+am6bsm8XepqQditWzdW7jeBQIB169YpdQOVmpqKLVu2sKY1bNhQbms+ophQKMSKFStYo11bWlpizZo1rJYgurq6WLduHevmTJn81yYmJqy0CRkZGXJ7g0i6dOkSfHx8lP0oP40XL17gxo0bSs17+PBhqQc/gwYNUltZivMYWFgtW7ZkvZYVCFRk3rx5hUq7JBAIsH37dqnp6nqYoKWlhcGDB7OmXblyRen6dObMGakWlkOHDuVUBoFAgI0bNyr1G3758gUeHh6sab1795abRqU07WvqMHjwYKkct/JaX4s/SATyH3AVpvWhou+lX79+rBzU4eHhrAEmFbly5QrnegdItx6+ceOGUsGp5ORk7Ny5k9O2TE1NpXoSHT16VK2DlY0aNYoVIH///r3CvOaF4eTkBCsrK+Z1YeuosqKiouDk5MT6p6lr9ZJC8hpZmd5pkiZMmMAav8HLy0ulB0IiRX0M1NbWlur1e+PGDVy/fl1t2+jTpw8rLvDjxw+sWrWqUOvk+r1cuXJF5r20LDt27GAFn8uVK4e+ffsqXEYd+w7RjHbt2rEewAqFQmzatKnA5SIiIqSOvyNGjFB6fDeRly9fsvbnpk2bFvlg1xS8JqXGzJkzWQENf39/TJ06lRX4KIhQKMTz588xa9YsuekCJLv13bhxo8BAZ0REBH755RdO6Sh+RkOGDJEaFELeDVFx/Z4AMHz4cKmulPPnz8fZs2flBi1v376NadOmIT09nVPrMHUqru9o2LBh2L9/P6f999GjR1LBFlkD4U2bNg07duzglBcyKCgIFy5cKHDdqpCV4ubZs2dYvXq1wkB7SkoKZs6cKdXqWvLGnijv2LFjrH1IS0sLq1evlspLDuS3juOa/5rH48HR0ZE1bdOmTUhOTlZYritXruDPP/9U5iP8lFavXo1nz54pnOfy5cvYu3cva1rbtm3Vnv+9OM8ThWFtbc06x8TExHDq0RESEoJZs2Zh9OjRuHz5Mqd0NUlJSVi4cCGeP3/Omt6kSRO1pjTq378/6yZXKBRi3rx5BXZpvnXrFrZu3cqa1rBhQ6nursp48uQJ1q9fr7Bbc1RUFGbMmMEasMrAwAAjRoxQuO7Ssq+pg76+vtT38fz5c5mtjtu0acN6OCMQCLBgwQLOQa2EhAQcOHAAM2bMkDtP5cqV0atXL9Y0d3d3XLt2TeG6fXx8VD5mt2vXjtVLJzY2Ftu2bVO4TEJCAn7//XdO+4bI6NGjWb0UBQIBfvvtN6XT0+Xm5uLKlSty0yNYWFhg3LhxrGlHjhzBunXrOLUYzcrKwpUrVzBy5Ei5qU14PB7Gjx/PmvbkyRNs2LBBYR2NjIyUqqOkcCR72fj7+3NOX1W3bl3069ePNW3Tpk3Yu3cvp1QSqampOHXqlFSDpqLQr18/qd4TK1aswNmzZ5UKEguFQjx48EBucFhHR0fqmHXr1i3MmzePU6+L3Nxc3L9/H5MnT+accksoFGLu3LkF9ujat28fPD09WdMGDhwoc1BicZL7zrlz50r0w1fyHz6fj19++YU1zcfHB+7u7nKXiY+Pl+q9am5ujuHDh3PevuSDV1Wu67jiFl4nJUZcXFyhnobWq1dPbvfJksrR0RGzZs1itW5++fIlBg4ciB49eqBDhw5o1KgRK3iak5OD8PBwfPjwAS9evICXlxd+/PgBAFIXyCKurq6oUKEC02U0Ly8Ps2fPxrBhw9C3b1/UqlULPB4PeXl5eP/+PW7duoXTp08zF2GOjo5qbUVRmhgYGGD48OGsg+azZ88QEBAg1Tq1uH5PIP9Gbfny5Zg6dSoToMzKysKGDRtw5MgRuLq6okqVKtDS0kJMTAx8fHzw5csXZvnJkyfjr7/+Yl6Lt0woSsX1HcXFxcHd3R379u1D06ZN4erqioYNG6Ju3bqsfJAZGRkIDg7GtWvX4OnpyQr8N2jQQCpQCOQHfY8dOwYPDw80bNgQ7dq1g52dHRo0aMBq+ZWVlYUPHz7g9u3bOHfuHOumpmLFiujYsSP3L1CO//3vf/D29mZdrHp6eiIoKAhjx45FmzZtmM8dFxeH+/fv48CBA4iLi2Otp3///mpNk1DSBAcHF+o8A8hvifv69Wv8/fffrGkTJkxQOFhIt27d4O/vj/PnzzPTNmzYADs7O9SqVUvmMgMHDmS1oA4LC8PIkSMxefJkuLq6Mvtgeno6/Pz8cObMGTx9+hRAfovvunXrcs43WFrZ2Njgw4cPyMrKwowZM9C3b1/0798fNjY20NLSQm5uLl6/fo0zZ87g7t27rGWNjY2xaNEitZepOM8ThdW5c2dWSgVvb28MGzaM0zqCgoKwatUqbNy4Ea6urnBwcIC9vT2qV68OIyMjZr7U1FS8f/8eXl5e8PT0lLqJ1tXVxYIFC9R6rjI2NsaKFSvw22+/MTe2ycnJGD9+PIYMGYLevXujXr16zL7y5s0bnDt3TqoLs76+PtasWcO5bI0aNcLbt29x/vx5BAYGYuzYsWjVqhXT5TkyMhI3btzA0aNHpYL/M2bMKHD8ktK0r6nD0KFD4eHhwXqYt2/fPpmtdNeuXYuxY8cy3ZGzsrKwfv16nD17FgMGDECzZs1Qq1YtVvA/ISEBHz9+RHBwMLy9vfH69WsIBALUrl1bYblmzpwJHx8f5nvMy8vDsmXL8OjRIwwZMgSNGzeGtrY2BAIBQkJCcOHCBVy6dAlCoRDa2tqoW7cup+CQubk5unTpwgqQnz9/HjExMRg3bhwaNWoEPp8PoVCIL1++4N69ezh+/DiSkpLA4/HQqFEjTgOBly9fHmvXrsWMGTOYgGBmZibmz5+P5s2bo2/fvmjevDnrQdGPHz8QHBwMHx8f3Lt3j7lmk/ddjhs3DiEhIayA+Pnz53H//n0MGDAALi4uaNCgAauFXHp6OsLCwvD+/Xs8efIET58+VSoVXO/evXH9+nXWA89z586x6qioJXhERARTR0UDYzZu3FilgdQJW82aNWFtbc30WszNzcXYsWPRvn171K1bF4aGhqxjboUKFWTmt503bx5CQ0OZwQ8FAgH27t2LK1euYMCAAXB2dka9evVYLTRTUlIQGhqKkJAQ+Pj4wNfXFzk5OaweAEVFT08PGzduxNixY5n9VSAQYMOGDbh06RIGDx4MZ2dnVKpUifn8SUlJePfuHZ49e4Y7d+4gMjISy5cvh4ODg8xtdO/eHcHBwawUP/fv38fz58/Rt29f5p5JvHdgZmYmPn/+jI8fP+LZs2d4/Pgxc6zlEhi2s7NDYGAgEhMTMWbMGAwfPhy9e/dmYhFZWVnw9fWFh4eH1MC71apVw7Rp0wrcRtu2bXHz5k3m9Y0bNxAWFoaWLVuiYsWKUq1x27VrhwoVKij9GcqaoKAgubn8ZR3rFN1n9ejRQyolkKQuXbrg4sWLrAYM+/fvx7t37zBu3Dg0bNgQ2traSElJwd27d3HgwAGpBmUzZ86USh+jDPH7Kx6PJ5VmpyhQ8LqUCg8Px/r161Vefvjw4aUueA3ktxDNzMzE7t27mcBZVlYWLl68yOTe1NHRgYGBATIyMlR6qq+np4c5c+Zg4cKFzDSBQIDjx4/j+PHj0NHRgb6+PlJSUqRa7bZo0QKjR48us8FrIP83On78OCtX+L59+2R2ryyO31PE0dER69evx8KFC1ktbKOjoxXmeZ0wYQI6d+7MCl6Ljz5d1IrzOxIIBMyAFiLa2towMjJCTk6O3NaAJiYmWLVqlcJghFAoRGBgICsQyOfzYWRkhLy8PLn5iHV1dbFy5UqVTqry8Pl8rF+/HtOmTWONHB4aGoo//vgDQH7+wNzcXLnfZ6tWrTBnzhy1lakk8vb2LvTgNLKC14mJiVi8eDGrJU/z5s2VasU+Z84cvH37Fu/evQPwX/7ro0ePyuyq1q5dO7i6urJaeH/79g0rV64E8F+eSFn79oIFC+Dv719mgtd169ZF9+7dsX37duTl5eHChQu4cOEC+Hw+DA0NkZKSIvOmS5TWpahuZorzGFgYPXv2ZAWv79+/zzl4LZKZmYnbt2/j9u3bzLRy5crBwMAAmZmZCj+jrq4utmzZorZ81+JcXFwwZ84cbNmyhdkXBAIBTp48iZMnTxa4r+jp6WHdunWsVAPKWrVqFcaNG4ekpCSEhIQw12hGRkbIzs5Gdna2zOX69eundDqb0rKvqYOhoSGGDx/OSrfw9OlTvH37Fo0aNWLNa2pqir/++gtz585lteYMDQ1luijzeDwmQJaenq7yoF+mpqbYuHEjfvvtN9ZxWVQftLS0YGRkhLS0NKltTJ8+HR8/fuTcslEUMBdvYSw6/4muU1JTU6W2N3nyZOTl5XEOvrZo0QIrV67EqlWrWPutr68vfH19AfxX39PT0zmnr+HxeFi1ahW0tLRw584dZnp8fDz279/PjEejr68PHR0dpKWlqZziDcjvrfPLL7+w0g0EBwdjwYIFAOTX0Xbt2qFdu3ZqCV6Lp5spq8aPH49ly5YxrzMzM+WmAXN0dJQZvNbR0cHWrVsxf/581r1sVFQUdu3axTzcMjQ0hLa2tsx6Udzq1KnDlFn83jMkJASrV68G8N/9RkHnT3l+++03CAQCnDp1ipmWlpaGEydO4MSJEwDyz736+vpIT0+Xez7iqlWrVrCzs8OZM2eQk5ODo0eP4ujRo9DW1oaBgYHcnoSmpqbYtGmTUg8QOnbsiNq1a7N6c7x//15uS29ra2sKXivw6NEjub3OZVEUz2vVqlWBwWsej4e1a9di4sSJrIZ3oh7SWlpa0NfXl3sPP3LkSJUetn/+/Jm1zzRr1qzARgLqQEd6UuqMHTsWf/31l9RgcSLZ2dlITExUeHIyNzdHxYoV5b7fuXNnzJkzR2oEXtH6k5KSpAJt7dq1w5YtWzjnC/rZGBkZSd2w+/j4yB21ujh+T5H27dtj3759SnVtNzQ0xOLFi/Hrr79KHfAlR6cvakX9HSkKOufm5iIxMVHuSa9OnTo4cOAA6tSpo+ATyCYQCJCUlCTzQRCQ34X477//RvPmzTmvuyDly5fHgQMH5LacTktLk/l9inK/bt26tcjzev2MhEIhli9fzhpYztLSEqtXr1bq5lNHRwfr16/nlP96zZo1ctPOpKWlSe3b5cqVw9KlS9GnT58Cy/OzGTVqFH799VfWMUEgECA5OVlmMNLMzAxbt26VyvmsbsV5nlBVnTp1WHmTX716xbQeLUibNm1YLatlycnJQVJSksLP6ODggCNHjhTp7zFs2DCsW7dOKkUYoHhfqVq1Ktzd3VUe4NbKygq7du2SSiuUmpoqM1DA4/EwfPhwLFmyhFMr79Kwr6nLsGHDpPY7yXRAItWrV8fhw4fRt29fmdfGQqEQqampSElJkRvM4vF4rMF35bG3t8fOnTtlppDKy8tDcnIyaxs8Hg9TpkyRGohSWRYWFti1a5fM7vWi6xTx7WlpaWHq1KmFShvWvXt37NmzR+6DHFF9lxe4Luh8qaenh/Xr12PWrFlygx8ZGRlISkpSGLi2trYusMGGhYUF3N3dpfKHi8iqo+3atcPatWtV6h0imTKFx+NJDVxWFvXs2RO//vqrzPrJhZmZGXbv3o2xY8fK/e3T0tKk6oWkoniAKk/z5s1x+PBh1jlYnKgeyztuF7Qf8vl8zJ07F2vWrIGFhYXMebKyspCYmKgwcF25cmWYmJgo3JakOXPmYODAgaxpubm5cgPXVatWxe7du5U61gL517ybN29G3bp1OZWLlBzm5ubYu3evzAEXRQ3EJPH5fEyZMgWzZs1SaZviD0aB/F44xaFsR9lIqeXs7Izz58/jxo0buHjxIt6+fVtgq4EqVaqgefPmaNeuHVq3bl1gkHn48OGws7PDP//8w7SEkKV+/foYM2YMunXrptJn+RkNHz4cJ06cYB0s9+/fL3NAKaB4fk+Rxo0b49ixY/D29sadO3cQFBSEHz9+ICsrC6ampqhTpw5atWoFNzc35uZcMhd0cQevgaL9js6dOwdvb288efIEr1+/ZlLmyMPj8dCkSRO4ubnBzc1N4YXynj178PjxY/j4+ODVq1eIiooq8LPWr18fPXv2xODBg4s037iRkRG2bduG58+f4/Dhw/D395f7nRoYGMDFxQUTJ05Ue17fsuTIkSOsMQS0tLSwZs0amUEKeWrUqIE//viD1TvG09MTzZo1k3nxZGhoiL///htnzpyBh4cHK3Aurly5cujQoQMmT54Ma2tr5T/UT2bChAlo1qwZ3N3dpbqhihgZGaFbt2749ddfpQZ+KyrFeZ5Q1YgRI7B06VIA+TfLnp6eGDt2bIHLLViwAHPmzMGLFy/w/PlzvHr1CsHBwUq13jIxMUGbNm3Qs2dPODs7F0taq86dO8PZ2RlHjhzBjRs3FOb+rVWrFvr164chQ4awcgurwtbWFqdPn8bevXvh6enJpB4Qp6WlBQcHB0ydOlVuN/CClIZ9TR2MjY0xdOhQHDhwgJnm4+ODoKAgmUEgPT09/PHHHxg3bhwzZsH3798VbkNHRweNGzeGi4sLunbtiqpVqypVNnt7e5w7dw579uzB1atX5QZqHB0dC/Vbi9jY2ODEiRPYs2cPrl27JrfuNW/eHFOnTlXLQM2NGzfG2bNnceXKFVy4cAFBQUEKB4+2tLREq1at0LdvX6U/78iRI9GnTx+cPn0at27dkpsrW4TH46FevXpwdnZGp06dpFrhKyrboUOHcObMGZw8eVJqfBARKysrjBs3Dm5ubkqtVxbJgWI7depEgbf/N2HCBHTr1g03btzA69ev8enTJyQnJyMzM1OpgclFtLW1MX36dKY37f379wscx4HP56Nhw4ZwdnZGly5dVGrUUhg1a9bE0aNHcf/+fZw6dQpv3rxR2GvBxMQEzs7OcHNzg4uLi1Lb6N69O9q3b4+LFy/i6tWrePfuXYHfa82aNdGiRQt07NgRTk5OnM/RfD4fixYtQps2bbB3714EBwfLnM/CwgJ9+/bFhAkTODeusbKygoeHBx49eoSHDx/i/fv3iImJUannB9EMS0tL7NmzB56envDw8JA78Cafz4erqysmTZqk8gMmoVDIyq9uaWlZbHEwnpAyspOfQGZmJt6+fYuYmBgkJSUhPT0d+vr6MDIyQrVq1WBtbc0pOCIpLi4Or169wvfv35Geng49PT1UrlwZdnZ2qFKliho/CQGK/vfk6uDBg9i9ezfzeuTIkSo/qVSXovyOYmJiEB4ejsjISKSmpiIzMxO6urowMjJCjRo1UK9ePZmt7pQRHx+Pz58/IyoqComJicjMzISOjg4MDQ1RtWpV1KtXr1h/W3Hp6el4/fo1vn//joSEBPD5fJibm6NKlSpo0qRJoQMvRPNEYxWEhIQgMTEReXl5MDY2hpWVFZo0aVIsORpLCk9PTyZ9CpDfamLFihWseWJjY/H69WtER0cjOzsb5ubmqFq1Kpo2bVqs6ZNkKWnnCSC/NVTfvn2ZByQ1atTAv//+q1JAOTc3F5GRkQgPD0dsbCzTG0RPTw9GRkYwNzdHvXr1lA4GFqWwsDB8/PgRCQkJSEtLg4mJCczNzdGwYUOVr5Eke0tIPkjJyspCQEAAE5wxMDBAhQoVYG9vr/YuzSVxXyspRDm/k5KSmDzQhoaGMDc3h7W1NaysrAp9rMjNzcXLly8RGRmJ+Ph46OjooHLlymjSpEmRtHDPzMyEv78/oqKikJSUhHLlyqFKlSpwcHAo0u7yycnJCAgIQFxcHHN+MjAwQKVKlVCrVi1YWVkV+uFUfHw8goKCEB8fj8TEROTm5sLAwAAmJiawsrKCtbV1gb1AlBEcHIzQ0FBmrJDy5cvDxsZGLUHm0aNHMzlleTweTp06VeyB0rIoOjqauXZKTEyEUCiEgYEBzMzMmJzbJalHYkZGBt68eYPY2FgkJCQgJycHBgYGKF++PKytraXy9KsiNTUVAQEB+PHjB9Mjx8DAAMbGxqhevTqsra05PeDfs2cPK+XEpEmTpAbki4iIwNu3b/H9+3cIBAJYWFgw17CF/Tzk5/H582eEhIQgJiYGOTk5MDQ0RI0aNWBvb1/oRnhPnz7F9OnTmddTpkzBxIkTC1tkpVDwmhBCCjBmzBhW3ts///wTXbt21WCJCCGkcJQJXhPuTp06xRr0b/v27SqnyijLCgpeE0LKnrS0NHTs2JFJV9GlSxesW7dOw6UiRD2UCV4TomkzZ85kxkQyMjLC5cuXOafDURXlvCaEEAWePn0qNcigo6OjBktECCGkpBowYAAqVarEvBYfxJEQQojqXr16xQSutbS0iq21HyGEEODjx4+s9I+jRo0qtsA1QMFrQkgZwjVvV2RkJJYvX86a1qFDhzLbPZgQQohiOjo6rJZSL1++xKtXrzRXIEII+UmI57vu1KkTpQshhJBidOjQIWZQbktLS4wYMaJYt0/Ba0JImTFkyBC4u7vjy5cvCufLzc2Fp6cnRo8ejR8/fjDT+Xw+xowZU9TFJIQQUoq5ubmxBrzbtWuXBktDCCE/B39/fwD5ra4nTZqk4dIQQkjZ8f79e9y6dYt5PWPGDBgYGBRrGUr+UNiEEKImCQkJ2L9/P/bv3w8rKyvY2trCysqK6e6SnJyM0NBQvHz5EgkJCVLLT5o0Cba2tsVdbEIIIaUIj8fD/PnzMW7cOAiFQrx69QoPHz5Eu3btNF00QggptQ4fPqzpIhBCSJm0a9cuptV1kyZN0KtXr2IvAwWvCSFlUnh4OMLDw5We/3//+x/Gjx9fhCUihBDys2jUqBF8fX01XQxCCCGEEEIKZefOnZouAgWvCSFlR61atRAQEMBpmdq1a2PKlCno2LFjEZWKEEIIIYQQQgghhMhCwWtCSJlx6NAhfP78Gc+ePcPbt28RHh6OmJgYpKamIjs7G/r6+jAxMUGlSpVgb2+P5s2bw9nZGTweT9NFJ4QQQgghhBBCCClzeEJR4hJCCCGEEEIIIYQQQgghpITQ0nQBCCGEEEIIIYQQQgghhBBJFLwmhBBCCCGEEEIIIYQQUuJQ8JoQQgghhBBCCCGEEEJIiUPBa0IIIYQQQgghhBBCCCElDgWvCSGEEEIIIYQQQgghhJQ42pouAPm59OjRA9+/f0fFihVx/fp1TReHEEIIIYQQQgghhBBSSlHwmqjV9+/fER0dreliFJnXr18DAOzt7TVcEkLKJqqDhGge1UNCNIvqICGaR/WQEM2iOli2UNoQQgghhBBCCCGEEEIIISUOBa8JIYQQQgghhBBCCCGElDgUvCaEEEIIIYQQQgghhBBS4lDwmhBCCCGEEEIIIYQQQkiJQwM2EsJBzZo1NV0EQso0qoOEaB7VQ0I0i+ogIZpH9ZAQzaI6WLZQ8JoQDszMzDRdBELKNKqDhGge1UNCNIvqICGaR/WQEM2iOli2UNoQQgghhBBCCCGEEEIIISUOBa8J4eD169d4/fq1potBSJlFdZAQzaN6SIhmUR0kRPOoHhKiWVQHyxYKXhNCCCGEEEIIIYQQQggpcSh4TQghhBBCCCGEEEIIIaTEoeA1IYQQQgghhBBCCCGEkBKHgteEEEIIIYQQQgghhBBCShxtTReAEHF5eXlITU1FcnIysrOzIRAINF0kFlF5Pnz4oOGSEFI2UR0kRPOoHqoPn8+HgYEBzMzMoKenp+niEEIIIYQQUuJQ8JqUGCkpKYiMjIRQKNR0UeQS3Vjm5uZquCSElE1UBwnRPKqH6pObm4usrCwkJCTA1NQUVapUAY/H03SxSAnXoEEDTReBkDKP6iEhmkV1sGyh4DUpEWQFrnk8Hvh8vgZLRQghhBBSdMQfACQlJUFHRwfly5fXYIlIaUCt9AnRPKqHhGgW1cGyhYLXROPy8vJYgWsjIyNYWFjAwMCgxLU+ysvLAwBoaVG6eEI0geogIZpH9VB9BAIBEhMT8f37dwBAbGwsTExMoKOjo+GSkZIsMzMTAN24E6JJVA8J0Syqg2UL3XUQjUtNTWUFrqtXrw5DQ8MSF7gG8g+QooMkIaT4UR0kRPOoHqoPn8+HpaUlLC0tmWmpqakaLBEpDd69e4d3795puhiElGlUDwnRLKqDZQsFr4nGJScnM39bWFiUyKA1IYQQQkhRMTExYf5OS0vTYEkIIYQQQggpWSh4TTQuOzsbQH6OawMDAw2XhhBCCCGkeOnq6jIP70XXRYQQQgghhBAKXpMSQCAQAMjvOkutrgkhhBBS1ogPUi3KKU4IIYQQQgih4DUhhBBCCCGEEEIIIYSQEoiC14QQQgghhBBCCCGEEEJKHG1NF4CQ0oRychOiWVQHCdE8qoeEaJa9vb2mi0BImUf1kBDNojpYtlDLa0IIIYQQQgghhBBCCCElDgWvCeEgNzcXubm5mi4GIWUW1UFCNI/qISGalZiYiMTERE0Xg5AyjeohIZpFdbBsobQhhHCQnZ0NANDWpqpDitfkyZPh7+8PR0dH7N27V9PF0Riqg4RoHtVDQjTry5cvAAAzMzPNFoSQMozqISGaRXWwbKG7DkLKGD8/P0yZMkVqOp/Ph6GhIYyMjFCpUiXY2NjAwcEBbdu2Rbly5TRQUkIIIYQQQgghhBBSllHaEEIIAEAgECA5ORlRUVF4+fIlTp48iQULFqBnz57Yv39/sXQRd3JygpOTE/bs2VPk2yLSPD09md8gKipK08UhhBBCCCGEEEJIGUctrwkpwwYNGoRBgwYxrzMyMpCcnIwPHz7A19cXz58/R0JCAtzd3fHo0SNs374d5ubmGixx2VWWU4UQQgghhBBCCCGkbKLgNSEAkJ0A6KgQlFV1uRLC3NwcdevWlZreunVrjB07FmFhYfjjjz/w7t07BAYGYu7cuXB3d6c0IoQQQgghhBBCCCGkyFHaEEJSQoBXvwBRFwqcVUtLC1pa/19toi7kL5cSUsQF1JzatWvjwIEDaNCgAQDg9evXOHPmjIZLRcoyVh0khGgE1UNCNEtPTw96enqaLgYhZRrVQ0I0i+pg2UItr0nZlhICBC8DBBnAl4P506r2lzs7c3CMuvDf/MHLANtVgLFNERdWM/T09LBq1SoMGzYMQqEQHh4eGDp0KLS12YeP5ORkPHjwAL6+vggJCUF0dDRycnJgamqKevXqoWPHjnBzc5PZatvNzQ3fvn1jXu/btw/79u1jzdO7d2+sWLGCeR0XF4f79+/D19cXHz58QGxsLAQCAczMzGBra4vu3bujc+fOhQqweHp6YuXKlQCAy5cvo3z58jh9+jRu3LiBiIgIAIC1tTV69+6NAQMGgM/nK1xfQkICTp48CW9vb0RFRSE7OxuWlpZwcHDAwIED4eDgIHfZyZMnw9/fH46OjlIpRKKiotCnTx8AwPLly+Hm5oanT5/i9OnTCAoKQnJyMipUqAAXFxeMHz8elSpVYi0vaxBP0frEubu7w8nJiXn95csXnD59Gn5+foiOjkZ2djbMzMxgYWGBBg0awMXFBe3bt4eOjo7C74ULukAhRPOoHhKiWaJGBYQQzaF6WMaV0Z7bJQnVwbKFgtek7MpO+C9wLaJEAJsVuAbylw9eBjjs+WlPRHXq1IGzszOePn2K2NhYBAYGwt7enjXPyJEjWQFokR8/fuDHjx94+vQpzp8/jx07dqB8+fKFKo9AIEDPnj2Rl5cn9V5sbCxiY2Ph5eWFS5cuYdOmTTAwMCjU9oD84PyCBQsQHBzMmh4YGIjAwEDcvn0b27dvl7utp0+fYsGCBUhLS2NN//btG759+4br169j8ODBmDdvXqFbNO7atQuHDx9mTYuKisL58+dx79497N27F7Vq1SrUNu7cuYM//vgDOTk5rOlxcXGIi4vD+/fv4enpiVOnTslMTUMIIYQQQgghpY6oAVz14YrjBpKiLgARJ3/qhm+EFBUKXpOyS8c8/4QjHogGFAawc7+ehdbXw9DiSQQXqw//aQPXIi1atMDTp08BAC9fvpQKXufl5aFRo0Zo06YNbGxsYGFhgZycHERFReH69evw8fHBu3fvsHjxYqmWw7t27UJOTg6GDRsGQHogSQAwMTFh/hYKhQCA5s2bo1WrVqhbty7Mzc2RlpaGyMhIXLx4EW/evMGzZ8+wYcMGpvV0Yfz5558IDg5Gly5d0Lt3b1hYWODLly84ceIEgoKC4O/vj2XLlmHz5s1Sy7579w6zZs1CTk4OtLW1MWTIELRt2xb6+vp49+4djhw5gsjISJw9exb6+vr47bffVC7nhQsX8ObNGzg6OmLAgAGoWbMmUlJScPXqVVy9ehUJCQlYtWoVDh06xCxjZ2eHU6dO4eHDh/jnn38A5P8mkg8ZqlWrBiD/gcTKlSuRk5MDCwsLDBkyBI0aNYKZmRmysrLw9etX+Pv74+HDhyp/DnlEwXLKu06I5lA9JESzoqOjAQCVK1fWcEkIKbuoHpZRHHtuM8pQz+3iQnWwbKHgNSnbRCcaZQLYURfA+3IIQgAQzw5Rczy3J66llI3NfyfX8PBwqff/+ecfWFlZSU23t7dHjx49cPnyZaxatQr+/v54/vw5WrRowcxTs2ZN1jLyBpIU4fP5OH/+PGrUqCH1XrNmzdCnTx/s2bMH+/btw7Vr1zBhwgSZZeMiKCgI06ZNw7hx45hptra26Ny5M2bNmoUnT57gwYMH8Pb2Rps2bVjLrl27Fjk5OeDz+di+fTtatmzJvGdnZ4fOnTtj4sSJCAsLg4eHB3r16oU6deqoVM43b96gf//+WLx4MXg8HjO9RYsWKFeuHC5evIiAgACEhIQwv6m+vj7q1q3LalVuZWWFqlWrytyGt7c3MjLyeyzs3r1b6reyt7dH7969kZmZqdJnUISCZoRoHtVDQjQrJiYGAN2wE6JJVA/LIOq5XaJQHSxbaLQdQqr2zw9AS/py8L9BHCVPOCJlJHANAKampszfKSkpUu8XFBzu06cP6tevDwB48OBBocrC4/FkBq7FTZw4EWZmZhAKhfDy8irU9gCgXr16GDt2rNR0bW1tLF26lMkBfu7cOdb7b9++RVBQEACgX79+rMC1iImJCRYvXgwgvwW75Dq4KF++PObNm8cKXIuMGjWK+fvVq1cqb+PHjx8A8sut6CEDDaJBCCGEEEII+SmIem5LEo8bSJIXRygDPbcJUSdqeU0IoLgF9reLQHa89DJlKHANgJXLWTJvsyShUIgfP34gLS2NlRO5YsWKeP/+PT58+KDWsuXl5THby83NZW0vMTER79+/L/Q2evXqJTMgDACVKlVCy5Yt4e3tjRcvXkAgEDCDNz5//pyZr2/fvnLX7+DggFq1auHTp0949uyZyuXs1KmT3AESra2tYWBggPT0dERGRqq8DVE6EdEgne3bt1d5XYQQQgghhBBSKnDsuV3WG8ARoi4UvCZERN6JiALXANgBa0NDQ5nzeHt749y5c3j58qXCAHdiYmKhyyMUCnH9+nVcunQJb9++RVZWVpFuz87OrsD3Rek0IiMjmZbooaGhAPK714tansvTqFEjfPr0CV+/fkVOTo5KXfKtra0Vvm9sbIz09PQCH0Ao0rZtWxgbGyMlJQXz5s1Ds2bN4OrqCkdHR9SvX58J3BNCCCGEEELIT0WZADYFrglRKwpeEyJO3olITG610eCXwROOeABYPIUIkB9IXrNmDS5duqTUuhQFmpVdft68efDx8SmW7QH5ebgVsbCwYP5OTk6W+tvExIRJLSKPpaUlgPzvMzk5mXnNRUFpOrS08rNF5eXlcV63iJmZGbZu3YolS5bg+/fv8PPzg5+fH4D8BxstWrRAnz594OrqqvI2CCGEEEIIIaREop7bhBQrCl4TIqlqf/knHF2LMnvCeffuHfO35ACLly5dYgLX9evXx4gRI9CoUSNUqFABenp6TEvcZcuW4dq1axAKhYUqy8GDB5nAtaOjI4YMGQIbGxtYWlpCV1eXCdBOmjQJL1++LPT2AMhNGVJcy5c0TZs2xYULF3Dv3j08fvwYL1++RExMDNLS0nD//n3cv38fLi4u2LRpk1rzXlOrbkI0j+ohIZplZmam6SIQUuZRPSTUc1uzqA6WLRS8JkRS1AXZJxwA/Nwk8H9cK5MnHvE8zA4ODqz3Ll68CACoUaMGDh48KDdYKd4iWVVCoZDZXtOmTeHu7s4EqyUlJSUVensi8fHxUkF7yfdFTExMpP5OSkpCbm6uwtbXooEQeTweax0lla6uLnr06IEePXoAACIjI+Ht7Y3Tp08jPDwcT548wd9//405c+aodZuEEM2iekiIZim6HiGEFA+qhwSAUj23KXBdNKgOli2yIz6ElFXyclOJUzSa8E/q48eP8PX1BZA/OKGtrS3r/bCwMAD5uZDlBa6FQiFCQkIKXZakpCQmyNupUye5gev09HR8+fKl0NsTCQwMVPh+UFAQgPy0HdWqVWOm16lTBwCQk5NT4MCRom3UqFFDpXzXhVXY1uHVqlXD0KFDcfToUVSqVAkAcOfOHXUUjRBCCCGEEEJKnqr9AR0L2e/plN2e24SoEwWvCRGRF7gWOxEJ8vIgyMsrUwHszMxMLF++nEm98b///U+q9bBAIAAAZGRkyF3Pw4cPERcXp3BbotZ8OTk5cucRbUtUNnkuXrzImrewFKU7+f79O54+fQoAaNasGatLfYsWLZi/L1++LHf9b968YR4CODs7q6PInOno6DB/Z2dnq7weIyMjNGzYEIB6BssUl5WVpZYc5oQQ1VE9JESzvnz5otYH9IQQ7qgeEoaCntvIji8zcYPiRnWwbKHgNSGA4tGAmx3J/x8AhML8f0CZCGCHhYVh4sSJTL5rR0dHDBo0SGq+GjVqAAAePXokM1VHREQENmzYUOD2ypcvz8wvj7m5OYyNjQEAN2/elBlkDQwMhLu7e4Hb4+L9+/c4evSo1PTc3FysWbOGCbhLfj+NGjViArkXLlzA8+fPpdaRmpqKP//8E0D+gIoDBw5Ua9mVJfr+AcW/wZMnTxQ+iEhNTWVakVetWlV9BUT+wwt1PpQghHBH9ZAQzUpMTFT7w2FCCDdUDwkA6rmtQVQHyxbKeU2IosC1qIuP6P+wfex5RMuV0q5ACQkJ+PjxI/M6MzMTycnJ+PDhA3x9ffHs2TOmtXHjxo2xceNGmTmbe/XqhR07diA2Nhbjxo3DmDFjUKdOHWRnZ8PX1xcnT55ETk4ObGxsFKYOadKkCSIjI+Hl5YXz58/D3t6eaY1taGgICwsLaGlpoXv37jh79iw+fPiAiRMnYsSIEbCyskJqaioeP36Mc+fOQV9fH+XLl0d4eLhavquGDRvir7/+wvv379GrVy9YWFggPDwcx48fZwK1rq6ucHV1lVp2yZIlGDt2LHJycvD7779j6NChcHV1hb6+Pt69e4fDhw8jMjISADBq1CjUrVtXLWXmqkGDBtDV1UVWVhbc3d2hra2NKlWqMKlZRANw3rx5E7NmzYKzszNatmyJOnXqwMTEBOnp6QgNDcWZM2fw/ft3ANBYIJ4QQgghhBBCioyintuSLbFLedyAEE2j4DUp25QJXItU7Y/crCxoR0q0vi3FJ6Jz587h3LlzCucxNzfH8OHDMXr0aLmDDQ4fPhzPnj3D06dPER4ejtWrV7Pe19XVxcqVK+Ht7a0weD1q1CjcvXsX2dnZWLduHeu93r17Y8WKFQCAadOm4fXr13j//j2CgoKwdOlS1rympqbYuHEj3N3d1Ra8Xrx4MVavXo2bN2/i5s2bUu/b29tjzZo1Mpdt0KABtm3bhgULFiAtLQ0eHh7w8PCQmm/w4MGYPn26WsqrCkNDQyZndUhIiFRZ3N3d4eTkBCC/xfnjx4/x+PFjuesbOHAghg0bVqRlJoQQQgghhJBiVVAcQdb7pThuQIimUfCalF3ZCUDESenpCkYDFlTqAwDgRx9nvxFxEijfHtAxV3Mhi4+WlhYMDAxgZGSEKlWqwMbGBk2bNoWrq2uBgwdqa2tj+/btOHfuHK5du4awsDAIhUJUrFgRLVq0wPDhw2FtbQ1vb2+F62nQoAEOHjyIY8eO4fXr14iPj5eZFsTIyAgHDx6Eh4cH7ty5g69fv4LP56NSpUpo06YNhg0bxgwYqC4mJiY4ePAgTp48iVu3biEyMhJCoRDW1tbo1asXBg0axMp1Lally5a4ePEiTpw4gcePHyMyMhI5OTmwsLBA06ZNMXDgQDg4OKi1zKqYMWMGrKyscPXqVYSFhSE1NVUqPcDs2bPh7OwMX19ffPz4EXFxcUhISICWlhYqVaqEJk2aoF+/fiXi8xBCCCGEEEKI2nDpuU0BbELUgieUNwIZISpo1qwZoqOjUblyZbx48UKpZT58+IDc3Fxoa2ujXr16RVxCCSkhQPAyQPD/Aw0qCFwDQHp6OgDAIPHmfycevj5guwowtinq0pJi5unpiZUrVwLIH2xR3fmbCXdMHTQw0HBJCCm7qB4WDY1eD5FS5fXr1wDye30RQjSD6mEZxaXntirzE6VRHSxbqOU1KduMbfIDz8HLgOrDCzyBMC2QRfNFnKTANSHFqKBeAISQokf1kBDNUnfvMkIId8VWD7MTVOvdq+pyRD4Vem7LbYH9E/Tc1jQ6F5YtFLwmxNgGcNij1ImDdcNetT+dcAgpZhQ0I0TzqB4SolmVK1fWdBEIKfOKpR6Kegkr0ciKJeoCNbIqCjrm/zV8U7LnNgDpALao5zbFEQqFzoVli5amC0BIiaDqiYNOOIQQQgghhBBC1Ek8veWXg/kBaWWI0lQIMvKXTwkp2nKWNaKe23x9bqk/qvbPn59SjhKiEmp5TQgHmZmZAAA9PT0Nl4SQsonqICGaR/WQEM169+4dgPyBrgkhmlGk9TA7gd26F1BuoD/J/MqiALaSvYyJkjj03GahnttqRefCsoVaXhPCQV5eHvLy8jRdDELKLKqDhGge1UNCNCszM5N5iEQI0YwirYc65vmpQiQpaoEtb2DA6sMpWFoUqOe2xtG5sGyhlteEECKHm5sb3NzcNF0MQgghhBBCSFkib6A/WS2w5QWuuaS1IISQEoxaXhNCCCGEEEIIIYSUJKI8yZLEW2BT4JoQUgZQy2tCCCGEEEIIIYSQkkZRC+xvF4HseOllKHBNilt2gmopUVRdjpQ51PKaEEIIIYQQQgghpCSS1wKbAtekJEgJAV79Ij8fuzxRF/KXSwkpmnKRnwq1vCaEAx0dHU0XgZAyjeogIZpH9ZAQzapZs6ami0BImVfs9VBeC2xxFLgmxS0lBAheBggyZOdjl0c83U3wMsB2FWBsw2nTdC4sW6jlNSEcaGtrQ1ubnvkQoilUBwnRPKqHhGiWmZkZzMzMNF0MQso0jdTDqv0BHQvZ7+lYUOCaFK/shP8C1yLi+djlkczTLsjIX092AqfN07mwbKHgNSGEEEIIIYQQQkhJFnVBdqoQIH8617QNhChSUDBZxxyoPlx6+uc98vdFeQOMVh9Oua+JQhS8JoSD9PR0pKena7oYhJRZVAcJ0Tyqh4Ro1uvXr/H69WtNF4OQMq3Y66G8oJ84ZVq9EqIMZfNYS+Zjz4oGkt4AYTull5W3D6uY7obOhWULBa8JIYQQQgghhBBCSiJ5QT9ZKUQogE0KSzKPtbIB7KxoID0cEAqAlHfsALaaA9ek7KGEhYQQQgghhBBCCCElTUFBP1nvcxk4jxBx8vJYAwXvT0Kh2N//H8D+vAf4dlF2uhsKXBMOqOU1IYQQQgghhBBCSEmiTGtVybQNItQCm6hCXh5rRfuTaD/VqwLo1/hvun41gFeOAtdELajltQxfv36Fl5cXnj59iuDgYERFRSEtLQ1GRkaoUqUKHB0d0b9/f7i4uCi1vmrVqnHaPp/PR3h4uCpFL9CrV69w+vRpPHnyBN++fQMAVKlSBS4uLhg6dCgcHByKZLuEEEIIIYQQQghRApc0C6LX1AKbqAOX/UlyP9Wrkv8/jwfoVpa9fgpcExVQ8FrM27dvsXDhQrx8+VLm+4mJiUhMTERwcDCOHz8OFxcX7Nixg3NwWhOys7OxZs0aHDx4EELx7hwAPnz4gA8fPuDYsWOYMGECli5dinLlymmopIQQQgghhBBCSBmVnQBEnJSerijoJy/gGHESKN8+v0UtIcpSJoAt7wFLgyXyU4XoWFDgmqiEgtdiQkNDpQLXtWvXho2NDczNzZGcnAw/Pz+mxfKTJ0/Qp08f/Pvvv6hZs6ZS2xg7dmyB8/D5fM5lL8i8efNw7tw55nXNmjXh6OgIAPD398eXL18gFAqxf/9+pKamYsuWLWovw89AT09P00UgpEyjOkiI5lE9JESzGjRooOkiEFLmFWk91DEHbFexcw8r01pVMuDI189fDwWuiSoUBbAV5bEGZL8nmh51QS0BbDoXli0UvJbB2toaI0aMwIABA1ClShXWe3l5eThz5gyWLl2KjIwMREdHY/r06bh8+TJ4PF6B6167dm1RFVuuU6dOMYFrLS0tLFu2DBMmTICWVn7K87y8PBw4cACrVq1CXl4eTp06hZYtW2Lw4MHFXtaSTvSdEVLc3Nzc8O3bN/Tu3RsrVqzQdHEKZfLkyfD394ejoyP27t0r9b6TkxMAYNKkSfjll19Y75XmOujr64tff/0VFhYWuHz5MgUASalVmuuhuh09ehQ7d+6UezwjpCjQ+YMQzSvyemhs818Au/pw5YN9ovkiTuYvb2xTdGUkPz95AWxFgWtZrbHFqSmdDZ0LyxYKXoupWLEitm7dikGDBslt/aylpYVhw4bB1NQUEydOBJDfcvnhw4do3759MZZWOVlZWaxW1FOnTsWkSZNY82hpaWHSpEmIjY3F33//DQDYvHkz+vbtCx0dnWItb0mXl5cHoHTfuPv5+WHKlCky39PV1YWZmRnq1auHDh06oEePHrQPkBKltNbBvLw85lg8atSoMn2xFR0djcDAQAQFBSEwMBDBwcFIS0sDIPuBhapWrFiBK1euKDXv5cuXUbVqVanpqampePz4MYKCghAcHIzv378jISEBWVlZMDY2Rq1atdC6dWv07dsXZmZmail3aVBQPXz06BE8PT3x9u1bJCQkwMDAADVq1ECnTp0waNAg6Ovrq7U8nz59wuXLl/HkyRPExMQgOzsbFhYWqFGjBpycnNC9e3eZv++ePXuwb98+pbbh7u7OPFgTN2jQIBw5cgT+/v64d+8eOnbsWOjPQ0hBMjMzAdCNOyGaVCz10NgGcNjDveV01f6UKoSoj7wAtjhFgWsdC+lgtxoC2HQuLFsoeC3GxcVF6UEYe/TogaZNmzJpRu7evVsig9e3bt1CVFQUAMDExAQzZ86UO++sWbNw9OhRpKSkICIiAnfv3kWPHj2KqaSlg+gAaWBgoOGSFI2srCzExMQgJiYG3t7eOH78OLZv3y7zpp8QTSitdfDWrVv4+PEjzMzMynSvlm/fvsHNzU3TxVBaYGAglixZIvO9hIQEJCQkwN/fH8eOHcPq1auVvoYo7eTVw7S0NCxduhSPHj1iTU9KSkJSUhLevn2Lf//9F1u3bkWtWrUKXQ6hUIjdu3fj6NGjEAgErPe+ffuGb9++4fnz59DT08OIESMKvT1ZDAwMMHLkSOzevRvu7u5o3759qXu4Rkqfd+/eAQDs7e01XBJCyq5iq4eqBqApcE3UqWp/xXmsAcUDjMrKj13IADadC8sWCl4XgpOTExO8/vr1q4ZLI9vNmzeZv93c3BS2dtLX14ebmxtOnDgBALh+/ToFr39ygwYNwqBBg5jXCQkJCA0NxbFjxxATE4OwsDDMnj0bx48fL5Jc7ER5np6emi5CsfHz89N0EdTu4MH8i7MBAwaovdVpaSI+YDCPx0P16tVRoUIF+Pv7F9k2K1SogL/++kvhPBUrVpT7XqVKleDk5ARbW1tUqlQJ5cuXR15eHr5//467d+/i/v37SExMxOzZs3HkyBHUr19f3R+hVBAKhVi0aBF8fHwAALa2thgxYgSsra2RlpaGx48f4/Tp0/j69St+++03HDt2rNCt1deuXYuLFy8y2+vTpw/q1q0LfX19JCQkIDAwEPfu3VMqrdupU6cUvq9ocO4hQ4bgwIEDCAsLw4MHD6j1NSGEEEJ+LlEX5OexTg4EUoIA3crs6eJ52pUZAJIQBSh4XQjiN0OSLX5KCtFNJAC0atWqwPlbtWrFBK8fP35cZOUiJYO5uTnq1q3Lmta8eXO4ublh+PDhiIqKwsePH3H//n107txZQ6UkpHR7+vQpwsLCAAA9e/bUcGk0y8DAAL/++ivs7OzQsGFDmJiYKExlpA7a2tpSxzllOTk54erVq3Lf79KlCx48eIC5c+ciJycH+/btw6ZNm1QtapESpcgoqtzMd+/eZa45nJ2dsX37dpQrV45538nJCS1btsRvv/2Gb9++Yc+ePViwYIHK27t06RITuB43bhymTp0qFaR2cXHBxIkTkZOTU+D6VN1HAMDIyAitWrXC/fv3cerUKQpeE0IIIeTnIavVtEjmNyBDrCGnKIAta4BRCmCTQqB+jYUQEhLC/K1sWoWnT5/C3d0dq1evxp9//gl3d3d4eXkhPT1d7eVLTk5GTEwM87pRo0YFLtO4cWPm7+joaKSkpKi9XKTkMzQ0xPjx45nXz58/12BpCCndLl26BACwsbGBtbW1ZgujYWZmZpgwYQJatmwJExMTTRenQMr0OGnfvj1q1qwJAExvrLJIPL/4ggULWIFrEWdnZ3Tt2hUAcOHCBSQlJam0rbS0NOzYsQMA0KZNG0ybNk1h62pZZVE3UU81f39/REREFPn2CCGEkBIrO6F4lyNFR17gWscCyMsGMqP+m5YeDmRFyw5ci1Tt/19+bHERJ+n3JwpRy2sVRUZGslomu7q6KrXcwIEDZU7X19fHsGHDMHPmTJQvX14tZQwNDWW9VtTlVd48oaGhcHBwUEt5SOki3gpN/CGILH5+fvD09MSrV68QFxcHbW1tVK5cGa1atcKIESNQoUIFhcsnJibiyJEjePjwIWJiYmBoaIi6deti8ODB6NChAzw9PbFy5UoAsgdWc3Nzw7dv39C7d2+sWLECwcHBOH36NPz9/REbG4ucnBypVBSpqak4e/YsHj16hPDwcKSmpsLU1BQNGzZEr1690KlTJ4XBkPv37+PKlSsIDg5GQkICypUrB3Nzc1SoUAHNmjWDq6urzAdGsbGxOHXqFJ4+fYqIiAhkZmbC1NQU5ubmqFOnDlxcXNChQwcYGRkp/IzyeHl54cqVK6yB0qysrNCuXTsMGTJEbq5oye+4cuXKuHjxIq5cuYJPnz4hJycH1atXR5cuXTBy5MgiHRhDNCiarMH7rl+/jnXr1qmtnAKBANevX8edO3cQEhKCpKQkGBgYwNraGh06dMCgQYMK9VmzsrLg5eUFAHJbY27duhUnTpyAlpYWrly5ojCFBZA/4GNISAhq1aqFs2fPqlw2oj6GhoYAgOzsbKn31q5diwsXLgAA1q9fL7cXy8OHDzFnzhwAQK9evZj6WFoEBwcDAGrUqAErKyu587m4uOD69evIzc2Fl5eXSjnQr1+/juTkZABgPWjVpDZt2kBXVxdZWVm4ceMGM6g3IYQQUqakhADBy4Dqw7m1pI26kB/AtF2VP1Al0Tx5gWvxPNahO4HUd4Dw/zMRiKUIlKtqfyA3FYg8k/+ar5//uyuTpz07gfK5l1EUvFbRihUrmFQh1apVQ5cuXQq1voyMDBw6dAjXrl3Dvn370KxZs0KXMSHhvydXxsbGSuVZ1dfXh5GREVJTUwHkBxVVkZeXxwwUKQ8NAliyibdU09aWfajIysrCypUrcevWLanpoaGhCA0Nxblz57B27Vq0bdtW5jo+fvyIadOm4cePH6zlnz9/jufPn6N///5o0qSJ0uU+d+4cNm3apDCVz/Pnz7Fo0SKpVn8/fvzAo0eP8OjRI7Ru3Rrr1q2TCvYKBAIsWbIEd+7cYU3PyclBeno6IiMj8erVK/j4+ODYsWOseV6+fImZM2ciLS2NNT0+Ph7x8fEIDQ3FrVu3YGZmpvQDMZGsrCwsXboU9+/fZ01PSkpCQEAAAgICcPr0aWzfvh0NGjRQuK7MzExMnz5dqsX9x48f8fHjR3h5ecHd3V3juZsLW87o6GjMnj0b79+/Z01PSkrC69ev8fr1a5w/fx7bt29nWtZy9fbtW2RlZQFg92wR169fP5w4cQJ5eXm4du0axo4dK3d9Hz58YHr99OnTR6UyEfX6/PkzM2CMrJb1s2fPxosXLxAeHo4///wTjRs3RqVKlVjzxMXFYc2aNQDyz43z5s0r8nKrm+h6wcLCQuF84u/7+/urFLy+e/cugPyW/OLnh/j4eKSlpcHc3FzqAWBR09HRQf369REQEAAfHx8KXhNCCCl7RIFrQQa3VBDiQdLgZRTALgkKClwD//0vCmDrVQX0qhT826eEANGegHFDIP2T8r83PeAo0yh4rYIzZ87g2rVrzOtFixZBV1dX7vy6urro2rUrOnbsCHt7e1SrVg26urpITEzE69evmfUJhULExMRg9OjRuHz5MurUqVOocooHyLi0HNTT02OC15JBNmV9//4dzZs3VziP6DsUCATg8/msVq65ubnSLdjy8qCVkMB8lpycHJl5LPl8PvN7ZGVlyQxilitXjgnOZmZmIi8vT2oeHR0dJmgrmdZF9EpPTw9aWlrIy8tDZmamzM8pCn7K/EwAtLS0ZH8mS0tAS0vtn0mcKOAqTvSZRDl6gfwBz8TnMzAwgFAoxPz585keCK1atULHjh1RpUoV8Pl8fPz4ER4eHoiOjsaCBQvw999/w8bmv5MMn89HdnY2ZsyYwQSuu3Xrhs6dO8PMzAwRERE4f/48Lly4gA8fPjDLZWRksMoi/pnevn2L69evo0KFChg2bBhsbGwgEAgQFBQEIP+hiq+vL37//Xfk5ubCwsICAwYMQN26dVG9enXExsbi5s2buHHjBh4/foylS5cyASXR73Tu3DkmcN2kSRP06tUL1apVY+rN58+f8eTJE6SkpLDKmZ2djUWLFiEtLQ2GhoYYOHAgmjRpAlNTU+Tm5uLbt294+/YtHj16xPp9ResQDXSXm5uL9PR0qX1v+fLlTOC6bt26GDp0KBo0aIDk5GTcuHEDV69eRWxsLH799VccOnQIFSpUYO174ttctWoVgoKC0L17d3Tq1AlVqlRBdHQ0Dh8+jLdv3yIwMBDu7u5Mq2iu9Un0fl5eHus7En0mEVn7p/jvLV7ODh06wMLCgmnZ/ubNG6lyivD5fGRkZGDChAmIiYmBjo4OevfuDQcHB1SuXBkZGRl48eIFzpw5g69fv2LGjBnYv3+/VDBM0TFCRDQQIY/HQ82aNWXOV7t2bTRp0gRv3rzB5cuXMWTIENb74r+TKMcvn89Hhw4dmPUVx3FPRN3HPfGyiv/mhf1Mubm5APIfRkyePBmhoaFIT0+HsbEx6tSpg1atWqFXr17Q09Pj/JmSk5MRGxsLHx8fnDx5kinb8OHDmc8hfn5asmQJpk6diuTkZKxYsQK7d+9GdnY2s9zy5cuRkJAAPp+PZcuWMfuaOn8nUXnE653K56f/l56ezvxOBgYGSElJQXJyslSZxH8n8Qfrot+Ey2cCwBzTa9WqhbS0NPz77784c+YMvn37xsxbr1499O/fHz179mQdV8Q/k/h3O2XKFHz8+BGpqakwMjJC7dq1mX1E1LJe3mcS/U6i4HVgYCASEhJgbGzM6XcSCATIzs5GRkYGXr9+zcxjb28PIP8BwZcvX2SuQ/RQMjo6WmZvKTMzM+Yh3JcvX2Q2TqhUqRIqV87PVfnu3TuZdaFmzZrMQJviZRTXoEED6OnpITMzk3mwI4k+U+E+k2hbP9Nn+hl/J/pMZeMzvX79+qf7TIAKv9On90DcQ0DY9L/PFOSPBgBQtb/8z4Qw1EzPD3Z+yWiAxFxL4KknUD4Z0NLV7Gf6GX8nZT5T2FMgNQTAf2OmmWn/QE2b1kDV/hKfqTbA/x3QCkQlXiQqIz//9bsgf2R+5gGGtdifqYIQZhF/AoIMvI4yAwwHA2FZAP77fDI/U9qn/y9TU+CpJ+xb5n8uUUytwM9Uin8n0fSyjoLXHL1+/RqLFi1iXvfr1w/9+yt+mujn5yezJVKFChXQuXNndO7cGbdv38aUKVOQmZmJxMRELF68GKdPny5UWUWt/QBu+R7Fg0PybuI14scP6Im1aiv3//8Ukf9I4T/KhPVlJ1r4j5YS82ij4Aon/pnSP38GCki3UVQEAgE8PDyY1+3bt5ea5+LFi3j8+DG0tbWxbt06ODs7M+9paWnByckJPXv2xMSJExEWFoa//voLf//9N2sde/fuRWxsLABgxowZGDx4MPNegwYN0KVLFyxZsgQPHz5UqtyfP39G7dq18ddff8HY2JiZLnqQkpubi9WrVyM3NxfOzs5YvXo1E8QwMDCAjY0NXFxc0LhxY2zatAleXl7w9fVlPYgRBa4bNmyI7du3s1ql8/l8tGnTBqNGjWI+l0hAQADi4uIAAGvWrIGrqysrMGVnZ4fOnTtj+vTpTKBaWU+ePGEC182aNcPGjRtRrlw5JjDl5OQEW1tbbNq0CcnJydi1a5fClARv377F0qVL0bVrVyYwZWNjg2bNmmH8+PH49OkTrly5ggkTJshtlV8cxMspYmtri/bt2+N///sfQkND5ZZz8+bNiImJQeXKlbF9+3apniAtWrRA165dMWnSJERFReHkyZOYNGkS5zIGBAQAyO+ho6glaN++ffHmzRuEh4cjICBAZivt3Nxc3Lx5E0B+6oWCWrjKIp4epjAk0/CUZOnp6cxDBOC/ng6+vr44ceIEVqxYUeDDVqDg727UqFHo3r27zPdsbW0xbtw47N+/H76+vvDw8GAeUpw/fx7Pnj0DAIwYMaLUXqDWqlWL2YcTExOZi3hJ4hf1BaWkkiUmJoZ5sG5iYoKlS5fi0aNHUvN9+PABGzduhI+PD1auXFngdZD4Pp2YmAh/f3/4+/vjyJEjWLhwoVK9YUQ3SQKBgNKuEUIIKVu0dAHDekBqMHu6qBWulov0MmmfgMzHgGQnScN6TOCaFLPcVCDtg/R0y9byW1KLAtTZkezpaR8A/ar//ZZ5WcCnA4BWhtg8HwFeOakgN3s9n9j7lTA3v4W+zQ7obtoFfteuEMi57iQ/DwpecxAeHo6xY8cyAV1bW1usX7++wOWUCTB06dIFq1atwvz58wEA3t7eePPmDad0CZLEW4PLaqEsj3jrK1VzvVasWBFXr15VOI8oWPThwwfk5uayBsbS1taWDorJydX7szIwMJD5mRW18hdR9ncTD3AC+S3iRK1VRU8EO3XqhJYtW7KWEwqFOHLkCABg2LBh6NChg8z1m5iY4Pfff8fvv//OBG9FuVCzs7OZAb4aNmyIMWPGyFzH4sWL8fTpU+ZhjL6+vty8zUB+TwjJLvkit2/fRnR0NHR1dbFmzRqYm0vny9LW1sbQoUNx7do1BAYG4vbt22jXrh3zvqiVuIODg8IB5yTzfIv3YmjaNL9FgjK/k+izinomaGtrsz6/lpYWMyCgtrY2Vq5cCVNTU5mf6eHDh3j+/DkzSKx4fn3x+tehQwf069dPqizGxsYYNmwY1q1bh6SkJMTExKBevXqseZT5TKJWkFpaWgp/S8n9E2C30pVXTgAYMmSI3HJGRUXh9u3bAPIHlhPP7y7OxsYGgwcPxtGjR3Hjxg38/vvvcssq73N8//4dQP55QNFn7dq1K7Zu3Yq0tDTcvn2b9TBIxMvLi2kR0L9/f7nrU+YYoQ4F/X6AnGO5BPF9T9ZvDqh23CtXrhwaN24MV1dX2NjYwMLCAtnZ2fj48SMuXbqEwMBAxMbGYu7cudi3bx9sbGyU+kyS6tevjyVLlsDOzo61bclg6aRJk+Dn54dXr15h9+7dcHZ2hra2Ntzd3QHkHwenTZvG+r64HCPkEX0mUXlkfUZlfifxzyRq1S6+TNu2bfHmzRsIBAIcOnQIS5YskVpHeHg4q+daRkaGzPIr+kzi6Z5E5wYrKyvMnDkTzZo1A4/Hg7+/P7Zv347Pnz/D29sbBw4cwOzZs6XWpaWlhbp166J9+/aws7NDhQoVkJubi8+fP+PGjRt4+vQpUlJSsGzZMmzduhWtW7eWWSbR7yRqmQOAGf9Bmc8kKgufz2daoEseW4H8FkLyHgqIVK5cmVUOWWrWrFlgKqSC0ksBBbcE0tPTK3Ae+kzyKfpMonPBz/SZROgzyUafST5NfSZRPRQvX2n/TLJw+0z2QJRQOt3El4OoXBOobC8W/Iy6AKQfZAWua+q/Q82a44Gq/eRui/Y92dT2marXRWVTt//SvwBSAzDK/kzs376ByTvZ6T2iIpl57I19/n+iD1BBepBHPT092FcIy99PjCGxHhcIRrWD/ocPaPT1K3D0qPzP9BP+TmURBa+VFBMTg+HDhzOBiJo1a+L48eOs1p2FNXz4cOzYsQORkflPrO7du1eo4LV4N1cuLajF55XVVVYZWlpalNO6FNi3bx/27dsn8z09PT0MHDgQM2bMkHovLCwMERERAPKD24o4Ojoyf79584YJXgcFBSElJQUA0LNnT7nLW1paomXLlkq1vq5UqRITGJZFNHCeo6OjzMC1ZLkDAwOZlrMi5cuXR3h4OB49eoTx48crfWIRDxR7enoy6QUKKzc3l2lV2rJlS4Un5v79++P58+cQCATw8/OT20q0R48ectdha2vL/B0ZGSkzwFKUxIPXqpbT29sbAoEAenp6aNWqlazFGY6Ojjh69ChiY2MRHR1d4IWPJFGKhILOFfr6+ujatSsuXLiA27dvY+7cuVKBS09PTwD5dUJeEK0g7du3Z303P7PZs2fL/N6bNGmC/v37Y/fu3Th06BAyMjKwZs0aHDt2TOEgreLfXVZWFiIiInDnzh3cv38fS5YswZw5cxS2zuXz+Vi1ahWGDx+OtLQ0LF26FNra2sjKyoKenh5Wr16t0Z4MXIgecouXd9CgQThz5gy+f/+OCxcuIDMzE6NHj4a1tTXS0tLw+PFj7Ny5ExkZGdDW1kZubi6rh5iyxK9RsrKyYGlpiQMHDrCO6W3atEGjRo0wfPhwxMbG4syZMxg5cqTUg80RI0ZIpRUCgEaNGqF37944f/481q1bB4FAgDVr1uDixYsKH6SIP9AUH8eBEHUTdSemm1tCNIfqoRyiAKSMADbzvjL5lInmGNvkB565Drwpmk9RXmpl9g8RWftJWi5wnAccXgKm+cuxY8Dw4YCCe0NS+pWOuyQNi4+Px/Dhw/H582cA+QGyU6dOyW3dqSotLS20bt0aZ87kj7r68ePHQq1P/EYuJSUFmZmZBbbiysjIYPJdA3QyLsvq16+PYcOGyQymBAf/121n3LhxSq9T/GY+NDSU+Vs8F7Ystra2SgWvCwqkisr95MkTODk5Fbg+AEyqD5FevXrB398fX79+Rb9+/dChQwc4OzujadOmCo8JDg4OqFatGiIjI7FlyxZcv34dHTp0QNOmTWFnZ8cptY+4yMhIJpjTqFEjhfOKvy/+/UuSNeiciHhwRtWc+OqiajlF+0FmZqbMFs7yxMXFcQ5eJycnS5VHnr59++LChQtIS0vD3bt30atXL9a2fXzyWyf07NlT5SCnsbGxWh+6lmSKPiePx8O0adMQGBiI58+fIyQkBK9fv1aY5kHyu7Ozs0O3bt1w9epVrFixAnPmzMEff/yhcADCqlWrYsGCBVi2bBlrXIHZs2erPCioOGWOa/7+/grnW758uUqDKBoZGWHLli34/fffER8fj+vXr+P69etS802fPh3Hjx9HQkIC51bugPTYDaNHj5b5MNLMzAzjxo3Dxo0bkZubi/v372PYsGGseQqqCwMHDkRQUBAuXbqE2NhY3Lt3T+FDM/F6npGRIXc+Qggh5KemKED57SKQHS+9DAWuSxZjG8BhD6CjuMGXlKr9gfLtFS+n6gOOJ9+BLWFAFPv+HAAwYwbw7h0g1qOT/FwoeF2AlJQUjBw5kkmhYGFhgVOnTjGtR9WtYsWKzN/x8TIO6hxIDvgYEREht3u8iKjVt7x1aJSlJfD/Ld81RXKQqyJlaVnkmxg0aBAGDRoEIL9F6/fv33H37l1cu3YNb968wS+//IIjR45IBQZU3TfFW8yJWl0DKLAVdEHvixQUiFCl3JItA/v27YuIiAgcPXoUqamp8PT0ZFrEVq9eHe3atcPgwYNRvXp11nLa2trYtm0bFixYgE+fPiEoKIgZdExXVxeOjo7o1asXunTpwkqjUBBRcBQo+HuyFNunxJeTpOghl/jAZ7IGkitOqpZTHfuvsnR0dJCTk6PUso0aNULdunXx8eNHeHp6soLXV69eZVqd9+3bl3M5iGwDBgzA8+fPAeQHdVXJUdyrVy94e3vj9u3b2LhxI9q2bSuVukdcz549cfHiRabHhLOzMwYMGKBS+UsaW1tbnDhxAgcPHsTdu3dZDywbNmyIyZMno02bNkyPH2Ue6kiSPP9KprUS5+LyX37NwMBAztsC8vcRUWomf39/hcFr8fNFaWlFTwghhBQJeQFKClyXHlwD11yW4/KAIzEb2BEI3JTIqS3SvDlw4AAFrn9ydGWtQHp6Ov73v//hzZs3APJvso4fP4769esX2TbFW+oUNkBqYmKCSpUqMQMiBQYGFhi8Fk+RULly5ZLVQk9LS2MDGDL+P3j9s+TfNjc3Z+0TDRo0gKurK5ycnLBixQpERUVh9erV2Lp1K2s58WDgtm3bUKVKFaW2p8oAc1wUFPQVlbtVq1b47bffVN7OtGnTMGDAAFy/fh2+vr4ICAhAZmYmIiIicPz4cZw+fRpz585lHgyI1K5dG6dOncKjR4/g5eWFly9f4uvXr8jKysKTJ0/w5MkTHD9+HDt27FDpu1KU8oD8R7QfmJmZMfmGlVGtWjXO2zI3N0daWprChwXi+vXrh82bN+PFixeIiopi0i+JHpA0adJEYYvzgqSkpKg0SJ6kgs4lpUWtWv8NDiM5yCoX7dq1w+3bt5GRkYEnT57ITckD5Lf8F11XAPnjPsTHx6vl+Hjq1Cm57507dw7nzp1Dw4YNsWzZMrnzFbZXWfny5TF//nzMnz8fcXFxSEtLg6WlJTNgaUxMDBPkrV27Nuf1V6pUCTwejxnYVlF5xd+TNYK8MsTL+L2AB+ji+bhL1PUTIYQQognyApTiKHBddhX0gEMoBO5EAdsC8wPYEvL09PBt2jRU27CBAtdlAAWv5cjMzMTYsWPh6+sLID8f6dGjRwuVg1oZb9++Zf5WR1qSVq1a4cKFCwAAHx+fAlvsPXnyhPlb1ZyqpPTr3bs3vLy8cO/ePXh5ecHX1xfNmzdn3hdvVWhsbKxSIEv8xj4hIUFhl3lR3uDCMjU1RWxsLHJzcwsdfKtSpQrGjx+P8ePHIzc3F4GBgbhz5w7+/fdfZGVlYcOGDWjUqJFUShQ+n4/27dujffv2AP5LB3H27FkEBwcjODgYf/75JzZv3qxUOcRbLhbUoli8FaQqLR5/FqL9Nz09HbVq1eLU0p0rc3NzREREsHoaKNKjRw/s3LkT2dnZ8PT0xC+//IKAgAAmbVWfPn0KVZ4HDx5g5cqVhVoHAPj5+RV6HSWBuh74iKfY+vbtm9z5MjMz8ccffyA3NxcGBgbIyMhAfHw8Vq9ejW3bthW6HIqOa6KeGXp6esX28KF8+fKsfP8AO+2U+CCXytLX10eVKlUQFRUFQHEPEPH3VK3nXPYR8XrONcUQIYQQ8lOq2l9+qhAdCwpcl3XyAtjfM4DNbwFvOY1uOnbEu9mzkV29OqpR4LpM0Cp4lrInJycHkyZNwuPHjwHkd+k/ePAgK3hXFD5+/MgKCIh3d1VVt27dmL89PT0V5mDMyMjAlStXmNeKWo6VVVpaWqx0BD+zadOmMTf7f//9N+s98ZF2X716pdL6xVPShISEKJxXPNhRGKJyBwUFIScnRy3rBPK7h9vb22POnDlYs2YNAEAoFOLu3bsFLlu+fHn06dMHhw4dYgLdjx49UjpFRbVq1Zj0GeIPv2QR7zZfolICcaCOYKNoP8jOzlbbviWPKEgYERGhVJoVU1NTdOjQAUB+qhChUIjLly8DyA/adenSpegKWwaJ552WDLJyId5qW19fX+5827dvZx5ELFq0CCNHjgSQX+fPnTun8vaLW2HOheLHRVX3Z/GBeSXTnYkTDSwMABVU7Lklvo8UtA7R4F1A6T3GktJBT0+vwHFsCCFFi+qhkqIuyA5cA/nToy4Ub3lIyVO1f/6DDADIEwIXvwAjH8oOXJuaAvv3A3fuQKtuXaqDZUjZiMJxIBAIMG3aNNy7dw9AflDK3d0dbdu2VWl9yg5olpGRgZkzZzI5TS0sLJgARmF07dqVSemQlJSEnTt3yp13+/btTJfX6tWro3PnzoXe/s+mLF2k1KxZk9kH3r59i6dPnzLv2djYMD0DLly4IJUXWhm2trZMN/Jr167Jne/Hjx+sbReGqB6npqYyAUF1E3/IxaWbura2NhwdHQHkH4fEB05Vdrlnz54pTAlx8eJFAPktEJUdsLKkUXVgS3Gurq5MEPzEiROFXp8iohzK6enp+PTpk1LL9OvXDwAQFRUFb29v3Lp1CwDQqVMnGBoaFqo8bm5u8PPzK/S/n8W///7L/N2sWTOV13Pnzh3mb3mtmr29vZkAdbdu3dCjRw9MmzaNSUW2fft2VvCzJFP1XBgWFsbszy1atFB5kMqOHTsyf9+/f1/ufKJrOYAd8OZCfB8RHWvlEY1jUL58eWp5TYpUgwYNWA0JCCHFj+qhEmQNuifpy0EKYJd1ogccX1OBGU+AjQFAWq70fP36AUFBwIQJAI9HdbCMoeC1GKFQiDlz5uDq1asA8lsW7dy5E127dlV5nc7Ozti0aRM+fvwodx5fX1+4ubnh5cuXzLR58+YpDFIMGjQI1apVQ7Vq1aTy6orT1dXF3Llzmde7du3CgQMHWC0A8/LycODAAezevZuZNnfuXOjo6BT4+cjPbdy4cUyQ7+DB/y48tLS0MG7cOAD5rd6WL1+O7GzpPFQiqampOH36NGuarq4uMyBdUFAQTp48KbVcXl4e/vzzT5WC47L07t2bCbrv2LGDGTBNnlevXuHFixesadeuXUNuroyT6f8TD7SL50gW5beWJycnhymPgYEBKw1BQYYMGcKsY/Xq1TLLd+nSJaZsHTt2LFQr09LO2tqaeTBz69YteHh4KJw/MjISN27cUGlb4gEzZQeMc3JyYgb8XLNmDfMQtLApQ34me/bsgZOTE5ycnJh84OICAgIQFydjJPL/JxQKsXv3bmawxvr168Pe3l5qPk9PzwKPP8ePH2d6alWrVk1mkDQhIQGrV68GkJ8SbOHChQDyH8asXr0aurq6rJQipZWinNDR0dGYM2cOBAIBdHR0MH/+fLnzin5bNzc3me+7uroyLZtPnjyJ0NBQqXk+ffrE1G1zc3NWwBvI7+2m6JgM5AeuRQ/9LC0tC2xUIKrjzs7OCucjhBBCfnryAtc6Msb4oAB22RV1AQjdDxwPBf7nBbyU0UrfQhfYMxf491/g/8cDImUP5bwWc+TIEZw9e5Z5XbNmTTx//py5uS3I2rVrpaYlJCRg+/bt2L59OypXrgxbW1uUL18eurq6SExMREBAgFRLq7Fjx2L06NGF+zBihg0bBh8fH5w/fx55eXlYtmwZDh48yLQg8vf3Z7oxA8DQoUMxePBgtW3/ZyJKNaGO1p+lQd26ddG2bVs8fPgQ/v7+ePXqFdOSdODAgXj27Bnu/x97dx7eVJm+cfxuC6EFCm1FqKVSx40WRZaKivvycx23uiHqqMMirqPjvoHKuI3LuDuigDKOU/e67ysqKFqkytKOa6WWVAdaLNBSaPP743i6JCdpkiY5Sc73c11etnlzTt4sT1Puvnne99/XO++8o8rKSh133HHaaaed1L9/f61fv14//vijysvLNX/+fLlcLk2YMKHL+c866yy98847Wr16te68806tWLFChx9+uLKzs7Vy5UqVlpbqq6++0k477dQeCvSkbYTL5dKtt96qadOmacOGDTrnnHN0yCGHaL/99tPQoUPV1tam//3vf6qsrNT777+vb7/9VpdddlmXFZkzZszQPffcowMOOEC77LKL8vPz5XK5tGbNGn322WftKyv79u3bpfXOokWLNGfOHI0ePVp77723dthhB2VnZ6u5uVk//fSTnnvuufb2Kcccc4x69Qr+x/Pee++t//u//9M777yjTz/9VGeeeaZOPfVUbbPNNvrtt9/01ltvta80HzhwoP7617+G/Rjazfx0Sk9deeWVWr58uX7++Wfdfffdmj9/vo444ghtt9126t27t9auXatvvvlGCxYs0BdffKH9998/rFZKeXl52mGHHfTNN9/o888/DyqATklJ0dFHH60HH3ywvU/51ltv3e2qz0SxYMGCLv3XO7///Pe//+0SRmdkZIT1KaAFCxZo3rx5Gj9+vHbffXdtu+226t+/vzZt2qRvvvlGL730UnubnfT0dF1zzTWWP1sefvhh3X333TrwwAM1atQo5efnq2/fvtqwYYO+/fZbvf7666qoqJBkvC9cffXVlr2V//a3v2n16tVKTU3VDTfc0KXn/3bbbafzzz9fd955p5YvX67Zs2fr7LPPDvk+x5K/98JbbrlF9fX1OvDAAzVixAj1799fDQ0NWrRokZ577jmtX79eqampuvrqq3u08WhqaqquuuoqnXPOOWpqatKUKVN0+umnt3+iZPHixZo3b542/L7J8mWXXeazUnzFihW68cYbVVxcrD333FPbb7+9srKytHnzZv34449644032v/gl5aWpmuuuSZgS5iffvqp/ZMvkfjkHBCI2+2WRG91wE7UYQD+gmtzc0arcfN7emA7R22Z9M7d0i0VUuVa6+sckS/9ZYQ0oNLond7p9UENOgvhdSed/zEtGat2gv2Yt2QdXnfmdrvbC8xKVlaWrrnmGp1yyilB32aw7rjjDg0YMECPPfaYPB6Pfvzxxy6BgWQEJpMmTdL06dMjfvvJwmnhtSRNmjRJH374oSRp9uzZuv/++yUZr5dbbrlFd9xxh5577jnV1NQEbEuTk+P7V/aBAwfqvvvu03nnnaf6+nq99tprPi1EjjrqKI0ePbo9vO7pJwJGjhypWbNm6corr1RdXZ1ef/11vf76636vb/UJiNWrV+vZZ5/126O2f//+uvnmm33eSNva2rR48eKAK773228/nXfeeUHemw433HCDWltb9f7776uystKyjrfcckvdfffdGjx4cMjnjxeRCq8HDhyoOXPm6KqrrtKXX37Z7fPSk3Ydxx57rG6//XZ9+OGHam5uDqrdwlFHHaVZs2a1319/K1AT0WOPPeb3sf7www/bf95Ixsao4bawamlp8Tmft9zcXN14440BNw5cu3atysrK2jc/tjJkyBBNnz7dcsXt888/r/nz50uSTj31VMuWPSeffLI++eQTffrpp3r00Ue15557Rn2D6J7w917o8Xi0dOlSv/33Bw4cqCuuuKJHn2gzjR49WjfeeKNmzpypxsZGn70ZJKOt0qWXXur39lpbW7tdpDBw4EBNnz692/Zx5qczBg4cyIbXiDrzDyX8gx2wD3XoR3fBteR/kz4CbOf4/ilp5rXSv7+TWj2+41sPli7+g7R7p/1GvF4f1KCzEF5H2UcffaTy8nKVl5dr+fLlWr16terr67V+/Xr169dPW2yxhXbZZRfts88+OuaYYwKu6ukJl8ulG2+8Uccff7yefPJJLVy4sMtfqsaPH6+JEye2r6oFTDvttJN23313ffbZZ/r000+1bNmy9qCnV69euvLKK3XCCSeorKxM5eXlcrvdampqUkZGhvLy8lRUVKQ999xT++yzj+X5d9xxRz3zzDN67LHHNH/+fLndbvXt21fbb7+9jj32WB122GFd+hKbfbJ7YuTIkSorK9PLL7+sjz76SFVVVWpoaFBqaqqysrL0hz/8QWPHjtWBBx7oszrwqaee0scff6wlS5bo559/1urVq7Vu3Tr17dtX22yzjfbYYw+dcMIJ2mKLLboc96c//Uk77LCDFi1apKqqKv3666+qr6+XZHwcfaeddtIf//hH7b333mHdpz59+uj222/X/Pnz9fLLL2vp0qVqaGhQRkaGhg0bpv33318nnXSS+vbtG9b5k9GgQYP0yCOP6OOPP9abb76pr776SqtXr9bmzZuVmZmprbfeWrvssov23XffHq16PuKII3Tvvfdqw4YN+vDDD7tspOvPlltuqXHjxunTTz9VWlqajjzyyLBv34mOPvpobbHFFvrqq6/07bffas2aNVq7dq3S0tKUlZWlwsJC7bPPPjrssMPUp08fv+e577779PHHH6uiokI1NTVas2aNGhoalJ6eruzsbO24447aZ599dPDBB1v+UeKnn37SXXfdJcn4WXfuueda3k5KSoquu+46nXzyyVq7dq2mT5+u0tLShKvXM888UwUFBfryyy9VV1entWvXKjMzU/n5+dpvv/107LHHhtQSqTsHHXSQdtppp/afy3V1dWpra9OQIUO022676ZRTTtHWW29teexee+2l6dOn6+uvv1ZVVVX7cytJAwYM0A477KA999xTRx55ZFDvO2Z4ffTRRzvqD9wAALQLJrg2EWA714s3SxfeIlVb7PGUkiJdcIF0003Sb28br4e2Fin19wVsobw+WuolV3bk5g1bpXg8Hos/cwDhKS4ultvtVm5urk+vYH+++eYbbd68Wb169dIOO+wQ5Rn2jPkR5EQLFBLd3/72N7344osaMmRIe096OFOi1uCtt96qZ599VrvttluX/QX8aWtr01FHHaW6ujrtueeeAT/VAMRaotZhtCxZskRTpkxR7969VVZWFvYKoET6fQj2MtsVWfXqBxAb1KGXlnppyTSptanr5VbBdWdWgXdahjR6Vs+Dx3DDS0LP6Fi3TrpwgvToa5JVCllUJM2ZI40f33HZd/dJ/71FSs+T0rfquLxgkip+3VaSnxqsLZNqSqWimVJmYWTvB2zBho0A4lpzc3P7x/533nlnm2cDhGfKlCnKyMjQokWL9PXXX3d7/c8++6z9o3DHHHNMtKcHoAdmz54tyVh1zUdXAQCO5Mo2gsK0Tp8k7y64lozxgkkd36dlGOfpaXjcWGmE6aFuBFlbZhzXWNmz20dXb74p7VQkzbUIrnulSdOnS19+2TW4bqyUVn8kZQyVmlZKzas6xmpKpTY/m6qbfxBpbZJWzOC5TBKE1wBsVVNTI38fAGltbdWtt97a/lFuWicgUQ0aNKh9P4NHHnmk2+vPmzev/bj99tsvqnMDEL6lS5fq008/Vb9+/TR16lS7pwMAgH0yCzsC7GCCa5MZYJvBdU9XyjZWGqFla5MRYgYbYBN6Rt7q1dIZZ0iHHSb9VOM7Pmo7qXyxNHOm1LmVX0t9x3PYJ1fqO6wjwDZfJ6kWrf+8V/Kbz2VLfeTvG2KKntdACNLS0uyeQtKZPXu2li1bpkMOOUQ777yzsrOztXHjRn3zzTd64YUXVFlp/NKw2267hd0PGskjkWvw9NNPb5+/98aN69ev15o1a7R+/Xq9+OKL+uKLLyQZvdJ79eKtGvElkesw0hoaGjR16lQVFhZq0KBBdk8HDhHJ3vEAwkMd+pFZGF7Lj7wSadD+kWkVYoaepmD6JPsLPSPRvsSJPB7p2Wel88+XfvnFd7xPmnT5adKM2ZLVv3Vc2VL+xI7npM/vn2xr+lkadoaUWaisrOqux/jruZ4/kecwCfAvYiAEgTb2Qvh++OEHzZo1y+/4qFGjdPPNNyslJSWGs0I8SuQa7Nevn8466yzLsffee0833HBDl8uGDx+uCRMmxGJqQEgSuQ4jbe+99+YPq4i5goICu6cAOB51GEC4QWEkAkbv0NMUKMAm9Iys2lrp3HOlF1+0Ht9/f+mBO6QRxYHP472pZ59cybWF9MtbUka+Cgo6PZehbBaKhER4DcBWZ555poYNG6ZFixZp1apVqq+v1+bNmzVw4EAVFRXpkEMO0SGHHKLUVLocIfmlpqZqyJAh2meffXTWWWex6hoAAAAIhXfoabIKsAk9I8fjkWbPli67TFq71nd8wADpjjukKVOkYBeleT+XKb27fp9XwnPoECkef81mgTAUFxfL7XYrNzdX5eXlQR3zzTffaPPmzerVq5d22GGHKM+wZzZuNDYFYNUZYA9qELAfdRgdifT7EOxVXW18VJqVn4B9qMME0F2oSegZOd9+K511lvT++9bjRx8tPfigNHRoeOe3eK6qm4ZLvfqpoPdi3+vzHCYdlnQBIWhtbbV7CoCjUYOA/ahDwF7mRtaEZoB9qMMEEGgF9qoXpJY1vscQeoZm82bp7rulGTOkpibf8S23lO67TzrppOBXW1uxeC4bNm8hbZYKentdl+cwKRFeAwAAAAAAILn4C7AJrnvuq6+kyZOl3zea93H66dI//iFtsUVkbs/fc9kZz2HSooksAAAAAAAAkk9eiRFqBkLoGbyNG6Xp06XiYuvgetgw6fXXpXnzIhdcm/JKJFeO9Zgrh+cwiRFeAwAAAAAAIDkRekbGggXSmDHSjTcaLUM6S0mRzj9fWrpUOuyw6Nx+bZn1qnnJuLy2LDq3C9sRXgMAAAAAACA5EXr2zLp10l/+Iu29t7Rihe94YaH00UdGf+vMzOjMwd8Gm51Vz+W5TFL0vIbt0tLStHnzZm3evFmtra1KS0uze0p+9e7tvRsAgFiiBgH7UYeR19bW1r4RZjz/HoT4MGTIELunADgedZhAgg09JVZgW3nzTWnaNKm62nesVy/piiuka6+V0tOjNweL53CIa6XUyyIo57lMSoTXsF3fvn21ceNGScauzVtEui9SBPEPdsBe1CBgP+ow8tatWyePxyNJysjIsHk2iHe5ubl2TwFwPOowQfgLrl05viuxCT27WrNGuvhio3e1leJiac4cadSo6M7Dz3OYu+PBxnNlNc5zmXRoGwLbZWVltX/9yy+/6JdfflFzc3P7P+IAAACSUVtbm3777Te53e72yzKj9XFbAACcxF9wXTBJKp5nvYkjbSckj0d65hmpqMg6uE5Pl267Tfr0U9uC6y4bbPrbkJPnMqmw8hq2S09P18CBA7V27VpJ0urVq7V69WqlpKTE3Udn29raJEmpqfzdB7ADNQjYjzqMnNbW1i5/rM/IyFC/fv1snBESQVVVlSRp+PDhNs8EcC7qMM4FG3pKrNrtrLZWOu886YUXrMf320965BFphx1iMJfAz2GXGuS5THqE14gLW221lVwul3799df2yzwejzZ772Brs5aWFkmSy+WyeSaAM1GDgP2ow+jIyMjQsGHDlJKSYvdUEOeam5vtngKSTUu95MqO3XFJgDqMY8EE1yZCT4PHI82dK11yifT7osIuBgyQbr9dmjJFisXihZZ6qabU9/JOz6FPDfp7LmtKpUH7O/ZnVbIgvEZcSElJ0aBBgzRgwACtW7dO69evV0tLS/vqrnjR1NQkSerVi9IB7EANAvajDiMnLS1NGRkZyszMVL9+/QiuAcReY6W0YoaUPzG0oK62zAiFimZKmYXRmx8QiiBCTx9ODz2//16aOlV67z3r8aOOkh58UMrPj92cXNnGz5YVM6RW4/fOgM+hyfu5TMswzpPsz6ED8K8OxBWXy6WcnBzl5OTYPRVLFRUVkqQdYvExGQA+qEHAftQhACQJM7hubQptpWnnla0rZhBgI34QegavtVW65x7p2mul3xcmdLHlltJ990knnSTZ8cf1zMKO5zKUP66Z1+OPa0mFZoUAAAAAADhJS33XgE8KboMz75YMrU3GeVrqozNPIFRm6JmWEVxwbTI3/jOD62QOPZculfbc02gTYhVcn3aatHy5NGGCPcG1KbNQGj0r9PYteSXGccn8HDoMK68BAAAAAHASV7axmjGUXr/+egnnT0zuFapIPGboGerrMq8kuVuFbNwo3XyzdMst0qZNvuNbby3NmiUdfnjs5+ZPuM9Fsj6HDkV4DYSgoKDA7ikAjkYNAvajDgF7UYOImFA2qwtlEzwHoA4TAKFnV59+Kk2ebKyotnLeeUaonZkZ23mFiRp0FsJrIARZWVl2TwFwNGoQsB91CNiLGkREBRNgE1z7oA6RMNavN/pa33OP5PH4jg8fLs2eLe29d+zn1gPUoLMQXgMAAAAA4FSBAuxVL0gta3yPcXBwDSSMd96Rpk6VfvzRdywtTbriCmn6dCk9PeZTA0JBeA2EoKKiQpI0atQom2cCOBM1CNiPOgTsRQ0iKvwF2ATXlqhDxLX6emMzxkcftR4fO1aaM0caPTqm04okatBZUu2eAAAAAAAAsFleiRFMB0JwDcS355+XRoywDq7T06W//1367LOEDq7hPITXAAAAAADACKZdOdZjrhyCayBeud3SCSdIxx9vfO1t332ligrp8sulXjRhQGIhvAYAAAAAAMbmjFatQiTj8tqy2M4HQGAej7HKuqhIeu453/HMTOmhh6T335d23DH28wMigD+3AAAAAADgdLVlvj2vvZnjrMAG7PfDD9JZZxkbM1r54x+N4Do/P7bzAiKMldcAAAAAADiZv+DaqoVI9VxWYAN2am2V7r5b2nln6+B60CCptFR6+WWCayQFVl4DIRg+fLjdUwAcjRoE7EcdAvaiBhFx/oJrc3NGq3GHr8CmDmGbZcukyZONTRetnHqqEWwPGhTTacUaNegshNdACNLT0+2eAuBo1CBgP+oQsBc1iIjqLriWOv5PgN2OOkTMtbRIt9wi3XSTtGmT73h+vjRrlnTEEbGfmw2oQWehbQgQgubmZjU3N9s9DcCxqEHAftQhYC9qEBETTHBtyisxLvfm0BYi1GEEtdTH9rhEtGiRVFwsXX+9dXB97rnGimyHBNcSNeg0hNdACKqqqlRVVWX3NADHogYB+1GHgL2oQYeKdMDXUi/VlPpebhVcm/wF2DWlzgoSRR1GTGOltGRa6H8AqS0zjmusjNxc4jFEX79euvhiafx4aelS3/Edd5Tmz5ceeEAaMCB684hD1KCzEF4DAAAAABCvohHwubKloplSWkbHZYGCa5N3gJ2WYZzHlR3a3IDGSmnFDKm1KbQV/OYnBlqbjOMjEWDHU4huevddaeRI6a67pLa2rmNpadJVV0kVFdI++0T+toE4Q3gNAAAAAEA8imbAl1nYEWAHE1ybzADbDK4zC4O/P4BkrFY2X9emYF7f3q1uzNd3T1Y/x1OILkn19caGjP/3f9IPP/iOjxkjff65dPPNEn2f4RCE1wAAAAAAxJtYBHyZhdLoWaFvuphXYhxHcI1wuLKl/Im+lwd6ffvr0Z4/MfyV//EUoktSWZk0YoQ01+J+9uljbNj42WdGgA04COE1AAAAAADxJlYBX7jBH61C0BOhbAIayuaioYiXEN3tlk48UTruOONrb/vsI331lXTllVLv3uHdBpDACK8BAAAAAIhH8RDwAdESzOs72q9rO2vM45Eee8xYbf3ss77jmZnSgw9KH3xgbM4IOFSKx+Px2D0JJI/i4mK53W7l5uaqvLzc7ukAAAAAQOLrLjQjuEYi8/f6deVILWt8L4/G6zrWNfbjj9JZZ0lvv209/sc/Sv/8p7T11qGfG0gyveyeAAAAAAAACMAMx7zDs+q50qoXYhfwAdHg7/Udy9d1rGqstVW6/37pmmuk9et9x7fYQrr3XmniRCklJbRzA0mK8BoIQUNDgyQpKyvL1nkATkUNAvajDgF7UYMOFg8BHyRRh1Hh7/XdWbRf19GuseXLpcmTpU8/tR4/5RTp7rulLbcM7bwORA06C+E1EILq6mpJ/IAE7EINAvajDgF7UYMOFw8BH6jDaMkr8b/K2ZUTm9d1NGqspUW69VbpppuMr70NHSo99JB05JGhzdXBqEFnYcNGAAAAAAASRV6JEeRZiVXAB0RDbZl1cC0Zl3tvoBgtkayxzz+Xioul666zDq7PPttYkU1wDfhFeA0AAAAAQKKIl4APiCR/GyJ2Vj03Nq/vSNTYhg3SpZdKe+whLV3qO77DDtKHHxqbMg4Y0LP5AkmO8BoAAAAAgEQQTwEfECn+XtdWq5+j/fqORI299540cqR0551SW1vXsbQ06YorpIoKad99ez5fwAEIrwEAAAAAiHfxFPABkeLvdV0wSSqeZ/zfW7Re3z2tsYYGaepU6aCDpO+/9z1m9Ghp0SKj/3VGRiRmDDgC4TUQgvT0dKWnp9s9DcCxqEHAftQhYC9q0KHiKeADdRgpgV7XZl/pvJLYvL57WmMvviiNGCHNnu17vT59pJtvNoLrsWMjN2cHowadJcXj8XjsngSSR3Fxsdxut3Jzc1VeXm73dAAAAAAgsQUT8IVyPSAehPp6jebruyc1tmaj9NB66ZUF1ufeay8j0C4s7NkcAQfrZfcEAAAAAACAhVACO/N77+ub3xNgI1601Es1pb6XBwqi/b2+a0qlQftLruzw5hJujXk80us10j3LpcZNvsf37y/9/e/S2WdLqTQ9AHqCCgJC4Ha75Xa77Z4G4FjUIGA/6hCwFzXoIOEGfFbtDWpKjfMhIqjDHnJlS0UzpbROfZ+DWUHt/fpOyzDOE25wHW6NpR4p/XWRdGOFdXB92GHSsmXSuedGN7gOt6aT4GcBNegshNdACOrq6lRXV2f3NADHogYB+1GHgL2oQQeJl4APPqjDCMgs7Hh9h9L6w3x9m6/rzB604wi1xlpbpfvukw66RFr0q+94To70+OPSa69Jw4aFP69gNFZKS6aF3ve7tsw4rrEyOvOKEWrQWQivAQAAAACIR/EQ8AHRklkojZ4VekubvBLjuEi8roOtseXLpX32kf7yF2n9et/xk0+WVqyQTjtNSkkJfz7BrIpurJRWzJBamzo2jQzmOLNFSmuTcXyCB9hwDsJrAAAAAADiVTwEfEC0hPuJgEh+kiBQjbW0SDfeKI0ZIy1c6Duet5X04otSaak0eHDP5hHMauqW+o7g2vTfm6WFRwYOo717e5sBdhK0EEHyI7wGAAAAACCexUPAByQzq1r54gtp3Dhp+nQjxPY2bZq0fIV09NE9v32r1dT+5pk/seP7jW5pw0/S+m+lxZOtA2x/m1LmT+RnBBIC4TUAAAAAAAAgSRs2SJddJu2+u/TVV77j228vvf++9NBD0sCBPb89q9XUgQJssy2QGVybzAC782pqf8F1KG2IAJv1snsCQCLJysqyewqAo1GDgP2oQ8Be1CBgP+owib3/vjR1qvTdd75jqanSJZdI118v9e0buds0V1N7h8zm9/5CZo/H4rIW6X8fGMckcXBNDTpLisdj9WoHwlNcXCy3263c3FyVl5fbPR0AAAAAAIDA1q6VLr9cevhh6/FddpHmzJF23TV6cwg2bO58veZVUtNK4+u+w6Q+ucbXrhypZU335wISACuvAQAAAAAA4EwvvSSdc45UW+s75nIZPa+vuELq3Tu68zBD5UArsL0D7vStjP+npHQE1xLBNZIK4TUQgurqaklSQUGBzTMBnIkaBOxHHQL2ogYB+1GHSeKXX6S//EV66inr8T33lGbPloqKYjenQAH2qhesQ+nh11gf01mSBdfUoLOwYSMQgoaGBjU0NNg9DcCxqEHAftQhYC9qELAfdZjgPB7p8ceNUNoquO7XT7rvPumjj2IbXJvMDRm9BVpNnVditAqx4spJquBaogadhvAaAAAAAAAAye+nn6QjjpBOP11aYxEGH3aYtGyZdP75xgaNdvEXYHfWeTV1bZl1uC0Zl9eWRXZ+QAwRXgMAAAAAACB5tbVJDzwg7bST9MYbvuM5OdK//iW99poUL60ogl1N7W+jx86q5xJgI2HR8xoAAAAAAADJqbJSmjJF+uQT6/EJE6R77pGGDIntvLoT7Gpqq+DaleN7bOeNH4EEQngNAAAAAACA5LJpk3T77dINN0gtLb7jeXnSgw9KxxwT+7l1J5jV1FU3SSkpUp/crpeb7USszkGAjQREeA2EYEi8/SUWcBhqELAfdQjYixoE7EcdJoDycmnyZKmiwnp8yhQj2M7Kium0guIvuO68mrp5ldS0smPMDLA798E2/5+EATY16CyE10AIcnNzu78SgKihBgH7UYeAvahBwH7UYRxrapKuv166806ptdV3fLvtpEcekQ44IOZTC4q/4Lrzauqqm7oG1xt+Mv6/49W+gXSSBtjUoLOwYSMAAAAAAAAS24cfSqNGSbfd5htcp6ZKl14qffVV4gbXkjRofymtj+91PB7/580rMc7hraZUaqkPa6pALBFeAyGoqqpSVVWV3dMAHIsaBOxHHQL2ogYB+1GHcWbtWunss6X995e++cZ3fORI6dNPjTYhffvGfHpBCSa4liRXtjRmjtR/+47LMraW0rcyjjc3cfTmHWCnZUhFM43zJSBq0FloGwKEoLm52e4pAI5GDQL2ow4Be1GDgP2owzjyyitGcP3zz75jLpc0fbp0+eXG1/Gqpd5YBe3NO7g2ZRYaAfaXk6XWjUZwbaopNVZnW4XS5rlqSo3gOrMwItO3AzXoLKy8BgAAAAAAQOL49VfplFOko46yDq7Hj5e+/FK69tr4Dq4lI2gummmshjb5C65NmYXSHq9Iw6/puCyY1dR5JdLoWQkdXMN5CK8BAAAAAAAQ/zwe6YknpKIiqdRitXK/ftK990offSSNGBH7+YUrs7AjwO4uuDa5sjvagZjBdTChdIK2CoFz0TYEAAAAAABEXkt9eEFZuMchua1cabQIee016/FDDpFmzZK22Sam04qYzEJjVXSor/28Ev+tQoAkwMprAAAAAAAQWY2V0pJp/jeQ86e2zDiusTI687JTS31sj0sWbW3Sgw8aK6mtguvsbGnePOmNNxI3uDaFG0ATXCOJsfIaCEFBQYHdUwAcjRoE7EcdAvaiBpEQGiulFTOk1iapeq5xWTBtEGrLOq6/YkbcbioXVh2aj0n+xOAeC1NtWVJssBe2qippyhTp44+tx088UbrvPmnIkNjOC7bivdBZUjwej8fuSSB5FBcXy+12Kzc3V+Xl5XZPBwAAAAAQSy31xsrp1qaul3fXx7dzcG1KywivjUK86RzmS8H3NO78mITS0zgZbNok3XGHdMMN0saNvuNbbWWsxj722JhPDUBs0TYEAAAAAABEhivbWF3srXqu/xYiVsG1ZJwn0YPrlvquwbUU+LEweT8mrU3GeZzQQmTxYmm33aSrr7YOrqdMkZYvJ7gGHILwGghBRUWFKioq7J4G4FjUIGA/6hCwFzWIhJBXYqwu9mYV2voLroNdnWyDkOqQMD94TU3SlVcawfWSJb7j224rvfuu9MgjUlZWrGeHOMJ7obPQ8xoAAAAAAESWGTx7h7Cde2AnYHAdlmAeC5NTHhNv8+cbK6q/+cZ3LDVV+utfpZkzpb59Yz83ALYivAYAAAAAAJEXKLRd9YLUssb3mGQNaQnzrf32m3TFFdJDD1mP77yzNGeOsRobgCMRXgMAAAAAgOjwF9o6Kbg2EeZ39eqr0tlnSzU1vmO9e0vXXmu0EXG5Yj83AHGD8BoAAAAAAESPv9C2s2QOaTsjzJd+/VW66CLpP/+xHt9jD2n2bGmnnWI6LQDxiQ0bAQAAAABAdOWVSK4c6zFXTnKGtP7429Cys2QMrj0eI7AeMcI6uO7bV7r7bunjjwmuAbRj5TUQguHDh9s9BcDRqEHAftQhYC9qEAmrtsx6dbFkXF5bljBhbUTqMK/Ef6uQZAzzV66UzjnHaBVi5f/+T3r4YekPf4jtvJCQeC90FlZeAyFIT09Xenq63dMAHIsaBOxHHQL2ogaRkPxtRNhZ9VzjegkgInUYTJifDNrapH/+01hJbRVcZ2VJjz4qvfUWwTWCxnuhs7DyGghBc3OzJPFDErAJNQjYjzoE7EUNIuH4C65dOb7hrXm9OF913OM6DDbMl+L+sQjov/+VpkyRPvrIevz446X775dyc2M7LyQ83gudhZXXQAiqqqpUVVVl9zQAx6IGAftRh4C9qEEkFH8hbcEkqXiedd/nBFiB3aM6DBTme0uAx8LSpk3SrbdKu+xiHVwPGSI9+6zxH8E1wsB7obMQXgMAAAAAgMgKFFybq4n9bVyYqKFtd5I0zO/iyy+l3XeXrrpK2rjRd/zMM6UVK4xV1wAQBMJrAAAAAAAQOcEE1yanBNjJHuY3NRmB9bhxRoDtbZttjL7Wjz4qZWfHfHoAEhfhNQAAAAAAiIyWeqmm1Pdyq+Da5C+0rSk1zpfokj3M/+gjafRoo1VIa2vXsZQU6aKLpKVLpYMPtmN2ABIc4TUAAAAAAIgMV7ZUNFNKy+i4LFBwbfIObdMyjPO4EnyVbjKH+b/9Jp13nrTvvsbmjN5GjJAWLJDuukvq1y/28wOQFAivAQAAAABA5GQWdgTYwQTXJjO0NYPrzMLozjMWkjXMf+01aeedpQcf9B3r3Vu67jpp8WJpjz1iPzcASSXF4/F47J4EkkdxcbHcbrdyc3NVXl5u93QAAAAAAHZpqQ8vbA33uHjWWCmtmCHlTww+zJeMViE1pfET5v/vf0YbkCeesB4fN06aM0caOTKm0wKQvHrZPQEAAAAAALog9EwO4T4XyfgcZhZKo2eFft/ySqRB+9v/mHg80lNPSRdcYATY3jIypBtvlC68UEpLi/38ACQt2oYAIWhoaFBDQ4Pd0wAcixoE7EcdAvZyRA02VkpLpoW+OV1tmXFcY2V05gX8Luw6TNQwv6ZGOvpoaeJE6+D6wAONDRkvvpjgGjHhiPdCtGPltYWVK1dq/vz5+vTTT7VixQrV1tZq/fr16t+/v7baaiuNHTtWJSUlGj9+fFDn27Bhgz755BN9/PHHWrp0qb7//ns1NDQoLS1NOTk52nnnnXXAAQfo+OOPV9++fSN+f3bffXfV1NSEdMznn3+uvLy8iM8l0VVXV0uSsrKy7J0I4FDUIGA/6hCwV9LXoNlaobVJqp5rXBZMi4Xaso7rr5gRPy0WkJSSvg5NbW3SI49Il10mNTb6jg8cKN15pzRpkpSSEvv5JQo+SRJxjqlBSCK87mLp0qW68sor9eWXX1qOm3/ZWbFihZ544gmNHz9e99xzj4YOHer3nBdccIFef/11NTU1WY7//PPP+vnnn/Xmm2/qtttu09///ncdccQREbk/AAAAAJAwWuo7gmtTMAF25+BaMo5fMSO8Fg0ADN98I02dKn34ofX4scdKDzwgsegtsGTpdQ7YiPC6k++++84nuN52221VWFio7Oxs/fbbb/riiy+0atUqSdLChQt19NFH6/nnn1dBQYHlOV999VVt3Lix/fusrCyNHj1aQ4YMkcfj0TfffKMlS5bI4/FozZo1mjp1qm655RadfvrpUbmPJ5xwgvr379/t9fr16xeV2wcAAAAAS65sI+DpHERLgQNs7+DalD+R4BoIx+bN0j/+IV13ndTc7Ds+ZIh0//3S8cez2ro7fJIEiAjCawvbbLONTjnlFB133HHaaqutuoy1tbXp6aef1rXXXqumpia53W6df/75eumll5Ti5wd3RkaGjj32WE2YMEHFxcVKTe3aaryqqkoXXHCBli1bJkm69tprNW7cOBUVFUX8vl166aXaeuutI35eAAAAAOgxM9gJJsD2F1wXTApthSMAQ0WF0QJk8WLr8TPPNNqE5OTEdFoJiU+SABHDho2dDB48WP/4xz80f/58nXfeeT7BtSSlpqbq5JNP1n333dd+2eLFi/Whn4/S/PnPf9bChQt1xx13aNy4cT7BtSQNHz5cTz/9tPLz8yVJra2tXc4PAAAAAI6RV2IE0N6q53Zs4khwDUROc7N07bXSrrtaB9fbbCO9+ab06KME18EyP0nirfPPMW98kgSwRHjdyfjx4zVhwgSlBbE77uGHH64xY8a0f//uu+9aXm/69Onacsstuz1fVlaWzj333Pbv33vvvSBmjFhLT09Xenq63dMAHIsaBOxHHQL2ckwNBgqwy88guIatkqoOP/lEGjNGuukmo2VIZykp0oUXSl9/LR1yiD3zS2TB/CHOxB/kQpJUNYhu0TakB3bdddf2HtkrV67s8fnGjRvX/nVjY6Pq6+uVnc1f1+LJ8OHD7Z4C4GjUIGA/6hCwl6Nq0F8LkZY1vtcl4EEMJUUdNjZKV19tbLro8fiOFxVJc+ZI48fHfm7JJJhWSATXIUuKGkTQCK97oHOP69bW1oieTzL6awMAAACAY/kLfjoj4AFC88Yb0rRp0k8/+Y716iVddZV0zTVSnz6xn1syChRgr3qBP8gB3SC87oHKysr2r/Py8iJ6vvT0dOVEoZfUV199pTfffFNut1uSlJ2drR122EG77babsrKyIn57ycZ83HJzc22eCeBM1CBgP+oQsJcjazCvxH/A48oh4EHMJWwdrl4t/fWv0uOPW4+PGyfNni3tskts5+UEfJIkohK2BhEWwusw/fzzz/rkk0/av99nn316fM6nn366/eu99trLZyV2JJx11lmWl/fu3VtHH320LrnkEhUUFPT4dtra2lRbWxvwOpEI/GOtrq5OEj8gAbtQg4D9qEPAXo6swdoy64BHMi6vLSPoQUwlXB16PNLTT0sXXCD9+qvveEaGdOONRn/rIPYAQ5j4JEnEJFwNokdSPB6r5kboztSpU/Xaa69JkoYOHaqPPvpIfXrwkZq3335bZ555Zvv3jz/+uA488MCeTlOStPvuu6umpiao62ZmZuree+/VIWFuxlBcXNz+F7DumI9fZ6NGjZIkNTQ0qLq62mc8PT29vbeR2+1u/4HVWVZWVnsAX11drYaGBp/rDBkypP2HXFVVlZqbm32uU1BQ0L4avaKiQpK0evVqSdIWW2whyeizlJ6erubmZlVVVVnez3i/T964T9yneL5Pnc+XLPcpGZ8n7lNy36fO74XJcp864z5xn+L9PpnHmnNKhvsU8Hla/4MKNr+grN7Gz56Kxj2t79OOhUrfpiQx7pOS8Hly2H3q/F4Y7/epV12d8m+5RQM/+MBybo3jxqlmxgy1bL11+2Xxfp+8Jdxrr/E/yk1bbtyn9aPV3NbXGEhNl7Y8MDHvU4yfp4qKCm3cuNEyh0vU+yT5Pk/m5U7HyuswPP30012C16uuuqpHwXVdXZ2uuOKK9u/33XffiAXXktSrVy8ddNBBOvjggzVmzBgNGzZMffv21W+//aalS5fqpZde0rPPPqtNmzapsbFRZ599tp566qkuG0gCAAAAQEyt/0Fat0JK97o8NV1q8woRakoll6Scw2M1OyC+eTzKee455d11l9LWrfMdHzhQKy+8UGtKSqQofOobfqz/QdrcKFktcG9rNsb7/SHm0wLiGSuvQ1RRUaHjjjuu/S8uxx57rB544IGwz9fS0qITTzxRX3zxhSSjB/U777wT0Y8+rFmzptv+2YsXL9bpp5+u+vp6SdJ2222n999/X2khfmTIXHk9ePBgvfrqqwGvm4htQ8y/pPHXL8Ae1CBgP+oQsJdjarC2zPqj9eZH6rsbB6Io7uvw22+ls86S3n/fevyYY6QHH5QS7d/kLfWSKzt2x0Wav59b3vg51q24r0FEVKrdE0gkP/30k84888z24LqoqEi33npr2OfzeDy66KKL2oPr3r1768EHH4x4z55gNn4cO3asHnzwwfbvv/vuO73xxhth32Zqaqry8vIC/gcAAAAAPoIJpvNKjO+9Vc81jgecaPNm6Y47pJEjrYPrwYON3tdlZYkXXDdWSkumhV7ftWXGcY2V0ZlXKPOw+rnmsshr+DkGdEF4HaS6ujpNnDhRv/zyiySjr80TTzyhzMzMsM95zTXX6MUXX5RkhL1333239t1334jMNxz77ruvdtttt/bv3/f3V1oHy8rKau9nBCD2qEHAftQhYK+kr8FQVlQTYMMmcVmHX30ljR8vXXaZZNGbV6efLi1fLp14YuK1CWmslFbMkFqbQqtv8+dJa5NxvF0BdqCfa8Xz+DkWhrisQUQNPa+DsGbNGk2cOFE//vijJKNp+5NPPqkhQ4aEfc5bbrlF8+bNa//+pptu0rHHHtvDmfbcPvvso0WLFkmSvvnmG5tnE3/Mhv4A7EENAvajDgF7JXUNttQbvau9BfoIvXm5dzBUUyoN2j8+WgUg6cRVHW7cKN14o3TrrcbKa2/DhkkPPywdemjs5xYJLfUdwbXJrPdArTW8A2MzwB49K7Y/F4L9JInke71g7qdDxVUNIupYed2NxsZGnXrqqe07gubk5OjJJ5/UsGHDwj7nPffco/vvv7/9+2uuuUann356j+caCYMHD27/es2aNTbOBAAAAICjuLKloplSWkbHZcH0fvVegZ2WYZyH4BrJbsECacwYI7z2Dq5TUqS//EVatixxg2vJqOP8ib6XB1qZ7C8wzp8Yf8G1iU+SAH4RXgewYcMG/elPf9JXX30lSRowYICeeOIJ7bjjjmGf85FHHtFtt93W/v2FF16oc889t8dzjZQNGza0f923b18bZxKfqqurVV1dbfc0AMeiBgH7UYeAvZK+BjMLOwLsUDYtM4MfM7jOLIzuPOFottfhunVGML333tKKFb7jhYXSxx9L99wj9e8f+/lFWijBbrxs5hruJ0ms7mdNqXE+tLO9BhFThNd+NDc368wzz9Tnn38uScrIyNC//vUv7bLLLmGf89///reuv/769u8nT56syy+/vKdTjailS5e2f92TtijJqqGhQQ0NDXZPA3AsahCwH3UI2MsRNZhZaHy0P9SgKa/EOK674DrcEIjwCL+ztQ7ffFPaeWfpvvskj6frWK9e0vTp0pIl0p572jK9qAkmwI6X4FrikyRR5oj3QrQjvLawadMmTZ06VZ988okkqU+fPpo7d67GjRsX9jmfe+45XXnlle3fT5w4UTfccEOP5xpJa9as0VtvvdX+/Z7J9mYHAAAAIDGEG9R0d1xjpbRkWugfw68tM46za8M3YPVq6YwzpMMOk6xWnO66q1ReLs2cKfXpE/v5xUKgALv8jPgJrk18kgSICMJrL62trTrvvPP03nvvSZJ69eqlhx56SPvuu2/Y53zttdf017/+VZ7f/yp67LHH6rbbblNKDHb4Xb9+fVDXa21t1WWXXabGxkZJksvl0pFHHhnNqQEAAABA7DRWdmz8FkofWXM1p7nhGwE2YsnjkZ55RhoxQvrXv3zH09Ol22+XFi6UevBJ8YThL8Busdizy87g2hTtT5IADkB43YnH49Ell1yiV199VZKUmpqqe++9V4ccckjY53z//fd13nnnqbW1VZJ06KGH6p577lFqas8e+osuukhDhw7V0KFDtfvuu/u93lFHHaUZM2a09+22smLFCk2YMEFvvPFG+2VTp05Vfn5+j+YIAAAAAHGhpb4juDYFE2B7tyEwA2xaiCAWamulkhLppJOkX37xHd9/f+nrr6VLLzVahjiFvwC7s3gIrk3R+iQJ4BAO+unWvXnz5umZZ55p/76goECLFi3SokWLgjr+pptu6vL9mjVrNGXKFLW0tEiS0tLStMUWW+i6664L6nzHH3+8xo4dG+Tsra1fv15z5szRnDlzlJOTo5122kmDBw9WRkaG1q1bp+XLl+u///1vl2MOOeQQXXHFFT26XQAAAACIG65sKX+ib1sB83urkMtf/9z8iYRKiC6PR5ozxwil1671HR8wwFhtPXWqFINPdMelvBJp1QvWK65dOfETXAPoMcLrTlavXt3l+x9++EE//PBD0Md7h9fr169Xc3Nz+/etra36z3/+E/T5dtlllx6H152tWbNGH330kd/xjIwM/eUvf9H555/f45XhyYpNLAF7UYOA/ahDwF7UYA+YYVYwAXY8bfyGuBPVOvzuOyOUfv996/Gjj5YefFAaOjR6c0gEtWXWwbVkXF5bRq0mMd4LnYXwOsk9//zz+uKLL1ReXq6lS5fq119/VX19vRobG5WRkdG+Gnv8+PE6/vjjNXDgQLunHNdyc3PtngLgaNQgYD/qELAXNdhDwQTYBNfoRlTqcPNm6Z57pOnTpaYm3/Ett5Tuv1868UTnrrY2+avRzgJ9qgIJj/dCZ0nxmLsIAhFQXFwst9ut3NxclZeX2z0dAAAAAPDlL/xy5cTvxm8IX0t9eK1ewj0uVF9/LU2eLH3+ufX4n/4k3XWXtMUW0Z9LvKN2AcehNwQQgqqqKlVVVdk9DcCxqEHAftQhYC9qMEL8bfhG+JV8GiulJdO635zTW22ZcVxjpc9QxOpw40bpuuuksWOtg+thw6TXX5f+9S+CaynwpyKK51nXdDAbsyLh8F7oLLQNAULQuYc5gNijBgH7UYeAvajBCPLXQqQzguvE1lgprZghtTaF1kaic0i6YoZUNFPKLGwfjkgdLlxorLZescJ6/PzzpZtvljIze35bySCYdj6h9LVHQuO90FlYeQ0AAAAAcKa8EqPdgBVXDmFXImup7wiuTcGswvUOSVubjPO01EdmXuvWSRddJO21l3VwPXy49NFH0n33EVybQulD7+9TFazABhIW4TUAAAAAwJlqy6xbhUjG5YRdicuVLeVP9L08UIjpLyTNnxiZ3tdvvSXtvLOxMaP39mNpadJVV0lLlkh7793z20oWLfVSTanv5YE+FeEvwK4pjdwfIQDEDOE1AAAAAMB5/AWVnbFaM7GFsgo3lNW9oVqzRvrzn6VDD5Wqq33Hx46VvvjCaBOSnt6z20o2rmyjbUtaRsdlwTwn3s99WoZxnlhswAkgogivAQAAAADO4i+otGohQoCd2IIJsKMZXD/3nDRihPTYY75j6enS3/8uffaZNHp0z24nmsJdrRypVc6ZhR0BdijPifncm8F1p77lABJHisfj/VkVIHzFxcVyu93Kzc1VeXm53dOJuIaGBklSVlaWrfMAnIoaBOxHHQL2ogYjoLugMppBJuwT6A8WVq1jAjzfQdXhqlXSeedJZX7+8LHvvtLs2dIOOwSet93MTS/zJ4b2+q8tM9p0RDI0bqkPb+V0uMchbvFe6CyE14ioZA+vAQAAACSwYINpAuzkFEyrGKlnz7PHIz36qHTJJdLvAVsXmZnS7bdLU6dKqXH+YXgzuDY3vQz2cen8OLPqGUAPxflPSgAAAAAAIiCUQDqUXslIHP6e1856Elx//710yCHS5MnWwfWRR0rLl0vTpsV/cN1S3zW4loJ7/XvXWWuTcR42SgQQpjj/aQnEl4qKClVUVNg9DcCxqEHAftQhYC9qMEwt9UYLA2+Bgkp/QWdNKUFcIssrse5tLhmXBxFc+9Rha6t0113SyJHSO+/4HjBokFRaKr30kpSfH+bEY8yVbbQK8RYowPb3B6L8ibTtQETxXugshNcAAAAAgOTmyu7Y8M0UzApb7wDbbIFAEJe4asuse1xLxuWhrqxfulTaay/p4oulDRt8x085RVqxQjr5ZCklJfT52imUTyDQagdAlBBeAwAAAACSX2ZhR4AdSqBmBnj07k18wfS8DrI1TMqmTdL110tjx0qffeZ7hfx86dVXpSeeMFZeJ6pgAmyCawBR1MvuCQAAAAAAEBOZhdLoWaGvnM4rkQbtz4rrROYvYHXl+K7ENq/nJ3jt+/XXyr/+eum776xv69xzpVtukQYMCH++8cR8HLwfv+q50qoXrFeyE1wDiBBWXgMAAAAAnCPcAJrgOnEFWhlcPC/41hjr10sXX6ztTz9dGVbB9Y47SvPnSw88kDzBtcnfCmyCawBRRngNAAAAAADsFe4mmN0dF0xLi2BaY7z7rrEh4113KcXj6Xq9tDTpqqukigppn30iM+945O9x6ozgGkCEpXg83j91gfAVFxfL7XYrNzdX5eXldk8n4pqbmyVJ6enpNs8EcCZqELAfdQjYixpEUmqslFbMkPInhhZ81pZJNaX+e5GH2ovZ6vq/tUiPtUpPvms9h+FZ0r3XSodcErl5x7vyM6xXXLtyjJXsQJTxXugsrLwGQpCens4PR8BG1CBgP+oQsBc1iKRjBtetTUFvliipI2hubTKOb6zsOt5SbwTE3gKtDPZeWfzBKunUD62D6z4u6byR0iN7SpkfRG7e8a62zDq4lozLg30cgB7gvdBZCK+BEDQ3N7f/hQ9A7FGDgP2oQ8Be1CCSSkt9R3BtCibA9l4hbQbBnVtxuLKNlc1pGR2XBdPSIq9EyiiRrv5CurpcWr3R5ypte+6ujfMOl04tkHqlRnbe8czfSvbOQvkDBBAm3gudhfAaCEFVVZWqqqrsngbgWNQgYD/qELAXNYik4so2WoV4CxSA+gtQ8yf6bqqZWdgRYAcTXHs80mOPSQdcIn3g9h3PzJQefFBf3/9PVW59ZvTmHY/8zd+V43sZATaijPdCZyG8BgAAAAAA9ghms0RTqD2sJSPAHj2r++D6hx+kQw+V/vxnqaHBd/yPf5SWLZPOOUdKTZX6/SG6844ngeZfPC/4xwEAwkB4DQAAAAAA7BNMgN2TADjQyubWVumee6Sdd5beftt3fNAg6YknpJdflrbeOrbzjgfBzD+UP0AAQIh62T0BAAAAAADgcGYQ6h2UVs+VVr1gvUlgTwPgZcukyZOlzz6zHj/lFOnuu6Utt/R/DjvmbaWlPrz2I4GOCyV4D/Q4dB4HgBCx8hoAAAAAANjP3wreSAfALS3SzJnSmDHWwXV+vvTKK8aK60DBtSlW8/ansVJaMi30Vc61ZcZxjZW+Yy31Uk2p7+WB5u/vcagpTZxNKQHEHcJrAAAAAAAQH/wFoJ31JABetEgqLpauu07atMl3/JxzjBXZf/xjaOeN9rz9aayUVsyQWptCa9NhrqpubTKO9w6wXdkdm12agpm/9+OQlmGcJxE2pQQQl1I8Ho/H7kkgeRQXF8vtdis3N1fl5eV2TwcAAAAAkIjKz7BeuezKMTYJDNX69dKMGUYbkLY23/EddpBmz5b23Tf0c3cW6XkH0lJvrJxubep6eXchs1U7kLQMY2NL75DZDMfzJ4YWvNeWGSuui2Yam2YCQJhYeQ0AAAAAAOJHbZl1ACwZl4faHuO996RddpH+8Q/f4DotTbriCqmioufBdaTn3R1XthEqewu0AttfH+v8idarozMLjVA71BXjeSXGcQTX8SPc1i20fIHNCK+BEDQ0NKihocHuaQCORQ0C9qMOAXtRg0h6/sLVzoJtj9HQIE2ZIh10kPT9977jo0cbbURuvVXKyPAd93taizqM5LxD4a9didVthbIBY2fhtvygVUj8iEZfdBvxXugsveyeAJBIqqurJUlZWVn2TgRwKGoQsB91CNiLGkRS8xeuunJ8VzSb1/MXur7wgnTuudKqVb5jffoYPa8vvVTq3TvkafrUYSTnHQ7zXN5z6Hxb4QbXSHzefdGl4J7zzq+ZFTPiqgUM74XOwsprAAAAAABgr0DhavG84FcXu93SiSdKJSXWwfXeexstQq66KqzgOmrz7qlAK7DLzyC4dqqW+o7g2hTM68/7dW1u7EkLEdiA8BoAAAAAANgnmFXB3bXH8HikefOkESOkZ5/1vV7//tIDD0gffigNHx4/844kf7dl1Yeb4NoZYtEXHYgy2oYAAAAAAAB7hNLOwl97jE/vl+6dKX24xPo2Dj9ceughadiwHk+33fofpA09nHcsW4h0RnDtLKG8/mgvgzjEymsAAAAAAGIt3I/fJ9PH9lvqpZpS38sDBWWdVxe3eqSnf5BO+9A6uN5iC+nxx6VXX41scN22UVr/je/lwc67s5rSyD+neSVGv20rrhxCSCcK5hMABNeIU4TXQAjS09OVnp5u9zQAx6IGAftRh4C9EroGCWs7NFZKS6aF3jaitsw4rrEyOvOKNVe2sQlcWkbHZcEEZXkl0saDpbM/ke5eJjW1+l7n5JOl5cul006TUlIiOu30vgOVPmR8ePPuHCCmZRj3P9KtGGrLrFuFSMblkW5XgsSQRH3RE/q9ECFL8Xg8HrsngeRRXFwst9ut3NxclZeX2z0dAAAAAPGgsdLY7Ct/YmhBSG2ZsTK1aKaUWRi9+cWS+ViYG6gFGw51XhVphp7J9pgE8/poaZH+/nfpxhuNr73l5Un//Kd09NHRmWtn8fi69rd61luchpKIAV4jSDCE14gowmsAAAAAXRDWdmipN1ZOm4+FqbvHxCpsSsuQRs9Kng3UWuq7vy+ffy5Nnix9/bX1+LRpRrA9cGDk5+dPMPOO5HGB+AslXTls2oiuuguweW0gjtA2BAiB2+2W2+22exqAY1GDgP2oQ8BeCVeDLfVdg2upa49Vf7yDldYm4zyJ3kLElW2s0vUW6DHxFzLlT0ye4FoKfF82bJAuvVTaYw/r4Hr77aX33zc2ZYxBcN2lDsN9DmIVXBdMkorndd/vGM6S4H3RE+69ED1CeA2EoK6uTnV1dXZPA3AsahCwH3UI2CvhapCw1lcwG6eZ2EDNCKVHjpTuvFNqa+s6lpoqXXaZVFEh7b9/zKYUd3UYzOsklNcdkl+C90WPuxpEVPWyewIAAAAAgCRmhmfe4Zr5fecQ1ilhbTCPiVMeC38aGoxgevZs6/FddpHmzJF23TWm04o7obxOQqlFJK9gel7zmkAcIbwGAAAAAEQXYa2vQI/Jqhec3aP4xRelc86RVq3yHXO5pBkzpMsvl3r3jv3c4klLvbHxo7dArxN/r7uaUmnQ/snx6Qb4F0pfdAJsxAnahgAAAAAAoi9Q24LyM5wVXJv8PSZODa7r6qQJE6Rjj7UOrvfcU1qyRLrmGoJryQiai2Yam3eagnmdeL/uzA1RCa6TG33RkaAIrwEAAAAAsUFY68vfY9JZsj8WHo/0r39JI0ZITz/tO96vn3TvvdJHH0lFRbGfXzzLLOwIsEN5nZivOzO4ziyM7jxhL/qiI4HRNgQIQVZWlt1TAByNGgTsRx0C9kqKGvTXtqCzZA9rveWV+G8V4spJ7seiulqaNk16803r8cMOkx56SCooiO28Aoi7OswslEbPCn3ldF4JrUKcIAn7osddDSKqUjwej8fuSSB5FBcXy+12Kzc3V+Xl5XZPBwAAAEC8Kj/Df1hbPC/287FTdxuoJWOY39YmPfigdOWV0vr1vuM5OdLdd0unnSalpMR8ekmtpT68wDrc42CflnppyTSptanr5d39TLH6mZSWEd4fSYAeom0IAAAAACC2asusg2vJuNxJH1HvLriWku9j+5WV0r77ShdcYB1cT5ggLV8u/elPBNeR1lhphJmhvp5qy4zjGiujMy9EB33RkQQIr4EQVFdXq7q62u5pAI5FDQL2ow4BeyVFDToxrPXH32PhyvG9LBkek02bpJtukkaNkj75xHc8L0964QXpySelIUMCn6ulPrw5hHtcJwlbh42V0ooZxircUF5P5uu0tck4ngA7sSRhX/SErUGEhfAaCEFDQ4MaGhrsngbgWNQgYD/qELBXwteg08LaQAL1oS2el3wbp5WXS7vuKl17rdTS4js+daq0bJl0zDHdn8vm1cMJWYct9R3BtSmY15P369QMsCPwRwDEkNkXPdT2Q3klxnFxFFxLCVqDCBvhNQAAAAAg+hIxrI3W6t5gNlDz/ti+ye7HJFQbNkiXXy7ttpv01Ve+49ttJ733nvTww1Iwm7Cxejg8rmwpf6Lv5YEeQ3+v0/yJtI9IROE+ZzzXsBnhNQAAAAAguhIxrI3W6t5gHgtTvD0mofrgA6NFyO23Gxs0dpaaKl1yiRFoH3BAcOdj9XDPhPJ6CuV1CgBRRHgNAAAAAIieRAxro7W6t6Veqin1PS5QIOjvMakpjd/wde1aado0I5T+9lvf8ZEjpc8+k+64Q+rbN/jzsnq454KpMYJrAHGE8BoAAAAAEB2JGNZGc3WvK7tj4zRTMIGg92NibqAWj+Hryy9LI0YYbUC8uVzS3/4mffGF0f86HKwe7rlAj2H5GTxmAOJKL7snACSSId3teA0gqqhBwH7UIWCvhKtBM6ztHAYHG9ZKHSFaLMNac3Wvd4Bnfm8191BW92YWdjwm+RODDwTN69WUGsfH2QZq+uUX6S9/kZ56ynp8/Hhp9mwj2O4p79eHqfNzFMXgOuHq0Iq/x7Blje91Ca4RZ5KiBhG0FI/H47F7EkgexcXFcrvdys3NVXl5ud3TAQAAABAPzDYcoYS1khFA2hXWBht+hhuSttSHF8aHe1y0eDzSE09IF14orbEIPvv1k265RTr3XCktLbK37e+xd+UQwgbL32No4jEDYDNWXgMAAACA3ZIlyPQns1AaPSv0ueaVSIP2t+c+Rnt1b7j3KZ6e759+ks4+W3r9devxQw6RZs2SttkmOrfP6uGeyyuRVr1g/Zi5cnjMANiOntdACKqqqlRVVWX3NADHogYB+1GHQBQ0VkpLpgW1KWCXGqwtM47z3hQwXiViWEtvYGttbdIDD0g77WQdXGdnS/PmSW+8Eb3g2uTvOeosws9JUr0X1pZZB9eScXksN0oFgpRUNYhuEV4DIWhublZzc7Pd0wAcixoE7EcdAhFmttNobQpqU8D2GjRX/JqbAiZKgJ2I/IWjTl3dW1Ul7befdP750rp1vuMnniitWCGdfrqUkhKbOeWVGKuErURh9XDSvBd21zJECm6zUiDGkqYGERTCawAAAACwQ0t9140MpeCCovU/dA2czAC7pT4684Qtq3t7JNzXQqDjNm2Sbr5ZGjVK+vhj3/GttpLKyqSnn5ZivZkaq4dDF6hfuDcCbAA2IrwGAAAAADu4so0NDL0FCorW/yCtW+F7ef7E+OqFnIxivLo3bCG0oekiUBuaxYulceOka66RNm70HZ8yRVq+XDr22LCm3COsHg5doF7txfP8t8rhMQRgA8JrAAAAALBLoJ7K3kFRbZl1cB1PK36TWSKs7g2xDU07f21ompqkK66QdttNqqjwPW7bbaV335UeeUTKyorY3Qgaq4dDF8wmo6H8XAKAKCO8BgAAAAA7BRMUBRM4IXoSYXVvuG1ovO+bGWC/84rRIuS226TW1q7HpKZKl1wiff21dOCBkbsPoWD1cOhC+TlCgA0gTvSyewJAIikoKLB7CoCjUYOA/ahDIErM4Mg7WKqeK616oX3Fb0F6VccYwXVsBFrd670S27yeHc+L2YbG6jXkb05W9239Julfm6THj7K+nZEjpTlzjDYidgl29bAU2uMRpIR8L2ypl2pKfS8P9HPE32NYUyoN2p9WRbBNQtYgwkZ4DYQgy46PwgFoRw0C9qMOgSjyFxR1Ckizeq82viC4jo3uQlKrcTsD7FACW6u5f1In3fmd5LZoj9K7tzR9utFGxOWK3JxDFerqYSniz1FCvhe6sqWimV1X5wfzc8T7MUzLMM5DcA0bJWQNImyE1wAAAAAQL/yFbZ0RXMeGzat7wxbMnLzvW/1G6e5l0tu11ufcYw9jtfWIEZGfbyhYPdwzmYUdAXb+xOBfn+b1akqN4zMLozdHAPCS4vF4PHZPAsmjuLhYbrdbubm5Ki8vt3s6EVfx+yYlo0aNsnkmgDNRg4D9qEMgRsrPsNwcsGL9gdKWB1KD0RZqj/F47EkeTLsTj0d662cjuF67yfe6fftKN98snX++lJYW3fkGq/OmlFLwj3Hnx8NcPRxmCJvw74Ut9eGF9uEeB0RYwtcgQsKGjQAAAAAQT2rLLINrSVJbs7T+h9jOx2nCXd1rtbldTalxPjv4m5P52qprki79XLphiXVwffDB0tKl0oUXxk9wLXWsHk7LCO2PA+bj0cPgOimEG0ATXAOwAW1DAAAAACBe+Fst29m6FVKth9Yh0ZJMvYGtWma0eaSyaumfK6QNrb7HZGdLd90lnX66lJISm3mGKrNQGj0r9Mc2r8R5rUIAIMGx8hoAAAAA4kGgNg/equca10d0JNPq3rySjtdQ9TrpvIXSnUutg+sTTpCWL5fOOCN+g2sTq4cBwBFYeQ0AAAAAduuuZ7LVuJ2bAjpBsqzurS2TNvxP+s/30tz/Si1tvtfJzZUeeEA67rjYzw8AgAAIrwEAAADATsFs9mf+f2ll1+sQYEdXoq/urS2T3rpLurlC+uY36+scubX095ukEQTXAID4Q3gNhGD48OF2TwFwNGoQsB91CERYMMG1Ka9Ew1vKfDcTJMCGle+elG641lhx3erxHc/rK10xUhq3pbT2aam2P6+hIPFeCNiLGnQWwmsgBOnp6XZPAXA0ahCwH3UIRFBLvW8QLQXssZy+TYnkkm/gXVMaX60qYK+ym6SLbpF+Wu87lpIiTTlSOnmTlNEpEuCPIEHjvRCwFzXoLGzYCISgublZzc3Ndk8DcCxqELAfdQhEkCu7Y1NAUzebAzY3N6s553DjeiZzc0CCa/z2m3TGYdJx11oH1zvtJC1YID38klR4lu84G4EGhfdCwF7UoLMQXgMhqKqqUlVVld3TAByLGgTsRx0CEZZZ2BFgdxNcS51qMK/EuL4ZXGcWxmjCiFuvvioVbiv9603fsd69pOuvlxYvlvbYw7jMfA15I8DuFu+FgL2oQWehbQgAAAAA2CmzUBo9K/SV03kltAqB9Ouv0kUXSf/5j/X4mB2kfz0v7byz75j5xxLa0AAA4hQrrwEAAADAbuGGhISLzuXxSKWl0ogR1sF1epp0/Z+lz1dYB9cm7xXYtKEBAMQRVl4DAAAAAJBIamqkc86RXnnFenzcYOme66Xx5wR3PnMFdk0pbWgAAHGF8BoAAAAAgETQ1iY9/LB0+eVSY6PveFaW9I9/SKccI/XJCe3ctKEBAMQhwmsAAAAAAOLdf/8rTZ0qzZ9vPV5SIj3wgLTVVuHfBsE1ACDOpHg8Ho/dk0DyKC4ultvtVm5ursrLy+2eDgAAAAAkts2bjdXU110nNTf7jg8ZIt1/v3TCCbGfGwAAUcbKawAAAAAA4tGSJdLkydLixdbjf/6zdMcdUk6ILUIAAEgQqXZPAEgkDQ0NamhosHsagGNRg4D9qEPAXtSgQzQ3S9dcI+26q3Vwvc020ptvSnPnElzbgDoE7EUNOgsrr4EQVFdXS5KysrLsnQjgUNQgYD/qELAXNegAH38sTZkiVVX5jqWkSBdeKP3tb1L//rGfGyRRh4DdqEFnIbwGAAAAAMBujY3SVVcZmy5aGTFCmj1bGj8+tvMCAMBGhNcAAAAAANjpjTeks86SVq70HevVS7r6auO/Pn1iPzcAAGxEeA0AAAAgvrXUS67s2B0HxMrq1dJf/yo9/rj1+Lhx0pw50siRsZ0XAABxgg0bAQAAAMSvxkppyTSptiy042rLjOMaK6MzL6AnPB7pqaekoiLr4DojQ7rzTmnhQoJrAICjsfIaCEF6errdUwAcjRoE7EcdIqYaK6UVM6TWJql6rnFZXkngY1rqpf990HH9FTOkoplSZmH3xyXAKm1qMAn8/LN07rnSSy9Zjx94oPTww9J228V2XggadQjYixp0lhSPx+OxexJIHsXFxXK73crNzVV5ebnd0wEAAECiaqk3Vk63NnW9vGCS/wC7sVL6crLUulFK36rj8rQMafQs/+F0bZlUUxpcyA2Eq63N2HDxssuk337zHR840FhtPWmSlJIS+/kBABCHaBsCAAAAIP64sqX8ib6XV8+1biFiBtfrvpWaVkrNqzrG8icGDq6r5xoh+YoZtBlBdHz7rXTQQdK0adbB9bHHSsuXS5MnE1wDANAJ4TUQArfbLbfbbfc0AMeiBgH7UYeIqbwSY6W1N+8Au6W+I7g2mQF2oJXaZnBtMgPslvrIzD8KqMEEs3mzdMcdRt/qDz7wHR88WHrmGen556W8vJhPD+GhDgF7UYPOQs9rIAR1dXWSpNzcXJtnAjgTNQjYjzpEzJnBc+eQufP3eSVGj+vWjb7HBlrB6h1cmwKt0o4D1GACqagwVlL7a6d4xhnSP/4h5eTEdl7oMeoQsBc16CyE1wAAAADiW6AAe9ULUsuajh7XTSuN//cdJvXJtd7o0V9wHWiVNhCsjRulG2+Ubr3VWHntraBAmjVLOvTQ2M8NAIAEQ3gNAAAAIP75C7Bb1nR8bQbYKSlGcG3qHGATXCOaPvlEmjJFqrTonZ6SIl1wgXTTTVL//rGfGwAACYjwGgAAAEBi8Bdgdzb8GuvrdF6l7Y3gGj21bp109dXS/fdLHo/veFGRNGeONH587OcGAEACI7y2sHLlSs2fP1+ffvqpVqxYodraWq1fv179+/fXVlttpbFjx6qkpETjw/jFY8mSJXrqqae0cOFCrVpl7IC+1VZbafz48ZowYYJGjx4d4XsTX7cPAAAA9Eheif8Q2pXTNYQOtErbRHCNnnrjDWnaNOmnn3zHevWSrrpKuuYaqU+f2M8NAIAEl+LxWP1Z2JmWLl2qK6+8Ul9++WVQ1x8/frzuueceDR06tNvrtrS06MYbb9TcuXPl7yFPSUnR5MmTde2116p3794hzT1ebr+4uFhut1u5ubkq97cxSQKrrq6WJBUUFNg8E8CZqEHAftQhbOev7YepcxgdynUTBDUYR1avli6+WPrXv6zHd93VWG29yy6xnReijjoE7EUNOgvhdScvvviizj333C6XbbvttiosLFR2drZ+++03ffHFF+0rliVjZ9Pnn3++24K58MIL9eyzz7Z/X1BQoLFjx0qSFi9e3F54knTyySfrzjvvjMRdivntJ3t4DQAAABt1F0abOofS5Wf4X6VdPC+y84MzeDzSM88Y/at/+cV3PCND+tvfpAsvNFZeAwCAsPFOamGbbbbRKaecouOOO05bbbVVl7G2tjY9/fTTuvbaa9XU1CS3263zzz9fL730klJSUizP9+STT7YHx6mpqZoxY4YmT56s1NTU9nPOmTNHM2fOVFtbm5588kntscceOvHEEyNyf+y+fQAAAKDH/AXXrhzfcLrz9ayCa/Py2rKEW3kNm9XWSueeK734ovX4AQdIjzwibbddbOcFAECSYuV1JwsXLtRPP/2kE044QWlpaQGv+/rrr2vKlCnt3z/xxBPaf//9fa63ceNG7b333qqtrZUknX/++brqqqssz3nzzTfrgQcekCTl5+fro48+ksvlCvPe2HP7yb7ymo+mAPaiBgH7UYewhb/g2lxhbTXevEpKSZH65AY+d4K1DqEGbeLxSLNnS5ddJq1d6zs+YIB0553S5MnG6w5JjToE7EUNOkuq3ROIJ+amhd0F15J0+OGHa8yYMe3fv/vuu5bXe+utt9qD4wEDBuiiiy7ye86//vWvyszMlCTV1NT4PWco7L79ZNPQ0KCGhga7pwE4FjUI2I86RMx1F1xLxv8LJnWMNa+SmlZKG36SNro7Lnfl+J6neq5xGwmCGrTBt99KBx0knXWWdXB9zDHS8uXSlCkE1w5BHQL2ogadhfC6B3bdddf2r1euXGl5nTfffLP966OOOkoZGRl+z5eRkaGjjjqq/fvXX3+9x3O0+/YBAACAsAUTXJvMANsMrk1mgF0wyehx3TnkNiVYgI0Y2bxZuuMOY8PF99/3HR88WHrqKamsTBo6NPbzAwDAAQive6Bzj+vW1lbL6yxYsKD96z333LPbc3a+zieffNKD2cXH7QMAAABhaamXakp9L++uzYfVytcUlzRof+Nr71XaJgJsdPbVV9L48UabkKYm3/HTTzdWW590EqutAQCIIsLrHqisrGz/Oi8vz2f8t99+U11dXfv3O++8c7fnHDlyZPvXbrdbjY2NYc/P7tsHAAAAwubKlopmSmmdPjkYKLg2V2n3yZX6Duu4vN/20tg5xvlMBNjwZ+NGafp0qbhY+uIL3/Fhw6TXX5fmzZO22CL28wMAwGEIr8P0888/d1mZvM8++/hc57vvvuvy/dAgPkrmfR3vc4TC7tsHAAAAeiSzsCPADhRce6/SNgNsM7jOLPQ9xl+AXVNqnA+JI9zny/u4BQukMWOkG280WoZ0lpIiXXCBtHSpdNhh4d0eAAAIWS+7J5Corr/++vZWIUOHDtXBBx/sc536+o5fhjIzMwP2mzZlZGSof//+WrdunST1qAG9nbff1tbWvlGkP1ar1ePdkCFD7J4C4GjUIGA/6hAxl1kojZ7VdeW0N3OV9ooZUuvvLR52vNpoFRLoODMMN/tqp2UY5wl0jM2oQS+Nlcbznj8xcDsZb7Vlxh8qimZKKfnSNddI990neTy+1y0slGbPlvbaK3LzRkKjDgF7UYPOQngdhqefflqvvfZa+/dXXXWV+vTp43O99evXt3+dnp4e9PnT09Pbw+PO5wiVnbf/yy+/aNy4cQGv0/kxNI0aNUqSEZpXV1dbzm348OGSjLYmnduimLKyslRQUCBJqq6utgzghwwZotzcXElSVVWVmpubfa5TUFCgrKwsSVJFRUWXMfN2hw8frvT0dDU3N6uqqsryfibKfTJxn7hP3CfuE/eJ+xTMfaqrq0u6+yQl3/OUXPfpp+7vU+p50tpFUr8dNCR1D+X+HkIHvE+/B54Vy76VsneTvt8oqeP+8TzF8X3a1CDVL5I8YzS8pVTpkppzDu/+Pn1TpuofKiWNUeb9dyj/vlfkWuU7f0+vXvrlzDNVN3WqPH36SBUVPE/cpy7q6uqS7j5Jyfc8cZ+S7z7l5uaqoaHB8jyJep8k3+fJvNzpCK9DVFFRoauuuqr9+2OPPVYlJdZ/4d+4cWP717179w76NlwuV/vXVsURLLtvHwAAAIip3lnSoP2kVN+FJQHllUh1i0I/DvZp2/h7cN2pvUf1XKlFkrb1f1xtmbTqRaX9trXyHn5NOW8vtrzapl120ffXXKPm3wMQAABgjxSPx+pzUbDy008/6ZhjjtEvv/wiSSoqKlJZWZkyMzMtr//yyy/r7LPPliRtueWWWrJkSVC3M2rUKP3vf/+TJD388MP64x//GNZ87bj94uJiud1uDR48WK+++mrA6yZi2xDzr2TD+SUWsAU1CNiPOgTsRQ12Ym7S6c1ff/TaMunHOdL7q6Q7l0r1Lb7XSU+XZs6U/vpXqRdrvWCNOgTsRQ06C+/GQaqrq9PEiRPbg+uCggI98cQTfoNrSerXr1/716GsYO583c7nCJWdt5+ampqQ4XR3WIkO2IsaBOxHHQL2ogY78e5ZbjK/7xxg15ZJXzwo3fm1NN/3I+SSpP32kx55RNphh8jPFUmFOgTsRQ06S6rdE0gEa9as0cSJE/Xjjz9KMvrePPnkk902iM/O7tjopbGxMajiampqau83Lam9d0447L59AAAAAIiqvBJjpbW36rlGYC1JPz8v3Xe9dOoH1sH1gAHSQw9J771HcA0AQJwhvO5GY2OjTj311PaPJOTk5OjJJ5/UsGHDuj12u+226/J9TU1Nt8f8/PPPAc8RCrtvHwAAAACiLlCA/eJx0jFnSbd+Ja3b7HudI4+Uli2Tpk2TUvnnMQAA8YZ35wA2bNigP/3pT/rqq68kSQMGDNATTzyhHXfcMajjBwwY0GV19rJly7o95uuvv27/Ojc3N2Bbkni/fQAAAACICe8Au9UjlX4vTXhRKl/te/0tt5RKS6WXXpLy82M3TwAAEBLCaz+am5t15pln6vPPP5ckZWRk6F//+pd22WWXkM6z5557tn+9YMGCbq+/cOHC9q/32muvkG4rHm8fAAAAAGLCDLC/+00662PpvuXSxjbf6512mrR8uXTyyVJKSuznCQAAgkZ4bWHTpk2aOnWqPvnkE0lSnz59NHfuXI0bNy7kcx166KHtX7/88stqamrye92mpia98sor7d8fdthhId9evN1+sikoKFBBQYHd0wAcixoE7EcdAvaiBgPYuFGatUQ68yNpxVrf8SF9pddekx5/XBo0KObTQ/KgDgF7UYPOQnjtpbW1Veedd57ee+89SVKvXr300EMPad999w3rfIcccoi22morSdLatWt17733+r3u3XffrbVrjV+y8vPz9X//939h3WY83X6yycrKYhNLwEbUIGA/6hCwFzXox6efSmPHSjNnGi1DvB1fIP17X2lU95vYA92hDgF7UYPOQnjdicfj0SWXXKJXX31VkpSamqp7771XhxxySNjn7NOnjy699NL27++//37NmTNHbW0dH19ra2vTnDlz9OCDD7Zfdumll8rlcvk97wknnKChQ4dq6NChOuGEE2J++wAAAABgu3XrpIsukvbc02gF4m1YP+nB8dIlI6V+vYxNHGvLYj5NAAAQnl52TyCezJs3T88880z79wUFBVq0aJEWLVoU1PE33XST5eUnn3yyFixYoOeee05tbW2aMWOG5s6dq7Fjx0qSFi9erB9//LH9+hMmTNCJJ54Y/h2Js9tPJhUVFZKkUaNG2TwTwJmoQcB+1CFgL2qwk7ffls46S+r0b5l2aSnSqdtJ03aXUrxaiFTPNf6fVxL1KSI5UYeAvahBZyG87mT16q67UP/www/64Ycfgj7eX3gtSXfccYcGDBigxx57TB6PRz/++GOXwFiSUlJSNGnSJE2fPj2keQfD7tsHAAAAgIior5cuuUR69FHr8R0HSFePkg7+qxFQ15Z1BNYmAmwAABIC4XWMuFwu3XjjjTr++OP15JNPauHChXK73ZKk3NxcjR8/XhMnTtTo0aOT8vYBAAAAoMeee046/3zp93/LdOFKlSbvKE3cVtpuSkcwbf6fABsAgIRDeN3JJZdcoksuuSSqtzFmzBiNGTOmx+d59tlnbb19AAAAAIiZVauM0Pr5563HR+dIV+4iDesvFUzyDaQJsAEASEiE1wAAAACA+OTxSI89Jl18sdTQ4Dvet5d0XpF0zDApNcU6uDb5C7BrSqVB+0uu7AhOHAAARALhNQAAAAAg/vzwg7Eh4zvvWI8fup90Xn9pUIrxfaDg2uQdYKdlSEUzCa4BAIhThNdACIYPH273FABHowYB+1GHQJBa6sMLRLs5zhE12Noq3XefdM010oYNvuODBkn33CNNnCitq5JWzJDyJwbf+sO8Xk2pEVxnFkZu7nAER9QhEMeoQWdJ8Xg8HrsngeRRXFwst9ut3NxclZeX2z0dAAAAIPYaK0MPVCWptoxAddkyafJk6bPPrMdPPVW6+24jwDZF6Q8FAADAfql2TwBIJM3NzWpubrZ7GoBjUYOA/ahDoBtmcN3aZLSmqC0L7rjaMuP6rU3G8Y2VlldL2hpsaZFmzpTGjLEOrvPzpVdekf79767BtRR+AE1wjTAlbR0CCYIadBbCayAEVVVVqqqqsnsagGNRg4D9qEMggJb6juDaFEyAbQbXJjPAbqn3uWpS1uCiRVJxsXTdddKmTb7j555rrMj+4x9jPzfAQlLWIZBAqEFnIbwGAAAAgEhwZRutQrwFCrC9g2tT/sTkXxm8fr10ySXS+PHS0qW+4zvuKH34ofTAA9KAAbGfHwAAsB0bNgIAAABApJg9rr0DafP7zj2w/QXXBZNC65WdiN59V5o6VfrhB9+xtDTp8sulGTOk9PTYzw0AAMQNwmsAAAAAiKRgAmynBtcNDdKll0pz5liPjxljjI0ZE9NpAQCA+ER4DQAAAACRFijAXvWC1LLG95hkD67LyqTzzpNWrfId69NHuv56o41I794xnxoAAIhPhNcAAAAAEA3+AmynBddut3TBBdKzz1qP77OP9Mgj0vDhsZ0XAACIeykej8dj9ySQPIqLi+V2u5Wbm6vy8nK7pwMAAIB41FIf3maE4R5nN38tQkzJGlx7PNK8edLFF0v19b7j/ftLt90mTZsmpabGfn4AACDu8RsCAAAAEG0tFsFdNI+LZ42V0pJpRqAbitoy47jGyujMK5rySiRXjvWYKyc5g+sff5QOPVT685+tg+sjjpCWL5fOOYfgGgAA+MVvCUAIGhoa1NDQYPc0AMeiBgH7UYdhcGJY609jpbRihtTaZKxEDvYxMVcutzYZxyfaY1JbZt0qRDIuD+G1Efc12Noq3XuvtPPO0ttv+45vsYX0xBPSK69IW28d+/kBERD3dQgkOWrQWeh5DYSgurpakpSVlWXvRACHogYB+1GHIfIOa6XgVtl2bjOxYoZUNFPKLIzePGOhpb7jsTAF85h4t9wwA+zRsxKjhUh3LUOkkF4bcV2Dy5dLkydLn35qPT5xonTPPdKWW8Z2XkCExXUdAg5ADToLK68BAACAaPAX1na3ytZfWJvoLURc2VL+RN/LAz0m/oLf/ImJHVxbtRAJZSV6vGlpkf72N2nMGOvgeuhQ6aWXpP/8h+AaAACEhPAaAAAAiAYnhrXdySsxNif0ZvWY+HssEmVzw0DzL54X/OMQ7z7/XNp1V2nGDCPE9nb22dKyZdJRR8V+bnagvz0AABFFeA0AAABEi5PC2mAF85gk+mMRzPxDeW3Eow0bpEsvlfbYQ/r6a9/x7beX3n9f+uc/pYEDYz8/O9DfHgCAiCO8BgAAAKLJCWFtqAI9JuVnJPZjEcpzmagB9nvvSSNHSnfeKbW1dR1LS5Muv1z66itp//1tmZ4tnLoZKQAAUcaGjUAI0tPT7Z4C4GjUIGA/6jBMZmjpHWpWz5VWvSC1rPE9JlHC2nD5e0wS+bFoqZdqSn0vDzR/f49DTak0aH+fdjG21mBDg3TZZdLs2dbjo0ZJc+ZIxcUxnZbtnLoZqYPxXgjYixp0lhSPx+OxexJIHsXFxXK73crNzVV5ebnd0wEAAIgv/lblekuUsDYSuntMEu2x6LwCVwp+/p0fh7QMqWimlFkYvXmG6oUXpHPPlVat8h3r08foeX3ZZVLv3jGfWlwI9dMTTvu0BQAAYaJtCAAAABAr/tpEdOa08CqvRHLlWI+5chLvscgsNILntIzQnkvztRFvwXVdnXTSSVJJiXVwvdde0pIl0tVXOze4luhvDwBAlBBeAyFwu91yu912TwNwLGoQsB91GAHJFtb2VG2ZdasQybg8nns/+5NZaLR+CPW5zCsxjgsQXMesBj0e6V//koqKpGee8R3v31+6/35p/nypME6CdrvR394xeC8E7EUNOgs9r4EQ1NXVSZJyc3NtngngTNQgYD/qMAKCCWudEmIF00YlmN7B8SjcnsXdHBeTGqyulqZNk95803r8sMOkWbOkYcOiN4dERX97R+C9gWctfwAAyiVJREFUELAXNegsrLwGAAAAYiXYsDYRVxuHyt9jYbUq3SmPid3a2qT77pN22sk6uM7JMVZjv/YawXUg/lZgE1wDABAywmsAAAAgFghrOwRqnVA8L/jewYicFSukffaR/vIXaf163/EJE4zr/OlPUkpK7OeXaOhvDwBARBBeAwAAANFGWNshmJ6/oWx+h57ZtEm68UZp9GhpwQLf8bw86cUXpSeflAYPjvn0Ehr97QEA6DHCawAAACCaCGs7hLJZnVMeEzt98YW0667S9OlSS4vv+FlnScuXS0cfHfu5JYNk3IwUAIAYY8NGIARZWVl2TwFwNGoQsB91GKJQw1rJeqO3zuOJqqVeqin1vTxQ6wR/j0lNqTRo//A3RUxgEanBDRuk66+X7rzT6HPtbbvtpEcekQ44oOe35VTJvBkpeC8EbEYNOkuKx+Px2D0JJI/i4mK53W7l5uaqvLzc7ukAAADYp6VeWjJNam3qenl3fW6tQq+0DGn0rMQPaxsrpRUzOh6TYHv+dn5M0jKkoplSZmH05pnMPvhAmjJF+u4737HUVOnii6UbbpD69o351JJGoP72bNoIAEBIaBsCAAAARIMr2whZ0zI6LgsmpPJul2GGtYkeXEtG4Gw+JqEEduZjQnAdnpZ6ae1aado0YzW1VXC9yy7SZ59Jt9/eEVy31Md2nsmA/vYAAEQUK68RUcm+8rq6ulqSVFBQYPNMAGeiBgH7UYdhMFcb508MbXVlbZnRHiMZw9qW+vDC+HCPSyIh12BjpfTwFOmOFZLbYtWvyyXNmCFdfrnUu3fH5cn8+ouWYNsEhdJOCHGJ90LAXtSgs7DyGghBQ0ODGhoa7J4G4FjUIGA/6jAMmYVGy49QQ6m8EuO4ZAwOww2gHR5cSyHW4PefSMcdIl36iXVwveee0pIl0jXX+AbX1XON9i4rZhgBOAJjM1JH4b0QsBc16CyE1wAAAEC0EdYiljwe6dGHpDEHSu+s9B3v10+67z7po4+koqKuY94hrBlg00LEv3A3I7UKsGtKeawBAOiE8BoAAAAAksVPP0lHHCFNOkf6rcV3fPctpffulM4/39igsTN/q4fzJ/KHlEDobw8AQNQQXgMAAABAomtrkx54QNppJ+mNN3zHB/SWpo+W/rGb1PqKb3sK+jD3DJuRAgAQFb3sngAAAAAAoAeqqqQpU6SPP7YeP2pPaVo/KadPx2VmUJ1XQnAdKWZ/+1BXTueVSIP2Z8U1AAAWCK+BEAwZMsTuKQCORg0C9qMOAXt1qcFNm6Tbb5dmzpQ2bvS98lZbSf/8p3TMMdYBdfVcadULUovFZo4E1+Ghv70j8F4I2IsadJYUj8fjsXsSSB7FxcVyu93Kzc1VeXm53dMBAAAAktPixdKkSVJFhfX41KnSbbdJWVkdl/lbYe2N4BoAAMQJel4DAAAAQKJoapKuuELabTfr4Hq77aT33pMefrhrcC35bhBoheAaAADEEcJrIARVVVWqqqqyexqAY1GDgP2oQ8BGH36olqIiY0V1a2vXsdRU6dJLpa++kg44wP858kokV471mCuH4BoIAu+FgL2oQWeh5zUQgubmZrunADgaNQjYjzoEbPDbb8Zq64cekstqfORIac4cady47s9VW2bd41oyLq8tI8AGusF7IWAvatBZWHkNAAAAAPHqlVekESOkhx7yHXO5jM0av/gi+OC6u57X1XON6wEAAMQBVl4DAAAAQLz59Vfpwgul0lLr8fHjpdmzjWA7GP6Ca1eO70ps83qswAYAADZj5TUAAAAAxAuPR3riCamoyDK4bs3I0M+XXy599FHPg+uCSVLxPOtNHFmBDQAA4gArrwEAAAAgHqxcKZ19tvTaa9bjhxyiqgsv1KahQzU0LS24cwYKrs2V1eb/va/HCmwAAGAzwmsgBAUFBXZPAXA0ahCwH3UIREFbm9HT+oorpHXrfMezs6W77pJOP115a9cGf95ggmsTATYQNN4LAXtRg85CeA2EICsry+4pAI5GDQL2ow6BCKuqkqZONdqAWDnxROm++6QhQySFUIMt9VKNRb9sq+Da5C/ArimVBu0vubKDu20gyfFeCNiLGnQWel4DAAAAQKxt2iTdeqs0apR1cJ2bKz3/vPT00+3BdUhc2VLRTCkto+OyQMG1Ka+kaw/stAzjPATXAADABoTXQAgqKipUUVFh9zQAx6IGAftRh0AELF4s7babdNVV0saNvuOTJ0vLl0slvkFzSDWYWdgRYAcTXJvMANsMrjMLgzsOcAjeCwF7UYPOQtsQAAAAAIiFpiZp5kzp9tul1lbf8W23lR5+WDrooMjdZmahNHpW6Cun80poFQIAAGxHeA0AAAAA0TZ/vjRlivTNN75jqanSRRcZwXa/fpG/7XADaIJrAABgM9qGAACA+NJSH9vjACCafvtNOvdcab/9rIPrnXaSFiyQ7rwzOsE1AABAAiO8BgAA8aOxUloyTaotC+242jLjuMbK6MwLAMLx6qtGOP3Pf/qO9e4tXX+90f96991jPjUAAIBEQHgNAADiQ2OltGKG1NokVc8NPsCuLTOu39pkHE+ADcBuv/4qnXqqdOSRUk2N7/juuxuh9XXXSS5X7OcHAACQIFI8Ho/H7kkgeRQXF8vtdis3N1fl5eV2TyfimpubJUnp6ek2zwRwJmowibXUGyunW5u6Xl4wydg0zB8zuO4sLSO8zckQFOoQCMDjkZ58UvrLX6T//c93vG9f6aabpAsukNLSwroJahCwH3UI2IsadBY2bARCwA9GwF7UYBJzZUv5E32DaPN7qwDbKriWjPMQXEcNdQj4sXKldM45RqsQK//3f9LDD0t/+EOPboYaBOxHHQL2ogadhbYhQAiam5vb/8IHIPaowSSXV2KstPZm1ULEX3Dd3Upt9Bh1CHhpa5MeesjobW0VXGdlSXPnSm+91ePgWqIGgXhAHQL2ogadhfAaCEFVVZWqqqrsngbgWNSgAwQTYBNc24o6BDr573+lAw4wVlw3NvqOH3+8tHy59Oc/SykpEblJahCwH3UI2IsadBbahgAAgPhiBtBWLURWvSC1rPE9huAaQCxt3izdeaex4eLGjb7jQ4ZIDzxghNcAAAAIG+E1AACIP/4CbIJrAHZbskSaPFlavNh6fNIk6Y47pGx67wMAAPQUbUMAAEB88tdCpDOCayA0LfWxPS6ZNDdL11wj7bqrdXC9zTZGX+s5cwiuAQAAIoTwGgAAxK+8EsmVYz3myiG4BkLRWCktmea7AWp3asuM4xorozOvRPDxx9Lo0dLNN0utrV3HUlKkiy6Sli6VDj7YjtkBAAAkLcJrAAAQv2rLrFuFSMbloYZwgFM1VkorZkitTV03QO2OuUFqa5NxvNMC7MZG6fzzpX32kaw2hhoxQlqwQLrrLqlfv9jPDwAAIMmleDwej92TQPIoLi6W2+1Wbm6uysvL7Z4OACCRmaFZd2gdAgTWUm+snG5t6np5d7VjVYNpGdLoWZLLAW0xXn9dmjZNWrnSd6x3b+nqq6WrrpL69In93AAAAByCldcAACD++AuurVqIhLKKFHAiV7aUP9H38kC1468G8ycmf3C9erV0+unSEUdYB9e77Wb0vL7+evuCa3qXAwAAhyC8BkLQ0NCghoYGu6cBOBY16BD+QrOCSVLxPOtNHAmwY4Y6TFD+NkC1qp1ANZjMn3LweKSnnpKKiqTHH/cdz8iQ/vEPo03IzjvHfn6/a6hdoobPr6R3OWAj3gsBe1GDztLL7gkAiaS6ulqSlJWVZe9EAIeiBh0gmNDM/L/39czvkzlciwPUYQILpnacGlz//LN07rnSSy9Zjx94oPTII9K228Z2Xt4aK1W97G3Js42yQvmZ1/l5XTFDKpopZRZGb55AkuO9ELAXNegsrLwGAADxIZTQLJRVpAA6BKqd8jOcF1y3tUkPP2xsvGgVXA8cKM2ZI73zjv3BdUu9ETx7NndcFszPPO+frebmm7QQAQAACYDwGgAA2K+lXqop9b08UGjmL4SrKSWUAQLxVzsta3wvS+bg+ttvpYMOMjZl/O033/GSEmn5cmnSJCklJfbz80bvcgAA4ECE1wAAwH6ubONj7GkZHZcFE5p5h3BpGcZ5CGWAwPwF2J0la3C9ebN0++3SyJHSBx/4jg8ZIj37rPT881JeXtcxuzdKzCuR+hf5Xk7vcgAAkKQIrwEAQHzILOwIsEMJV8wQzgyu6eMKBCevRHLlWI+5cpIz4KyokPbYQ7r8cqm52Xf8zDON1dbHH+871lhpbHho90aJ/f7QfYBNcA0AAJIEGzYCIUhPT7d7CoCjUYMOkFkojZ4V+srpvBJp0P6suI4B6jCJ1JZZtwqRjMtry5In6Gxulm68Ufr7342V19622UaaNUs65BDr4xsrjT7RrU2hbQ4bhY0S09PTpfQiKXOS9eabq15wXgsYIJJa6rv9fcLyvTCI4wBEBr+POkuKx+Px2D0JJI/i4mK53W7l5uaqvLzc7ukAAAAkpnBDkGCP87cy11syBJ6ffCJNmSJVWqx8TkmR/vIXI9ju39/6+JZ6Y+V0a1PXy7t7bKwe47SM8P5AF8ptWEmG5xGIBfMPVfkTQ6uZ2jJjzw0+AQYAEUfbEAAAACCeRLs9hb/A06qFSKDNAONdY6N0wQXSPvtYB9dFRUawfffd/oNrKb43SnRy73Ig0rw/YRHszz6z3lubjOMj1SIIACCJ8BoIidvtltvttnsagGNRg4D9qMMoi3Z4EqgXcvE86yA0EQPsN96Qdt5Zuv9+yfuDpr16SdOnS19+KY0fH9z5/IXENmyU6FODTuxdDkRaS33Hz15TgJ997XXoXe/mz+BIbdIKwBK/jzoL4TUQgrq6OtXV1dk9DcCxqEHAftRhFIUYnrQLNjwJJlQNJaSNR6tXS6efLh1+uPTTT77ju+4qlZdLM2dKffqEdu5gHpsYbJToU4PB9C4HEFiIn7Coq6tT3fefxuYTFgB88PuosxBeAwAAAPEgmu0pQglVEzHA9nikp582WoE8/rjveEaGdMcd0sKF0i67hH87gR6b8jOiHlz7CKbndTw/b0A8CeVn3/ofpHUrfK9Lmx4AiDjCawAAACBeRKM9RUu9sZFYd9cLZh41pfH3cfiff5aOPVaaMEH69Vff8QMOkL7+WrrkEqNlSE/5e2ysVj/bEVwnW+9yIJaC/YQFwTUAxAzhNQAAABBPIt2ewpUtFc2U0jICX6+7eaRlGOeJl4/DezzSI49II0ZIL73kOz5ggDH+7rvSdttF9rbt3ihx/Q/O6F0O2CHePmEBAA5HeA0AAADEm0iHJ5mFHQF2KCGLOQ8zuM4sDP4+RNO330oHHSSddZb022++48ccIy1fLk2ZIqWkRGcOdm2UGEy7gkRs/QLEk3j5hAUAQBH43BzgHFlZWXZPAXA0ahCwH3UYQ2YY4h1UhxueZBZKo2eFvnI6r0QatH98rLjevFm6+25pxgypqcl3fPBg6f77pRNOiF5obQpmo8RIB1q1Zcpq/sT3X3H+epdLvq8f83vCNiAwfzUkKavXauMLgmvAFvw+6iwpHo/HY/ckkDyKi4vldruVm5ur8vJyu6cDAACQ+LrblM8p4clXX0mTJ0tffGE9fvrp0j/+IW2xRfTnEsxGiVJkn5uWemnJNKnVK7Tv7jas5pqWEd4fMgAnKj/D+g9VrhyjTQ8AIKpoGwIAAADEM7vaU8SLjRul6dOl4mLr4HrYMOmNN6R58+wNrqO9UWKy9i4H4lkwn7AAAEQV4TUQgurqalVXV9s9DcCxqEHAftShDZwcnixYII0ZI914o9EypLOUFOmCC6SlS6VDD43NfAJtlBmLjRIzC1U98GJVb9w5OXqXA/EswCcsqpuGq7ppOH3kAZvw+6izEF4DIWhoaFBDQ4Pd0wAcixoE7Ecdxlgw7SmSMTxZt076y1+kvfeWVlhsTlhYKH38sXTvvVJmZmzmFCi4juFGiQ3NGWoYWBL6ivu8EqNVCME10L1uPmHRsHkLNWz+/ZMeyfgzGIhz/D7qLITXAAAAQDyyqz2F3d58U9p5Z+m++yTv7Xl69ZKuvVb68ktpzz1jN6dggmtTDAJspfYJ7zhahQDds/sTFgCALgivAQAAgHjjxPBkzRrpzDOlww6TrD4KbPa8/tvfpPT02M2rpV6qKfW9PFDbDn8Bdk2pcT4A8SnYT1j0L/K9TqL/DAaAOEV4DQAAAMSTOGlPETMej/TMM1JRkbHporf0dOm226RPP5VGjYr9/NgoEXCGUD5h0e8PBNgAECOE1wAAAEC8iLf2FNFWWysdd5x00knSL7/4ju+3n/TVV9JllxktQ+ySWdgRYLNRIpB8wvmERb8/8AkLAIgBG38DBBLPkCFD7J4C4GjUIGA/6jCKwm1PIfkG3jWl0qD943eVr8cjzZkjXXqptHat7/iAAdLtt0tTpkipcbLeJrPQ2PAw1Mc0rySizwU1CESB+QmLFTOk1ibjsgA/e9vrMPf3T4OYP4P5hAUQE7wXOkuKx+O9CwoQvuLiYrndbuXm5qq8vNzu6QAAACSWxsqgw5MuOq/YjvdVvt99J511lvTee9bjRx4p/fOfUn5+bOcFAObP4PyJwX/CQjJ+BteUxvfPXgBIUITXiCjCawAAgB5K1vCktVW6+25p+nSpqcl3fMstpXvvlSZMkFJSYj49AJBkfAomnJXT4R4HAAiItiFACKqqqiRJw4cPt3kmgDNRg4CNfv9Hech1yD/mQxcn7Ski6uuvpcmTpc8/tx4/7TTprrukQYNiO68ExHshEGVB/Ay1rMN4/NkLJCneC52F8NpCa2urqqqqVFFR0f7fihUrtGnTJknS+PHj9eyzzwZ1rqFDh4Y9jxNPPFF333132MdL0sqVK7XHHnuEdMw222yjTz75pEe3m6yam5vtngLgaNQgYJNOK4Gbm7cN/rh4Xwkcz8INQeItPNm4Ubr5ZuO/zZt9x7feWpo1Szr88NjPLUHxXgjYjzoE7EUNOgvhtZc33nhD559/vpqsPsoYY4MHD7Z7CgAAwOk692Cunit5Jkv9/tD9cZ17MK+YQYDtRAsXGqutV6ywHj/vPOmWW6TMzNjOCwAAAAmD8NrL2rVrIxpcn3nmmUFft6qqSgsXLmz//rjjjovYPCSpf//+OuGEE7q93hZbbBHR2wUAAAmqpb7r5oGStM4MIkf5P65zcC0Zx6+YEV4rDCSedeuka681+ldbba8zfLg0e7a0996xnxsAAAASCuG1H1tuuaVGjRql0aNHa9SoUfrggw80Z86ckM9z0003BX3ds846q/3rkSNHqrAwsquTsrKyQpoPAABwOFe2sWlg5yBaMgLsWo/1ZoLewbUpfyLBtRO8/bZ01lnSjz/6jqWlSVdcYWzYmJ4e86kBAAAg8RBeeznggAO0aNEin17VX375ZVRvt6GhQe+880779yeeeGJUbw8AACAoZkDtHUib33cOsP0F1wWTrINuJI81a6RLLpEee8x6fOxYY7X1mDExnRYAAAASG+G1F7v6TL/44ovauHGjJKl3794qKeEfePGooKDA7ikAjkYNAjbpFGAXpFd1XN45wCa4dq7nnjP6V9fV+Y6lp0s33CBdfLHUi396RALvhYD9qEPAXtSgs/AbZJx45pln2r8+6KCDlJOTY+Ns4E9WVpbdUwAcjRoEbPR7AJ1ltQJ71QtSyxrfYwiuk9uqVdL550vPP289vu++0iOPSDvuGNt5JTneCwH7UYeAvahBZ0m1ewKQvvvuuy5tSWgZAgAA4lJeiRFIeyO4dhaPR5o7Vxoxwjq4zsyUHnpIev99gmsAAAD0CCuv40DnVdc5OTk66KCDonI7mzdv1vz581VRUaE1a9aoT58+ysnJad+Ysk+fPlG53WRSUVEhSRo1apTNMwGciRoE7Ffx67aSZ7JGpQTYyJrgOnl9/700bZrUaa+WLo48UvrnP6X8/NjOy0F4LwTsRx0C9qIGnYXw2mZtbW167rnn2r8vKSlR7969o3JbbrdbEydOtBzLysrS6aefrvPPP1/9+vXr8W21tbWptrY24HXy8vJ6fDsAAMAG/f4gbc6xXnHtyiG4TkatrdK990rXXitt2OA7PmiQdN990oQJUkpK7OcHAACApER4bbNPPvmkS8hrV8uQhoYG3XvvvXr11Vf16KOParvttuvR+X755ReNGzcu4HVee+01n8vMv5o1NDSourraZzw9PV3Dhw+XZITxdRYbA2VlZbU376+urlZDQ4PPdYYMGaLc3FxJUlVVlZqbm32uU1BQ0N5Hyfyr3urVq7t8P3z4cKWnp6u5uVlVVVU+50iE++SN+8R9iuf7ZEqm+5SMzxP3Kbnv0+rVq6VNv6kipVBZvVarIMM4f3XTcDVs3sI4eMELRsCdIPeps2R5niJ5n9K//Vb5N9ygfl9/bTnH+iOO0M+XXabW7GwN37gxIe6TKRGfJ1My3adkfJ64T8l9nzr/uzBZ7lNn3CfuUyLcp40bN1qeJ5Hvk/fzxMpyA+G1zZ599tn2r4uKijRy5MiI30b//v11xBFHaP/999fOO++srbbaSr169dL//vc/LV68WP/+97/10UcfSTL6b5922ml65ZVXtMUWW0R8LgAAIMFt+k3aVC+5Alxn3Qrj/78H2EhMKZs2afCcORo8e7ZSN2/2GW8ZMkQ111yjxn33tWF2AAAAcIIUj8fjsXsSieDOO+/UP/7xD0nS+PHju4TO4Vq/fr1Gjx6tDb9/9HL69Ok6++yze3zezjZu3KjNmzd32wrk3//+t6688kqZL4eJEyfqjjvuCPn2iouL5Xa7NXjwYL366qsBr5uIbUPoqwTYixoEbFZbpoqllZKkUZkLOi53+WkhQu/rxPXZZ9KUKdLSpdbj554r3XKLNGBAbOcF3guBOEAdAvaiBp0l1e4JONmrr77aHlz36tVLxx13XMRvo0+fPkH1sD7ttNN0/vnnt3//9NNP69dffw37dlNTU5WXlxfwPwAAkEBqy6Tqub6XF0ySiucZ//dWPdc4Dolj/Xrp4oul8eOtg+sdd5Q+/FB64AGCawAAAEQdbUNs1Hn19n777afBgwfbOBvpggsu0COPPKLm5ma1trZq/vz5Ov74422dU7wx+yYBsAc1CNikU3A9vO+XHZd3Xllt/t874Da/ZwV2/Hv3XWnqVOmHH3zH0tKkyy+XZsyQ0tNjPze0470QsB91CNiLGnQWwmub/Pzzz1qwoOPjtnZt1NhZv379NGbMGC1cuFCS9M0339g8o/iTzj/WAFtRg4ANvFZcp6c1GV9YtQQhwE5M9fXSpZdKcy1W1kvSmDHSnDnG/2E73gsB+1GHgL2oQWehbYhNnn322fb+0llZWTrkkENsnpGh8w7ma9ZY9K50uObmZssdZgHEBjUIxFhLvVRT2uWi5tYMNW8VoJd1Xol1C5GaUuN8iC/PPy+NGGEdXPfpI916q9H/muA6bkT9vTDcOqW+4SD8TgrYixp0FsJrm3RuGXL00UerT58+Ns6mg9mDW5L69u1r40ziU1VVlaqqquyeBuBY1CAQY65sqWimlJbRflFV6imqWrtt4OO8A+y0DOM8ruwoTRQhc7ulE06Qjj/e+NrbPvtIFRXSFVdIvXvHfn7wK6rvhY2V0pJpofeqry0zjmusjM68gDjD76SAvahBZyG8tkF5ebm+//779u/joWWIaWmnjXlyc3NtnAkAAIgLmYUdAXbBJKnfH4I7zgywzeA6szC680RwPB7psceM1dbPPec7npkpPfig9MEHEv0knaWxUloxQ2ptCn6z1Zb6jtZCrU3G8cEE2KzSBgAAQSK8tsEzzzzT/vX222+vsWPH2jibDvPnz1dtbW379+PHj7dxNgAAIG5kFkqjZ4XeszqvxDiO4Do+/PCDdOih0p//bPS59nbEEdKyZdI550ip/DPBUVrqO4JrU3cBdmOl9OmRUtVNHZeZAXagcJpV2gAAIAT8VhpjGzdu1Msvv9z+fTRXXbe0tKilpSWo665evVpXXXVV+/c77LCDRo4cGa2pAQCARBNuyw9ahdivtVW65x5p552lt9/2Hd9iC+mJJ6RXXpG23jr284P9XNlS/kTfy/0F2I2V0peTpXXfSk0rpeZVHWP5E/3XfTirtAEAgKMRXsfYW2+9pYaGBklSamqqjjvuuLDOs/vuu2vo0KEaOnSoLrroIsvr1NXVac8999SDDz6ompoay+t4PB698847OuKII/Tjjz9KklJSUjR9+nSlsuIGAAAgsS1fLu29t3TRRVKnvU3anXKKtGKF8f+UlJhPD3HE32ar3gF2S31HcG0yA+yCAJu5msG1KZhV2gAAwPF62T2BePSnP/1Jbq+Na3799df2rysqKnTwwQf7HPf444932ye680aNe++9t/Ly8no428BWrVqlm266STfddJO23nprFRYWKicnR7169dKaNWv05Zdf+tzXa6+9VgcddFBU5wUAAIAoammRbr1VuvFGadMm3/GhQ6WHHpKOPDL2c0P8MoPnziFz5+/zSqT/fSC1bvQ9NtAfP7yDa1OgVdoAAAAivLb03//+1+9KZUnasGGDli9f7nP5Jqt/GHTyv//9Tx988EH79yeddFLYcwzHypUrtXLlSr/jubm5uuWWW3TIIYfEcFaJZdSoUXZPAXA0ahCwH3WYABYtkiZPljptxN3F2WcbwfbAgbGdFyIi6jUYKMBe9YLUskZK38q4rOn3f1v0HSb1ye0acpv8BdeBVmkDcY73QsBe1KCzEF7H0PPPP6/NmzdLkjIzM3XYYYdF9fby8/P17rvvqry8XF988YX++9//as2aNaqvr1dTU5P69++vIUOGaNSoUTrggAN0+OGHq3fv3lGdEwAAAKJk/Xppxgzp7rultjbf8e23l2bPlvbbL+ZTQ4LxF2C3rOn42gywU1KM4NrUOcAmuAYAAD2U4vF4PHZPAsmjuLhYbrdbubm5Ki8vt3s6EWf2K8/KyrJ1HoBTUYOA/ajDOPXee9LUqdL33/uOpaVJl14qXXedlJER+7khomJag/7CZ5PZI9vqOq6crmF352MIrpHgeC8E7EUNOgsrr4EQVFdXS+IHJGAXahCwH3UYZxoapMsuM1ZUWxk1SpozRyoujum0ED0xrcG8ko5WId5cOV1D6ECrtE0E10gSvBcC9qIGnSXV7gkAAAAACMMLL0gjRlgH1336SDfdJH3+ec+C65b62B6H+FJbZh1CS8bltWXG13klHauw/SG4BgAAYSC8BgAAABJJXZ100klSSYm0apXv+F57SUuWSFdfLfVkP5PGSmnJtI6AMli1ZcZxjZXh3zbs113LEMkY7xxgu3Ksr+e9ShsAACBIhNcAAABAIvB4pHnzpKIi6ZlnfMf795fuv1+aP18qLOzZbTVWSitmSK1NXQPK7piBZ2uTcTwBdmLyF1xbhdPm6yPYVdoAAAAhILwGAAAA4t2PP0qHHSadeaZUb9GS47DDpGXLpPPOk1J7+Ct+S31HcG0KJsD2DjzNAJsWIonFX3BdMEkqnmfdHqTqJum/Nwc+byh/BAEAAPhdTMPrmTNn6ttvv43lTQIRlZ6ervT0dLunATgWNQjYjzqMsdZW6b77pJ13lt56y3c8J0d6/HHptdekYcMic5uubCl/ou/lgcJHf4Fn/kTjfIiYqNZgoODabPvh3d+6eZXUtFLa8JO00d1xeaBV2kCC470QsBc16CwpHo/HE6sby8/PV0pKioqLi3XKKafoqKOOUkZGRqxuHjFQXFwst9ut3NxclZeX2z0dAACAxLV8uTRlirRwofX4ySdL99wjDR4cndsPJsgM5XqIb6E+j7VlxorrppVdL+87TNrxauMYXhsAAKCHbGkbUl5erksuuURjx47VlVdeqYqKCjumAQAAAMSflhbpxhulMWOsg+u8POnFF6XS0ugF15LvCltT59WzhJPJoaVeqin1vby75zElxeIylzRof+PrYF5DAAAAAcQ0vD7++OOVnp4uj8cjj8ejxsZGPfHEEzryyCN18MEH67HHHtPatWtjOSUgJG63W263u/srAogKahCwH3UYZV98IY0bJ02fboTY3qZNM1ZkH310bOYTKHwsPyM5gutwe3Lb1Ms7KjXoypaKZkppnT4VG+h5NP9o0SfXWGlt6re9NHZO11YxBNhIQrwXAvaiBp0lpuH1Pffcoy+//FK33HKLRo8eLUntQXZlZaWmT5+usWPH6oILLtCCBQtiOTUgKHV1daqrq7N7GoBjUYOIqQQLtGKFOoySDRukyy6Tdt9d+uor3/HttpPef1966CFp4MDYzs1f+NiyxveyRAuuGyulJdNCD1Fry4zjGiujM68AolaDmYUdAXag59F7lbYZYJvBdWah7zH+XkM1pUn/MxPJifdCwF7UoLPEvG1I//799ac//UmvvPKK3nnnHU2aNEnZ2dntIfbGjRv1wgsvaMKECdprr710//3365dffon1NAEAgJMlYKCFBPb++9Iuu0h33CG1tXUdS001Qu2vvpL239+W6UnyHz52lojB9YoZUmtTaKuAzVXHrU3G8clU75mF0uhZgZ9Hq1XaO14tjX/FOrg2eb+G0jKM87ChJwAACMCWntemwsJCzZw5U4sXL9aDDz6o/fbbT6mpqe1B9k8//aS///3v2m233TRp0iS9/fbbavP+hR4AACCSCLQQK2vXGm1ADjxQ+u473/FddpE++0y67Tapb9/Yz89bXonkyrEec+UkVnDdUt9R56Zg6t27x7dZ78m0ejiYMNlqlXYwx5kBthlcBwq7AQAAZHN4berdu7eOPvpoPfHEE1q4cKEuvvhi5efnt4fYmzdv1ttvv61JkyZp3Lhx+vvf/67q6mq7pw0AAJINgRZi5aWXpBEjpIcf9h1zuYwNG7/4Qtp119jPzZ/aMutWIZJxeSL1L3ZlS/kTfS8PVO/+NqfMn+jM1cPBrNK2kldiHEdwDQAAghAX4XVnQ4cO1cUXX6xPP/1U//nPf3T00UerT58+7UF2XV2d7r//fu2zzz6aMGGCXn31VbW2tto9bQAAkAwItBBtv/winXyydMwxUm2t7/iee0pLlkjXXCP17h3z6fnl73XeWaJtwBfKRoL+7n+itUqJtHB/xvGzEQAABKmX3RMIZLfddlNdXZ2+++47LVu2TCkpKZI6NnlcsGCBFixYoK233lqXXXaZSkoc/IsjYiIrK8vuKQCORg0iJswgyjuoMr/vHFQ5MNCiDsPk8Uj//rd00UXSGovVy/36SbfeKp17rtHnOp74e527cnxXYlvVSTwLpt7jrM6pQcB+1CFgL2rQWVI8Ho/H7kl4q6ioUGlpqV566SU1Nja2X+7xeORyuTRu3DgtWbJE69evbx9LSUnRUUcdpQceeKA95EbsFRcXy+12Kzc3V+Xl5XZPBwCA8HUXWMVZoIU4Vl0tnX229MYb1uOHHirNmiUVFMR2XsFwSh2EEtBLiXf/AAAAElTcrLxuaGjQc889p9LSUlVVVUkywmrTH/7wB5166qk66aSTlJOTo6amJr344ot69NFHtWzZMnk8Hr388svaddddNWlSNzuhAwAAdCfQisxVLxBooXttbdI//yldeaW0bp3veE6OdPfd0mmnSfG4+CKYYDqUTyrEM3/3gzoHAACwle0rr+fPn6/S0lK99dZbamlpkdQRWvfp00eHH364Tj31VI0fP97vOebOnasZM2YoJSVFRUVFeuutt2Iyd/hK9pXX5kahBfG4MgpwAGoQtgim16/kmECLOgxSZaU0ZYr0ySfW4yedJN17rzRkSGznFaxQV1Qn+wpsUxzcH2oQsB91CNiLGnQWW1Ze//zzz3rqqaf09NNP6+eff5bUdZX19ttvr1NOOUUnnniisrO738xj0qRJevnll/X555/r+++/j9q8gYaGBkn8gATsQg3CFv5WZHYWB4FWrFCH3di0Sbr9dumGG6TfF2Z0kZcnPfigsWFjvGqpl2pKfS8P9Dr3Vyc1pdKg/RNng768Ev+frHDlxEWdU4OA/ahDwF7UoLPENLx+8cUX9dRTT+njjz9uD6s7r7L+4x//qNNOO0277bZbyOcuKirS559/ro0bN0Z0zgAAAIkQaCEOlJdLkydLFRXW41OnSrfdJsX7JkOubKloprRihtTaZFwWzB9ovAPstAzjPIkSXEvGymurOpeMy2vLqHcAAIAYiml4fd555yklJaXLKuvhw4frlFNO0QknnKCBAweGfe7evXtHYooAAAC+CLRC11IfXmgZ7nF2amqSrr9euuMOo8+1t+22kx55RDrggJhPLWyZhR0Bdv7E4F/f5vVqSo3jMwujN8dIC6ZFUKL18gYAAEhwMW8b4vF4lJ6erqOOOkqnnnqqdt1114ict6SkRDvttFNEzgUAANCOQCt0jZWhh56S8VgnWuj5wQfGiupvv/UdS02VLr7YaCHSt2/Mp9ZjmYXS6Fmh/zEhrySxWoVI/uvcleP7hyvqHQAAIGZiGl4XFf0/e/ce31R9/3H8XQqlXKoFudSCq6L+KBcFjRfw7jadU+fsvNZ5m6ioQwWHt6mozAtziniZigIbc45NnFW83zYn3rVIJ1LqZVrBkiLQSIGWlja/P47pJTlJc9Ik3yTn9Xw8fNjkXPJJ209L3/nmc0bpl7/8pX7xi19ohx12iOu5x48fr/Hjx8f1nAAAwOUItJwLBNctDc4+Jx0/15UzUj/A/u476eqrpblz7bfvtZc0f760//7JrSvenATQHVfNx3qcCV1dbNJuO/0OAACQFEkNr1955ZVkPhwQd0OHDjVdAuBq9CCSikDLVsQ+bKrrPCdZiu5zEvy5bGmwzhPLqt9keOYZ6eKLpe8vPN5JTo50ww3SVVdZH7tFuq6276rPpfAXozTU7/wuBMyjDwGz6EF3yfJ3HEANdJPH45HX61VBQYHKy8tNlwMAQGyiCbSc7OcmTj8n6fQ5XLdOuvxy6e9/t98+caI0b540enRy6zKt42p7KfqvXcevfeDijskMsDP5exUAACBD9DBdAAAAQEpxElAVllj3B6teYJ3HjZx8TtIlDPT7pcces0Jpu+C6Xz/pnnukpUvdF1yHW23f1fd/uNX2TXWJqTNYU5214jtYpO+9cN/baxYlr24AAACXIbwGHKiqqlJVVZXpMgDXogeRcARaXYqqD6MJsNMluP76a+n446Uzz5Q2bAjdfvTR0ooV0mWXSdnZya/PtJwB1qiQYJEC7HBf++GlyRsTkzPAWumd3af9vmi+94K/twMrxpM43obfhYB59CFgFj3oLoTXgAONjY1qbGw0XQbgWvQgEi6NA61kiboPIwXY5eekfnDd2io98IA0Zoz0/POh2wcMkP78Z+nFF6Vdd012daklXVfb5xW397uTxw88XxOjTsTvQiAV0IeAWfSguyT1go0AAAApLxBoOb34XGA/kxefSzXhLnTXtDF031QKrquqpPPPl9580377KadI990ncbGgdtFc1DCVguuAvOLYLgxaWCINOiIjX6ACAABIJYTXAAAAwQi04idcqNlRqgTXzc3SnXdKN98sbdsWun3nnaU//lEqSYFaU1GkAHvtU6n7okWs/UqfAwAAJBxjQwAAAOwQaMVPYYmUM9B+W85A8+GlJC1bJh1wgPTb39oH1+efL61cSXDdlXAjRFI1uAYAAEBKI7wGAABAYtWU2YeXknV/uAv7JUNDg3TNNVZwvXx56PYRI6RXX5UeeUTKz092dekpXIDdEcE1AAAAosDYEMCBoqIi0yUArkYPAnHWVOd4pXhRUZHUvCn6A8LNOe6o41zkZHrjDWtF9WefhW7r0UOaOlWaOVPq1y+5dWWCwpLwo0JSZbV9muJ3IWAefQiYRQ+6CyuvAQfy8/OVz6orwBh6EIij+lXS8smOVz3nb/238r+cbh3flXDBtd0IkeoFyVuBvWmTdPHF0uGH2wfXY8dK77wj3XUXwXWsUnm1fZrjdyFgHn0ImEUPugvhNQAAgNvUr5IqZ0gtDc5C40AY3dJgHR8pwA4XXBedJ3kW2o+VSEaA/eyz0pgx0kMPhW7r1cu6WGN5uTVGBLGJdrU9ATYAAAC6QHgNOFBRUaGKigrTZQCuRQ8CcdBU1x5cB0QTJH4fSFbUH6SK+oPaA+ymurD7hug45zjcXOREhZrffiudcYb0s59Ja9aEbj/wQOmjj6QZM6ScnPg/vluk6mr7DMLvQsA8+hAwix50F8JrAAAAN8kZIA0vDb0/UpAYLpAcXho6Mzua4DogGQG23y899pg0apS0aFHo9r59pbvvlt56y1qRjdil6mp7AAAApC3CawAAALdxEho7CaOb6qQ1NgGx3b5d1bJmkf2qbidWr5aOP14680xpw4bQ7T/+sbRihXVhxuzs7j2W26XiansAAACkPcJrAAAAN4omSAwXSPYfZR9G5wyQRs2Usvu03xcpuA5XS3Yf6zzBq7qj1doqPfigtZL6+edDt+fnSwsWSC+/LO22W2yPgXapttoeAAAAGYPwGgAAwK0iBYnl54QPrvtFCHzzitsD7GiC6+BaAsF1XnF0xwWrqpKOOEK65BKpvj50+0knSStXSr/6lZSVFdtjoF2qrbYHAABARiG8BgAAcLNwQWLTxtD7is6LHFwH5BVL4+dGH1wHAsvCEuu4aIPrjkFnc7M0a5Y0bpy0dGnovkOHSk88Yf23887RnR9dS5XV9gAAAMhIWX6/32+6CGQOj8cjr9ergoIClZeXmy4n7hobGyVJubm5hisB3IkeBBIo3OiHgO8Dybj3Yf0qqXKGdfHHaMNuyap3zSIr8Py8QZo0SfroI/t9zztPuvNOaQDBaMLE4+sY62p7l+F3IWAefQiYRQ+6C+E14irTw2sAADJa+Tn2K65zBkqehfF/vEDg2dJg3Y52zEggaN/WIv3pS+mxz6SWltD9dt1VeuQR68KMSLymuthWTsd6HAAAADIeY0MABxobG9te4QOQfPQgkEA1ZfbBtWTd//3F9OLWh011nYNrKbqL9gWC6+UbpHPekP6yKjS4zsqSpk6VVqwguE6mWANogmtH+F0ImEcfAmbRg+5CeA04UFVVpaqqKtNlAK5FDwIJ0tXIEKktWI5bH+YMsEZMhHmcsHWunCvd+bF0yTvS11tC9xk9Wnr7benuu6V+/bpfZySxXlyQixKiG/hdCJhHHwJm0YPuQngNAADgZuGC65yBofdVL5C2fBm/xw53sUi7ALumTFp0u/TL/0hPVoce06uXdOON0rJl0oQJ8asxnPpV0vLJXa8UD1ZTZh1XvyoxdQEAAAAZhPAaAADArcIF10XnWTOu7YLlzZXJD7BXLJR+dak0/QNpnc1bRA84wAqtb7pJ6t07frWF03FWdzSjTgICn++WBut4AmwAAAAgIsJrAAAAN4oUXAcumhguWN5c6XzFcSThHuer+dJth0mHXii9/E3o9r59pdmzrTEhY8fGr55IujurOyAQYDNCBAAAAAirp+kCAAAAkGTRBNcBgdvB+wduB+8fq+DHWdcg3blCerPWfv8f/Uh6+GFpxIj4PH60ArO6nXw+wn2+h5dysUIA6aepLrafXbEeBwBwNVZeAwBSGxdEA+KrqU5asyj0frvgOiDcyug1i+Lba4Ul0i7nSk9VS2f8xz643qGvNH++9MoryQ+uA5zO6o72hQIASHXM+wcAJFmW3+/3my4CmcPj8cjr9aqgoEDl5eWmywGQ7gJzZYeXOgt5asqsUG3UTCmvOHH1Aemq48xmKfogtWMQm90n/j322WfSBRdI//mP/fYjfyD99R2psDB+j9kdXQXTBNcAMkmq/u4AAGQ0Vl4DAFITF0QDEiev2AoPsvs4C1IDK47jHT5s3y7dcYe09972wfXA3tKtHunWvSW9lzrvyIi0Arv8HIJrAJmDef8AAENYeY24yvSV1z6fT5KUn59vtA4g4zXVWW8t7fgHkiTfoPOkwUeG70G7VY7ZfaTxc5mxCNiJYf6oz+eTmjcpf/AP4lNDRYV03nnSsmX2248dLl02Wtohx7q9fbPkb5L2mJ4678gIt8I6GME14oB/j8IYp+8myeB3n9CHgFn0oLuw8hpwoLq6WtXV1abLADJf4IJoQaq/XKXqla/bH8MF0ZBOUmXlcAy9UV1dreqaONTR2Chdd5203372wfXOfaS7D5Rm/rBzcL25Str8ufTpbanzjoxwK7A7yoCwBqmBf4/CGOb9t6EPAbPoQXchvAYApKZwfyBtrnTdH0jIMFzsSnrrLWn8eOm226yRIR1lSTp1N+nRw6VTr5Y8C61ebm2ygmt/i7Xf1q+jC7CT9Zb1whIpZ6D9tpyB/CwCkBmiCbD5dxkAII4IrwEAqYs/kJBp3D7Lvb5euvRS6dBDpaqq0O279ZceOliaOkYadWF7DxeWSLtdJOUGXaixqwA7me/IqCmTmjbab2va6PzFCgBIVcz7BwAkUU/TBQAAEFHgD53gP4SqF0hrn7IPi/gDCako3MWupMjfr+FWDqfbLPcXXpAmT5ZWrw7dlp0lnbOHdPYeUk62fQ8HblfdKjV0OEcgwO64j5TcF7aimXkdzdcaANJFuH+f8e8yAECcsfIaAJD6wq3w4Q8kpJMws9wjrsDOhFnuGzZIZ58tHXusfXA9akfpz4dK548MH1wHFJZII6+T+uzS+f6Gb6Sv5pp5R0a4x7IbIeJktT0ApDrm/QMAkoCV14ADubm5pksA3KuwRLk1ZZLP5sJuAfyBhFQX6Z0EHbdLKTsSJ+rfhX6/9Pjj1piQb78N3d6nj3TDZdIRX0hqtO6L5rkFr8DOypbyRkpZvZL/joyuvkZ221mBjW7i36NIKYUl4X/uZvC8f/oQMIsedJcsv9/vN10EMofH45HX61VBQYHKy8tNlwMgE5WfE/4PJM/C5NcDxCKW0LPj9lT3zTfSJZdIS5bYbz/ySOmRR6Tdd2+fAz681NlzqymTPrtTys6RsvtH3tdEcO10PwBIR12NTeJnHQCgmwivEVeE1wASij+QkEkijZtI15E4ra3SvHnSlVdKmzaFbt9xR+muu6TzzpOystrvb6qLbQxKU520/vXk/1xwGkgTYAPIRNHM+5f4WQcA6BZmXgMOeL1eeb1e02UA7lRTJu+nr8i7bZfw+zBPFukkTWe5h/1d+Pnn0o9+ZF2U0S64PvFEaeVKadKkzsG1FPv87pwB1ufFbr60lJi3rDfVSWsWhd7f1axuu6/1mkXW+QAH+PcoUoLL5/3Th4BZ9KC7EF4DDtTW1qq2ttZ0GYD7fP8HUm3TLqpt6hBeu+QPJGSwNLzYVcjvwu3bpT/8QdprL+n110MPGDJEWrxYevJJqbAw/gXVlNkH/pJ1f7x/HuQMkEbNlLL7tN8X7azujl/r7D7WedLlwptIGfx7FMZFejeJZ6H977UM+/cZfQiYRQ+6C+E1ACC18QcSMl2yVw7HU0WFNHGidNVVUmNj6PZzzpEqK6WTTw5dbR0P0bxlPRE/D/KK2wNsJy8uBALsQHCdVxzfugAg0aIZgxTuhVn+fQYAiEFP0wUAABBWtH8gSaH7BW6ncvAHSNGtHE6x7+OspibphhukWbOsldfBioqkuXOln/wkcUU4mRmeiJ8HecXS+LnOV04XlkiDjmDFNYD042R+P/8+AwDECSuvAQCpKdwfSP1H2f+BxAofpCNTK4e7oe/y5fq/006TbrklNLjOypIuu0xascJMcJ3sd2R0Z1Y3AKQT5v0DAAwhvAYApJ5wfyD1HyX1283+GP5AQrpJt4tdbd4sXXaZ9vjVr5T75Zeh24uLpTfflO65R+rfP3F18JZ1AEg+5v0DAAwhvAYcyM/PV35+vukygMwX5g+k/GH7RO5B/kBCukiVlcPReuklacwY6b77lOX3d97Ws6c1QmT5cumggxJbh9O3rKfa5xGIA/49CmOY99+GPgTMogfdJcvvD/4LBIidx+OR1+tVQUGBysvLTZcDIN3Vr5IqZ0jDS53NRqwps1ZcZ8gfSMgw0QawToLaRNmwQbriCukvf7Hfvt9+0vz50t57J76Wpjpp+WSppaHz/V19Puw+j9l9YptXDQCwfh7H8vMz1uMAAK5GeI24IrwGEHf8gYRM4jSQNhVg+/3SE09IU6ZI69aFbs/NlX73O2nqVGvldbIEXtAKBNjRfh46fh4zaOUfAAAAkOkYGwI4UF1drerqatNlAO7SIYB21IME10g16XKxq5oaqaREOvVU2+C6ccIEffPii9L06ckNriXesg6If48CqYA+BMyiB92F8BpwwOfzyefzmS4DcC16EGkt1S925fdL8+ZJo0dLTz8dun2HHaSHH1bVAw9ovckZg3nF1sgPpyvPC0us4wiukeb4XQiYRx8CZtGD7kJ4DQAAkCypunL488+lH/1IuuAC6bvvQrefcIK0cqW1vUcK/PMx1uCed2QAAAAAaSXJ7/UEAABwucDKYadBamGJNOiI+Aaw27dL99wj3XCD1NAQun3wYOn++6VTTpGysuL3uAAAAAAQBcJrAACAZEuFlcP//a80aZL04Yf22886S5o9Wxo0KH6PCQAAAAAOpMD7PgEAAJA027ZJM2ZIHo99cP2DH0gvvCD95S8E1wAAAACMYuU14MDQoUNNlwC4Gj0IdNPbb0vnny9VVtpvnzJFuu02KS8v7Ckyug+b6mJb3R7rcUAMMroHgTRBHwJm0YPuQngNOFBQUGC6BMDV6EEgRps3S9ddJ913n+T3h24fOVKaN0865JAuT5WxfVi/SqqcIQ0vjf5CmpJUUyatWZSYC2kCNjK2B4E0Qh8CZtGD7sLYEAAAgEz28svS2LHSvfeGBtfZ2VaovXx5VMF1xgoE1y0NUvUCK5CORk2ZtX9Lg3V8/arE1gkAAAC4DOE14EBVVZWqqqpMlwG4Fj0IOLBxo3TuudJPfiJVV4du33dfa+b1LbdIublRnzbj+rCprj24DogmwA4E1wGBALupLjF1At/LuB4E0hB9CJhFD7oL4TXgQGNjoxobG02XAbgWPQhEwe+XnnhCGjVKWrgwdHturnTHHdJ770njxzs+fcb1Yc4Aa1RIsEgBdnBwHTC8lNnXSLiM60EgDdGHgFn0oLsw8xoAACBTrF0r/frXUlmY0PWww6zZ1nvumdy6Ul1gxnVwIB243XEGdrjguug8Z7OyAQAAAHSJldcAAADpzu+XFiywVlvbBdd5edJDD0n//jfBdTiFJVYAHazjCmyCawAAACCpWHkNAACQzv73P+nCC6XXXrPffvzx0oMPSsOHJ7eudBRpBfbap6SmjaHHEFwDAAAACcPKawAAgHTU0iLdfbc0dqx9cD1okLRokbRkCcG1E+FWYBNcAwAAAEnHymvAgaKiItMlAK5GDwLfW7FCmjRJev99++1nnmkF24MGxf2hXdGH4VZgd0RwDUNc0YNAiqMPAbPoQXchvAYcyM/PN10C4Gr0IFxv2zbp9tul226TmptDt++yizXb+thjE1aCa/qwsCT8qJCcgQTXMMY1PQikMPoQMIsedBfGhgAAAKSD996TPB7p5pvtg+tf/1r65JOEBteuUlNmH1xL1v01NhfGBAAAABBXhNeAAxUVFaqoqDBdBuBa9CBcacsW6YorpIkTrXA62P/9n/TGG9L990t5eQkvxxV9WFMWeWSIZG0nwIYBruhBIMXRh4BZ9KC7EF4DAACkqldflfbay5pf7fd33padLV17rVRRIR16qJn6MlG44DpnYOh9BNgAAABAQhFeAwAApJq6OuuCjEcdJX35Zej2ffaRPvzQmn2dm5v8+jJVuOC66DzJs9D6fzACbAAAACBhCK8BAABSyZNPSqNHSwtsQtTcXGnWLOn996Xx45NeWkaLFFwHLs5YWEKADQAAACRRT9MFAAAAQJLXK02ZIv3zn/bbDztMeuQRa8Y14iua4DogcDt4/8Dt4P0BAAAAxIzw2kZLS4uqqqraBsBXVFSosrJSzc3NkqSJEyfqiSeeiOpcq1ev1oQJExw9/q677qq33nrLcd3RWLp0qRYvXqxly5bJ6/Wqd+/e2nnnnXX44YertLRUe+yxR0IeFwAAhOH3S3/+s3VRRp8vdHtennTHHdKFF0o9eNNc3DXVSWsWhd5vF1wHhAuw1yySBh0h5QyIa4kAAACAWxFeB3nxxRc1ZcoUNTQ0mC4lrurr63XVVVdpyZIlne5vaGiQz+dTZWWl5s+fr9/85je69NJLDVWZ+kaOHGm6BMDV6EFknC+/tELpV1+1337ccdJDD0nDhye3rggyrg9zBkijZkqVM6SW7//9Fym4DggOsLP7WOchuEaCZVwPAmmIPgTMogfdhfA6yHfffZew4Lp///46+eSTu9xvp512iuvjNjc3a9KkSZ1WcxcXF2vs2LHatm2b3n//fdXW1qq5uVmzZs3S9u3bNW3atLjWkClyuSgWYBQ9iIzR0iLdf7/0299KW7eGbh80SLr3Xun006WsrOTXF0FG9mFecXuAPbw0+tEfgf3WLLKOzytOXI3A9zKyB4E0Qx8CZtGD7kJ4HcbgwYM1btw4jR8/XuPGjdPrr7+u+fPnd+uc+fn5uvXWW+NUYfTmzJnTFlzn5uZq9uzZ+vnPf962vampSXfccYcefPBBSdJdd92lCRMmaOLEiUmvNdU1NjZK4gclYAo9iIzwySfSpEnSe+/Zb//lL6U5c6wAOwVlbB/mFUvj5zpfOV1YwqgQJFXG9iCQRuhDwCx60F0Ir4MceeSRev/99zVs2LBO93/00UeGKuqe9evX6+GHH267fdNNN3UKriUpJydH119/vb755hstWbJEfr9ft99+e8iIEUhVVVWSpHHjxhmuBHAnehBpralJmjVLuuUW6fvraHQyfLg1IuS445JfmwMZ3YexBtAE10iijO5BIE3Qh4BZ9KC7cNWfIEOGDAkJrtPZ4sWLtfX7tyOPGDFCZ555Zth9r7/+evX4/kJQ5eXlWrFiRVJqBAAg473/vuTxSDfeaB9cX3yxtSI7xYNrAAAAAEgmwusM9+KLL7Z9fOqppyorwtzMYcOG6eCDD267/cILLyS0NgAAMt6WLdJvfiNNnCjZvSi8557Sf/4jPfCAtMMOya8PAAAAAFIY4XUGa2xs1LJly9puRzPD+qCDDmr7uOMFHgEAgEOvvSbttZc0e7bU2tp5W3a2dM01UkWFdNhhZuoDAAAAgBTHzOsk2r59u9544w1VVFRo48aN6t27twYOHNh2YcjevXvH9fG++OILtX7/x3JWVpbGjh3b5TF77bVX28efffZZXOsBAMAVfD5p+nQp3IWex4+3tu27bzKrAgAAAIC0Q3idRF6vV6Wlpbbb8vPzdfbZZ2vKlCnq169fXB7viy++aPt40KBBUV2FteO8b5/Ppw0bNminnXaKSz0AgCRrqovtQnKxHgeprEz69a+ltWtDt/XuLd10kzVGpFevpJcGAAAAAOmG8DpF+Hw+3XvvvXruuef0pz/9Sbvvvnu3z1lXV9f28aBBg6I6ZvDgwSHniCW8bm1tVU1NTcR9CgsLHZ/XNK5kC5hFDzpQv0qqnCENL5UKS6I/rqZMWrNIGjVTyitOXH3xkioBvdcrXXqp9MQT9tsPOUSaN08aOTJ+j2kIfQiYRQ8C5tGHgFn0oLsQXidB//79deyxx+qII47Q2LFjtfPOO6tnz55av369li1bpr/+9a9aunSpJGu19Jlnnqlnn3222yuet27d2vZxNKuu7fbreA4n1q1bp/333z/iPs8//3zIfYEfQD6fT9XV1bb1jfz+D3+v16va2tqQffLz81VUVCRJqq6uls/nC9ln6NChKigokCRVVVWpsbExZJ+ioiLl5+dLkioqKmyfw8iRI5Wbm6vGxkZVVVXZ7sNz4jnxnHhOSX9O334l1b0v+feRfKukr57S0BETun5Off+n/PULrOf07jPSgFqpV35qPCe7r9MOzSr49g5peKmq6kdH/3Xa8qW05TNpwAFSr/zuPSe/XwOWLNGw2bOV/d13Ice19O2rtZdfrg2nnKL83FwVfX9/xn7v8Zx4TjwnnhPPiefEc+I58Zx4TjynuDwnQnoL4XWCDRkyRMuWLbMdBVJYWKjCwkIdf/zx+utf/6prrrlGfr9fX3/9tW6//Xbdeeed3Xrsjo2Vk5MT1THBc7ftmtPNmpqaJEX/+QQQX3b/qECQ7Vu+D663t9+3uVLa6JcKIqzA3vKl9N3TUmCahX+7dZ5Bh0s94ntNhrho9kmry6ReDVL1AqnXeVKvEV0ft+VL6/MhWc9vwAExl9Drm2+0y+9+p7x337Xdvungg7Xm+uvVvPPOMT9GKuJ3IWAWvwsB8/hdCJjl8/lUX19vugwkSZbf7/ebLiId3HXXXZo9e7YkaeLEiXoi3NuCu2HWrFm67777JEnZ2dkqLy8PGePhxIMPPqhbbrlFkrTPPvvo2Wef7fKYhoYG7bHHHm23X3jhBe29995RP6bH45HX69WQIUP03HPPRdw3HceGBF5J49UvwAx6MEo1ZVagG6zoPPsRIk73N62pTlo+WWpp6Hx/V/XaPc/sPtL4uc5GiLS0SPffL113nbRlS+j2nXaS7rlHOuMMKSsr+vOmCfoQMIseBMyjDwGz6EF36WG6ALS79NJL28Z2tLS06I033ujW+fr27dv2cbQrqIP363gOJ3r06NG2sjzcfwCABCkssYLcYNULrAC3o3QLriUraB5ucwFku+cXEO55Di91FlyvXGnNr5461T64Pv10a59f/jIjg2sAAAAASCbC6xTSr18/7bPPPm23P/vss26db8CA9j/G169fH9Ux3377bdhzAADSSDQBdjoG1wHJDuibmqTf/U7aZx/JbkzIsGHSkiXSokXSkCHRnRMAAAAAEBEzr1PM0KFD2z7euHFjt861++67t328fv16NTY2dnnhxm+++abt4/z8/G5fNBIAYFAgmA0ObqsXSGufkppsfs+kQ3AdEOn5BbbHI7j+4ANp0iTp44/tt0+eLP3+99KOO0Z3PgAAAABAVFh5nWK2bt3a9nGsIzsCdt99d/XoYX2J/X6/Pvnkky6P+bjDH+Z77rlntx4fAJACwq1QTvfgOiDSCuzyc7oXXG/dKk2fLk2YYB9c77GH9Prr0kMPEVwDAAAAQAIQXqeYFStWtH1cUFDQrXPl5uZq3333bbv9zjvvdHnMux3eCn3wwQd36/EzUW5ubper1wEkDj0Yo3ABb0fpGFwHJCKg//e/pb32ku66S2pt7bytRw/pqquk//5XOvzw2GpOY/QhYBY9CJhHHwJm0YPuwtiQFPLGG2+opqam7fbEiRO7fc5jjjlGH374oSTp8ccf15QpU8Lu+8033+jNN9/sdCw6GzlypOkSAFejB7uhsCT8qJCcgekbXAeEGyHSUTTBtc9nBdOPPGK/fdw4af58yeOJqcxMQB8CZtGDgHn0IWAWPegurLxOoKamJjU1NUW174YNG3Tttde23d5zzz211157dbuGU045pW38yBdffKG//e1vYfe97bbb1NLSIknyeDxxeXwAQIqoKbMPriXr/uCLHKajwhIriLcTTUC/ZIk0Zox9cJ2TI916qzX/2sXBNQAAAAAkE+F1AtXW1uqggw7SAw88oDVr1tju4/f79eqrr+rYY4/VV199JUnKysrSDTfc0Dav2s6BBx6oYcOGadiwYZo6dWrY/QYNGqQLL7yw7fYNN9ygJUuWdNqnublZt912m5566qm2+zoG6Wjn9Xrl9XpNlwG4Fj0Yo3AXLeyoekH6B9ixBvTr1kmnny79/OdSh3dAtTn4YKmiQvrtb6VeveJXb5qiDwGz6EHAPPoQMIsedBfGhtg466yzQprg22+/bfu4oqJCRx11VMhxjz76aMic6rVr1+rWW2/Vrbfeql122UXFxcUaOHCgevbsqY0bN+qjjz4Keazrr79eP/rRj+L2fKZOnaoPPvhAb731lhobG3XxxRfr3nvv1dixY7Vt2za99957qq2tbdt/+vTpcRlZkokCn6fuziMHEBt6MAbhguucgaFBb2C/dBwhEm1AL7U/P79f+utfpalTpY02oXf//tKsWdLFF1tzriGJPgRMowcB8+hDwCx60F0Ir218+umnYVdKS9LWrVu1cuXKkPubm5sjnnf16tVavXp12O0FBQW6/fbbdfTRR0dfbBR69eqlefPm6aqrrtIzzzwjSaqsrFRlZWXIfldccYUuu+yyuD4+AMCQcIFuYPaz3fZ0DLBjCeib95Uuukh68UX7cx5zjPTQQ1JRUXxrBQAAAABEjfA6gYYPH67XXntN5eXl+vDDD/Xpp59q48aNqqurU0NDg/r376+hQ4dq3LhxOvLII/XTn/5UvRL0duQddthBDz30kM444wwtXrxYy5YtU21trXr16qXCwkIdfvjhKi0t1Z577pmQxwcAJFlXwbUU/iKH6RRgOw3oW/3SXTdID30hbW0MPW7gQGnOHOnMM6WsrISVDQAAAADoGuG1jffeey8u58nKylJxcbGKi4v1y1/+Mi7nDIi1xsMOO0yHHXZYXGsBAKSYaILrgHQOsJ0G9F9tlmZVSP+tsz/fqadK990nDRmSmHoBAAAAAI4wwBEAgEzSVCetWRR6v11wHVBYYm0PtmaRdb5U5CSgH3y89PQO0jlv2AfXhYXS009L//gHwTUAAAAApBBWXgMO5Ofnmy4BcDV6MAo5A6RRM6XKGVJLg3VfpOA6IHgFdnYf6zw5AxJXa6ycBPTl5dKkSVJFhf25ThwhPfwvaTCzraNFHwJm0YOAefQhYBY96C5Zfr/fb7oIZA6PxyOv16uCggKVl5ebLgcA3Kt+lRVgDy91NvqjpswKhkfNlPKKE1dfdwWeX7iAvqFBuukm6c47pdbW0OOH9ZV+u7901kOp/TwBAAAAwMUIrxFXhNcAkEKa6mJbOR3rcckWLqB//XXpggukzz8PPaZHD2nyCdLpWdI+txFcAwAAAEAKY2wI4EB1dbUkqaiIt5cDJtCDDsUaQKdDcC1ZwfP4ue31fveddPXV0ty59vvvvbc0f760337pE9CnIPoQMIseBMyjDwGz6EF34YKNgAM+n08+n890GYBr0YMIEQign3lGGjPGPrjOyZFuuUX68EMruO54HByjDwGz6EHAPPoQMIsedBdWXgMAgPS1bp10+eXS3/9uv33iRGu19ahRya0LAAAAANBtrLwGAADpx++X/vpXafRo++C6Xz/pvvukN98kuAYAAACANMXKawAAkF6+/lq66CLphRfst//kJ9b4EGbgAQAAAEBaY+U1AABID62t0h//aM22tguuBw6UFi60thFcAwAAAEDaY+U14MDQoUNNlwC4Gj3oYlVV0vnnW2NA7Jx6qnTvvRLfIwlHHwJm0YOAefQhYBY96C6E14ADBQUFpksAXI0edKHmZukPf5BmzpS2bQvdvvPO0gMPSCeemPTS3Io+BMyiBwHz6EPALHrQXQivAQBAalq2TDrvPKmiwn77BRdId9wh5ecntSwAAAAAQHIw8xpwoKqqSlVVVabLAFyLHnSJhgbpmmukAw6wD65HjJBee016+GGCawPoQ8AsehAwjz4EzKIH3YWV14ADjY2NpksAXI0edIE33rBmW3/2Wei2Hj2kadOsESJ9+ya/NkiiDwHT6EHAPPoQMIsedBfCawAAYN6mTdLVV0sPPWS/fa+9pPnzpf33T25dAAAAAABjGBsCAADMevZZacwY++C6Vy9rpfWHHxJcAwAAAIDLsPIaAACY8e230uWXS4sW2W+fMMFabT16dHLrAgAAAACkBFZeAwCA5PL7pccek0aNsg+u+/aV7rlHevNNgmsAAAAAcDFWXgMOFBUVmS4BcDV6MAOsXi1ddJH0/PP22486Spo7V9ptt+TWhajRh4BZ9CBgHn0ImEUPugvhNeBAfn6+6RLMaKqTcgYk7zggDNf2YCZobbVC6auvlurrQ7fn50t33y2dc46UlZX08hA9+hAwix4EzKMPAbPoQXdhbAiAyOpXScsnSzVlzo6rKbOOq1+VmLoApI+qKumII6RLLrEPrk86SaqslM49l+AaAAAAANCG8BpwoKKiQhUVFabLSJ76VVLlDKmlQapeEH2AXVNm7d/SYB1PgI04cV0PprvmZmnWLGncOGnp0tDtBQXSP/8pPfGE9THSAn0ImEUPAubRh4BZ9KC7EF4DsNdU1x5cB0QTYAeC64BAgN1Ul5g6gUwQa3+kcl999JF0wAHStddK27aFbp80SVq5UvrFL5JfGwAAAAAgLRBeA7CXM0AaXhp6f6QAOzi4DhheyuxrIJxMG83T0GAF1vvvLy1fHrp9t92kV16R5s2TBvBzAQAAAAAQHuE1gPAKS6Si80LvtwuwwwXXRedZ5wEQKtNG8yxdKo0fb40KaWnpvK1HD2naNOnjj6Uf/9hIeQAAAACA9EJ4DSCyaAJsgmvAuUwazbNpk3UxxsMOkz79NHT7mDHS229Ls2dL/folvz4AAAAAQFrqaboAAGkgEEAHB9TVC6S1T0lNG0OPIbgGIguM5rHrK8m+f1JxNM/zz0uTJ0tr1oRu69VLuu46a4xITk7yawMAAAAApDXCa8CBkSNHmi7BnHABNsE1kijjejDSC0Mdt0up9w6H9eulqVOlxx6z337ggdL8+daqa2SUjOvDTNBUF9sLWLEeB6PoQcA8+hAwix50F8aGAA7k5uYqNzfXdBnmhBsh0hHBNRIoI3sw3Ubz+P3SokXSqFH2wXXfvtLdd0tvvUVwnaEysg/TWaZd9BVdogcB8+hDwCx60F0IrwEHGhsb1djYaLoMswpLpJyB9ttyBhJcI6EytgcjBdjl56ROcL1mjXTCCdIZZ1grr4P9+MfSihXWiuzs7OTWhqTJ2D5MR5l20VdEhR4EzKMPAbPoQXchvAYcqKqqUlVVlekyzKopsx8VIln3O135BTiQ0T0YLsBOhdE8ra3S3LnS6NHSs8+Gbs/PlxYskF5+Wdptt+TVBSMyug/TSSZd9BWO0IOAefQhYBY96C6E1wCiF250QUdOVn4B6CwVR/N89pn0wx9KF10k1deHbv/FL6SVK6Vf/UrKyur6fARkQHwELvoaLNLv4VS86CsAAAAQAeE1gOiE+4PXboQIATYQu1QZzbN9u3THHdLee0v/+U/o9oG9pYevlP75T2nnnaM7JzN2gfiKZmZ+QCrNzgcAAACiRHgNoGuR/uD1LIz+D2cAXUuF0TzLl0sHHihdfbVkN0vu+F2lvx0uja1kxi5gWrpd9BUAAABwoKfpAgCkuGj+4A38P3i/wG3+MAaiE+1oHikxfdXYKP3ud9Lvfy+1tIRuL/qB9Jtdpf12cFZPuBm74+cyqgCIh0i/h9c+lRqz8wEAAIAYsPIaQHhOVmo5eesygFCmR/O8+aY0frx0222hwXVWlnT55dInK6WTpjqrhxm7QHKk8kVfAQAAgBhl+f1+v+kikDk8Ho+8Xq8KCgpUXl5uuhx0R1OdNZu2paHz/V39wWsXVGX3YYUlEElXLxQl8i3/9fXStddKf/yj/fbRo6X586UJE6Kv1+l+QCI11cX2+yfW40zr6h0c9B8AAADSCCuvAdjLGSCNmmkFzwHR/MEbvPIru491nnQMAIBkiHY0TyLe2fDCC9KYMfbBda9e0o03SsuWdQ6uo62H4BqpoH6V9UKs0z5J54uLpspFXwEAAIA4ILwGHPD5fPL5fKbLSJ684vYA20ngFAi2AsF1XnFi64RrZFwPmhrNs369dNZZ0rHHSqtXh27ff3+pvFy66Sapd2/7c0Sqp/wcgusMljZ9WL/Kmq3e0uCsT9L94qKpcNFXJFTa9CCQwehDwCx60F24YCPgQHV1tSQpPz/fbCHJlFcc28iPwhJp0BGsuEZcZVQPNtVJaxaF3h8p4A13UbY1i6LrN79fevxx6dJLpW+/Dd3ep490yy3WfOvs7C6fQth6mLGb0dKiD5vq2oPrADdcXNT0RV+RFGnRg0CGow8Bs+hBd2HlNYCuxfoHezr8oQ+YkuzRPN98I514onT66fbB9Q9/KK1YIV1xRXTBdbh67BBcI9lyBlgXBQ2WyRcXNX3RVwAAACABCK8BADAlGaN5Wlulhx+2Lry4ZEno9h13lObNk159VRoxIrbnwYxdpCIno3bSfUZ7pPo9CxMzMx8AAABIAsaGAABgUiJH83z+uXTBBdLrr9tvP/FE62KNhYXOHjtYNDN20yEAROYJN9qm4+iMTA6uO170VYr8eQAAAABSEOE1AACmxXs0z/bt0t13SzNmSI2NoduHDpXuv1866SQpKyu2xw5gxi5SXaTgdu1T6T2j3elFXyUCbAAAAKQVwmvAgdzcXNMlAK5GD0ahokKaNEkqL7fffu650l13SQPDjPlwItKM3eBAkIAsY6RlH2bixUVNXPQVKSEtexDIMPQhYBY96C5Zfr/fb7oIZA6PxyOv16uCggKVhwtOAADxt22bdMst0qxZ1srrYLvuKs2dKx19dHwer6sVn+k+igGZqat3CqTb92f9KqlyhtTSYN2Otv6On4doZucDAAAAhnDBRiCVNdUl9zgA6entt6Xx463wOji4zsqSLr9c+vjj5AXXkrOL5QHJkmkXF03GRV8BAAAAgwivAQe8Xq+8Xm9yHqx+lbR8svOQp6bMOq5+VWLqAgxKag+mg82bpcsukw45RFpl0/OjRklvvSXNmSP17x+fx3Q6Y5cAO+OkdR9Gc3HRdBO46KvT4L2wxDqO4DrtpHUPAhmCPgTMogfdhfAacKC2tla1tbWJf6CObwN2EvIEQqWWBut4AmxkmLj2YLq/s+HFF6UxY6T77pOCJ4D17GldrPGjj6SJE+P3mLHO2LULsNcsSp3PJRxJ2u/CeIv24qLpGGDH+6KvSGlp24NABqEPAbPoQXchvAZSTVNd5/mVUnR/TAf/UR4IsAmHgFDp/M6GDRukc86RfvpT6euvQ7fvv791scabb5Z6947vY+cMaB9REBDNqILgADswqoDgDMkS6eKiwdI1wAYAAAAyEOE1kGpyBkjDS0Pvj/THdLg/yoeXEg4BwdL1nQ1+v/T449Lo0dJf/hK6vU8f6c47rfnXe++duDqYsYt0E2nUjWcho20AAACAFNbTdAEAbATCoOA/tgO3O4ZFTubPAm4X7p0NUuR+CffOhvFzk/MCUU2NdMkl0tNP228/8kjpkUek3XdPfC1S+4xdp8+9sEQadAQvqiF5or24qBTd71wAAAAAScXKayBVRXOhM4JrwJl0e2eD3y/Nm2ettrYLrnfYwQqtX3stecF1ADN2keq4uCgAAACQ9lh5DTiQn5+f3AeMtBps7VNS08bQYwiukcHi0oPp8s6GL76QLrhA+ve/7bf//OfSH/8oDRuW2DqAIEn/XRiLWC8uKoX2/JpFvGMAKSUtehDIcPQhYBY96C5Zfr/fb7oIZA6PxyOv16uCggKVl5ebLidzhAvQghFcA9HrKpg2FVxv3y7dc490ww1SQ0Po9iFDpPvvl04+WcrKSlwd8dZUF1v4F+txQMf59lL0vdux95nRDgAAABjF2BAgHYR7O3NHBNeAM5HGBJSfYya4/u9/pYkTpenT7YPrs8+WVq6UTjklvYLr+lXS8snOxy/UlFnHJfvimMgMXFwUAAAASHusvEZcZfrK6+rqaklSUVGRmQLKz7EfFZIzUPIsTH49QJIlpAdT4Z0N27ZJt94q3X67tfI62A9+IM2dKx1zTGIeP5FY/ZpxjP8udIpV/8gwadeDQAaiDwGz6EF3YeU14IDP55PP5zPz4DVl9sG1ZN3PBaXgAgnpQdPvbHj7bWmffaTf/S40uM7KkqZMkVasSM/guqmuc3AtRXcBvOAXFFoarPM01SWmTjhi9HdhLLi4KDJM2vUgkIHoQ8AsetBdCK+BdBDNytBoAiEA9gpLrHcw2MkZmJjgevNm6fLLpUMOkSorQ7cXF0tLl0r33Sfl5cX/8ZMhZ4A0vDT0/kg/r8L9vBteSpgIAAAAAC5DeA2kunBBjl3QRoANxCbZ72x4+WVp7Fjp3nul4OldPXtK110nffSRdPDB8X1cEyLNFg/+vJq6SCYAAAAAICURXgOpLFKQ41kYfSAExCLWEQ3pNtohme9s2LhROvdc6Sc/kb6f09aJxyN9+KF0yy1Sbm73Hy9VRBNgE1wDAAAAAIIQXgOpKpogx8mKRsCJ+lXS8snOv49qyqzj6lclpq54S9Y7G/x+afFiafRoaaHNxVVzc6U77pDefVcaNy62x0h1kX5elZ9DcA0AAAAACNHTdAFAOhk6dGhyHsjJCsTA7eD9A7cJfuBU/ar2i+w5+T7q+H1bOUMaNVPKK45raXHtwa76zG57LH1VUyP9+tfSU0/Zbz/8cOmRR6Q994z+nOkq3M8ru5EtBNcpK2m/CwHYogcB8+hDwCx60F2y/P7gYZtA7Dwej7xerwoKClReXm66nPTUVGetXG1p6Hx/V0GOXdCW3UcaP5eLnCF6bvn+i/YFou6MsvD7pQULpN/8Rvruu9DtO+xgrba+4AKph8veCNXVqBaCawAAAACAGBsCpJ6cAdaK1ew+7fdFE+QEvyU/u491nlQMDpG6cgZIw0tD7480MiNcEDm8NDW//5y+syGW0Tz/+5/04x9L559vH1wff7z0ySfS5MnuC64l6/NqN5pFsu4nuAYAAAAAiPAacKSqqkpVVVWJf6C84vYA28kKxEDQFgiu4zyyAS7hJLBN8kX2ut2DTXXSmkWh90eqN9znY82i0ItTtrRIs2dLY8dK//pX6DGDBkmLFklLlkjDhzuvP1PUlNmPCpGs+5nZ3z0Jvthq0n4XArBFDwLm0YeAWfSguxBeAw40NjaqsbExOQ+WV2yNXHAaABaWWMcRXKM7ogmwkxxcS3HowUS+s2HFCumgg6wxIQ0Noec480ypslI6/XQpKyv255DuuhoZInHR2e5IwsVWk/q7EEAIehAwjz4EzKIH3YXwGkhlsY5cSMVRDUg/kQLs8nOSHlzHTbzf2bBtm3TTTdK++0rvvx963C67SM89Jz36qLXy2s3CBdd2I0QIsJ0LvthqtJ+/wNelpcE6PooAGwAAAACSgfAaABBeuADbbuRDOgTXAfF6Z8N770kej3TzzVJzc+j+v/61Ndv62GO7X3MyJHLcRKSV+p6Fsc0WR7umuvbgOiCaz1/w1yUQYMf6vQAAAAAAcUR4DQCILFyA3VE6BdcB3Xlnw5Yt0rRp0sSJVjgd7P/+T3rjDen++6W8vO7VmSyJHDcRzYiZWC+OCYsbLrYKAAAAwHUIrwEAXSsssR/tIFn3p1tw3R2vvmpdkHHOHMnv77wtO1u69lqpokI69FAj5cUkkeMmnMxGJ8DunhS+2CoAAAAAxKKn6QKAdFJUVGS6BMCMmjL7USGSdX9NWVICL6M9WFdnXYzxT3+y377PPtKCBdL48Uktq9vCjZuQIn9Nw42bGD+3fdVuU520ZlHosZEC0sD9wcHqmkXSoCNYEdyVcJ+/jl/TbgbX/C4EzKIHAfPoQ8AsetBdsvz+4GVjQOw8Ho+8Xq8KCgpUXl5uuhwA8RAu6AqWySs2n3zSml/t9YZuy821Ltj4m99IPdP0NWGnYaaT/Tuu6o50zkiPEXyRTHQt0sUx031mPQAAAADXYGwIACC8SAFYsEwc7bB2rXTSSdZ/dsH1YYdZI0Kuvjp9g2spseMm8oqt4Dm7j7OANFATwXVsMvViqwAAAABcJY3/0gaSr6KiQpI0btw4w5UASdBVSGm3PZpxE92QtB70+6U//1m64grJ5wvdnpcn3XGHdOGFUo8MeR04keMm8oo7jxNxUhOjQmIX7mvaUQzBNb8LAbPoQcA8+hAwix50F8JrAECoaELKaMLOdPS//0mTJ1sXZrRz3HHSQw9Jw4cnt65kiPQ1XftU91btxhpAE1x3T2FJ+K+d2y62CgAAACDtZMhyMQBA3DhZXetk3ESqa2mR5syR9trLPrgeNEj629+kZ57JzOA6INPHTTTVJfc406K52CoAAAAApCjCawBAu6Y6ac2i0PsjhZThws41i9In8PvkE+ngg6Vp06StW0O3n3GGtHKlVFoqZWUlv75kC/c17Sgdg+v6VdLyyc4D25oy67j6VeH3ScVQPJqLrabjC00AAAAAXIPwGgDQLmdA+8X1AqIJKYPDzsBF9lJ95ENTk3TzzdI++0jvvRe6ffhw6dlnpccekwYPTn59JhWW2F+YU0rPcRP1q6TKGVJLg7PANhAAtzRYx9sF2IkMxWPl9outAgAAAMgIhNcAgM7yitsDbCerawMBdiC4zitObJ3d9f77kscj3XST1Nwcuv3ii60V2ccdl/TSUkImjZtoqmsPrgOiCWyDA+BAgN1xtXQiQ/FYRRr941mYOaN+AAAAAGS8LL/f7zddBDKHx+OR1+tVQUGBysvLTZcTd42NjZKk3Nxcw5UASdBUF9vK6ViPi0JcenDLFumGG6R77pFaW0O377mnNG+edNhhsT9Guotm3ISUXqNDnMxyj3b/pjpr5XTHUDzSOSOdO7uPNH5u93sn2ufp9PPRAb8LAbPoQcA8+hAwix50F1ZeAw7k5ubywxHuEWuIlsBRId3uwddesy7IePfdocF1drZ0zTVSRQXBdSaOm3BycdFog92cAdLw0ujO2dW5h5cmL7iWunWxVX4XAmbRg4B59CFgFj3oLoTXgAONjY1tr/ABSL6Ye7CuTpo0Sfrxj6UvvwzdPn689MEH0u23S336hG53i0wfNxFNYOt0RXIiQvFYJPFiq/wuBMyiBwHz6EPALHrQXQivAQeqqqpUVVVlugzAtbrsQbvAraxMGj1aWmATGvbubQXWb75kXbTRzaIJVruxWjdlRHoO5efEFi4nIhR3KokXW+V3IWAWPQiYRx8CZtGD7kJ4DQDIDPWrrPnDgbDQ65VOOUX6xS+sj4Mdeqg1IuTskdInU+J7wbx0k6RxEykj3HOwu0BltOFyIkJxp9xysVUAAAAArkF4DQBIf/WrpMoZ1oXzvpov3X2ptdr6iSdC9+3fX3rgAen116W8lVao2NJgHe/GADuJ4yZSSrjn0JHTcDkRobhTecXWhR+dnruwxDqO4BoAAABACiG8BgCkt6a69uB67VZp6nvSFfdbc66DHXustHKldPHFkvfpzqthAwF2uoSv8ZLEcRMpp7DE/kKUknV/LOFyIkJxp1LwYqsAAAAAEAvCawBAessZIO18qvSP/0m//I/0wfrQfXbaSXrsMenZZ6Vddgk/JmN4qTsDPLeOm6gps18VLVn3xzoGJRGhOAAAAAC4UE/TBQAA0C0rV0qT7pLeXWm//cRDpYf/KQ0ebN1O9IXz0lVg3ITT8L6wRBp0RPqF/uG+DzoKbHf6fRFNKO7m7zUAAAAAiFKW3+/3my4CmcPj8cjr9aqgoEDl5eWmy4EpTXWxBVmxHgd3amqSZs2SbrlFam4O3T44V7pqL+ngoe3BNME1pPDfBzkDuz+fOppQ3Ok5AQAAAMClGBsCIL7qV0nLJzt/u31NmXWcGy+YB+c++EDyeKQbb7QPrkuKpMcOt4JryQoTy88huEbkFzA8C+3nVVcviO5nWqRQPNZzAgAAAICLEV4DDvh8Pvl8PtNlpK76Ve0XznMSzAQCn8AF8wiwEYavpkaNU6ZIEyZIK1aE7rDHHtLrr0v33y3179V5W3dX1CL9RbPyPtwFF7v6mZbIUDzF8LsQMIseBMyjDwGz6EF3YeY14EB1dbUkKT8/32whqaiprj24DohmXmxw4BMIsGOZvYvM9q9/qc8556j3mjWh27Kzpd/8RrrpJqlPn/b7I41vSGRwzeic1ONkZEzgdvD+4X6mRRuKOzlnCuN3IWAWPQiYRx8CZtGD7kJ4baOlpUVVVVWqqKho+6+yslLN3781feLEiXriiSeiPp/P59PSpUv19ttv65NPPtFXX32lTZs2qXfv3tppp500btw4HXXUUfrZz36mXr16dX1Ch4YNG+Zo/+zsbH399ddxrwMZLmeANLzUWTATLvAZXkqAh3Y+n3TlldK8eeptt33cOGn+fGuMSEeFJdLap+xXXOcMTFxYGHgHwvBSZ49RUyatWSSNmmldPBHx01RnfW6DRXoBI1zYvGZR5wtUJjIUBwAAAACXI7wO8uKLL2rKlClqaGjoeucubNmyRZdcconeeOMNNTU1hWxvbm7W5s2bVV1drSVLluiOO+7QnDlzNGHChG4/NmCEk2CGC+chGk89JV1yibR2bei2nBxpxgzpqqskuxf+asrsg2vJur+mLP7fa8Gjc6ToHqNjP1TOIMCOt5wB1ue047tDovlZE/wzLbuPdZ5AcJ3IUBwAAAAAQHgd7LvvvotLcC1Z4fWrr77a6b7Bgwdr77331pAhQ9Tc3KxPPvlElZWVkqTVq1frtNNO07x583TUUUfFpYZg5557bpf7ZGdnJ+Sx4RLRBNgE1+hKba106aXS4sX22w8+WJo3TyoOE/CG+x7rKN6rXRmdk9ryitsDbCer4gP72a2KT1QoDgAAAACQRHgd1uDBgzVu3DiNHz9e48aN0+uvv6758+fHdK78/HyddNJJOu200zRmzJiQ7e+//74uv/xyff3119q+fbsuvfRSLV26VIMHD+7u0whx6623xv2cQIhIAXa4MQ7RBD7MEc58fr/0l79I06ZJdXUhm1v69tXayy7T8FtvlXqEueZwuOA6Z2Do9148A2xG56S+vOLYXhQoLAm/KjoRoTgAAAAAQBLhdYgjjzxS77//fsic6I8++sjxuXr16qVp06Zp8uTJysvLC7vfAQccoMcff1xHHXWU6uvrVV9fr3nz5unaa691/JhIrNzcXNMlpI9wAXaswTVzhDPfV19JkydLL79sv/2YY/TVlVdq+7BhzoPrwPeY3fZ4BtiMzkl9sb4oEOm4RITiKYzfhYBZ9CBgHn0ImEUPugvhdZAhQ4bE7VwDBgzQ9OnTo9p3l1120VlnnaUHHnhAkvTaa68RXqegkSNHmi4hvYQL8jpyElwzRzgztbRIDzwgXXuttGVL6PaBA6V77pF++UvtnpUV/jzRhMHJuGAeo3PcKRGheIridyFgFj0ImEcfAmbRg+4SZukaTNh///3bPl69erXBSoA4KiyxxjXYyRkY3agQuznCNWWRjws3R7gpdBQFDKqslA49VLrsMvvg+rTTrH3OPFPqbnAdUFhi3R8smu+raEV6jPJzCK4BAAAAAIgC4XWKamlpMV0CbHi9Xnm9XtNlpJeaMvtRIZJ1f1dhYWCOcLBIQSNzhFNfU5N0yy3S+PHSO++Ebi8slJ5+Wvr736UO74ix7cGmOms0TLBIYXC4cHnNovi9wBHuMWIdnQOkCH4XAmbRg4B59CFgFj3oLowNSSGrVq1q+7iwsDAhj/Huu+9q+fLl+vbbb5Wdna2BAwdq9OjR2m+//dS3b9+EPGYmqa2tlSQVFBQYriRNhAuRO4pmXANzhDPLhx9KkyZJ//2v/fYLLpD+8Adpxx1DNtn2YM6A9gvmBVboR/P1Dv6+yu5jnSeeL3DEa3QOkEL4XQiYRQ8C5tGHgFn0oLsQXqeI1tZW/fOf/2y7feihhybkcU466STb+/v06aPTTz9dU6dO1aBBg7r9OK2traqpqYm4T6ICeqSIcCFyzsDQlafxCrAJrlPb1q3SjTdKs2dLra2h23ffXZo3TzriCOfnzituD7CdXNQzsF8iL+pZWCKtfcp+xXU0o3MAAAAAAHApwusUsXDhQn3++eeSpB49eujss89O6uM3NDToT3/6k55//nk98sgj8ng83TrfunXrOs3wtvP888+H3Ddu3DhJks/nU3V1dcj23NzctsH8Xq+37dW2jvLz81VUVCRJqq6uls/nC9ln6NChba/QVVVVqbGxMWSfoqIi5efnS5IqKiokSRs2bOh0e+TIkcrNzVVjY6Oqqqpsn2eqP6dgcXlOzf/TyGYrRPZu20W1TbtYG/qPknruJm37UvmNb6qoj3X+6oaR8q1YJX31lNRvtwjPaYTknyRtrmx/TrlVyq9eIK19ShUbiiUd1LmY/qM0cuAxypXi+3Va+7XUo3enfaL6Ou3UTwXD9+jwnAx+nZL4vbf76tXqP3Wq9MUXIdv8PXro27PO0g6zZyt34MCIzykg7HPq/1uNLBzv8DmNkHpNl/63TVJF1M8p6q/TxhfU2NCgqq0H2e4zrqZMKixJia9TJn7v8Zzi/5w6/i7MlOfUEc+J55Tqzykgk55TJn6deE6Z/Zw6/i7MlOfUEc+J55QOz2nbtm2250nn5xT8dQrc73aE1ymgqqpKt99+e9vt0tLSuF45tXfv3jr66KP1wx/+UOPGjdOwYcPUu3dv+Xw+VVRU6PHHH9fzzz8vv9+v2tpanX322VqyZIl23333uNUAF9nypbR1mdQv6P7+o9qD6X67Sf380tagH9yBULpDgB0isK1DgC3JflVrx8eMp4Y10vr/SP32dHb+LV9K370u7XhRYlb4pqAe9fUqnDNH/Tu8s6Sjhv/7P62+8UY1jBmjHeIxuii7T2zHBb0QETfeF6S1CyRFqCvwboG+RyamBgAAAAAA0lSW3+/3my4iHdx1112aPXu2JGnixIl64okn4nLe7777Tscee6y++uorSdJuu+2ml156Sf36BSd/sdu4caMGDhwYcZ9XXnlFF110UdsrSYcccoj+8Y9/OH4sj8cjr9erIUOG6Lnnnou4bzqODQm8ksarX2E4HdvRnTEfXc3TTtSokPpVzmcrS53rDcxWzvQA+5lnpIsukuxGCOXkSDNmSFddJfXqFfUp06oHnYzOkRhvg7SRVn0IZCB6EDCPPgTMogfdpYfpAtyssbFR5513XltwnZeXp4cffjiuwbWkLoNrSTrqqKM0c+bMtttvvvmm/hvuYmpR6NGjhwoLCyP+l47y8/Pb3hKCIE111tzgYJECucISa3uwNYus80VSWGKFgHYSNUe4qa5zcC1Z4WRNWeTjgkPMlgbrPF09x3S1bp10+unSCSfYB9cHHSQtXy5dd52j4FpKox6M9MKMZ6H9930030tACkibPgQyFD0ImEcfAmbRg+5CeG3I9u3bdfHFF+vdd9+VZM3k+dOf/qTRo0cbq6m0tFTDhg1ru/2vf/3LWC2pqqioqG0uEoLkDLBWE3cc2xDNStLgADuwKjlnQOTjasrsV69K1v2JCAFzBlgXAwwWKXQMF2IOL+36OaYbv1969FFp1CjJ7p0b/fpJ990nLV1q7RODtOjBaN5REO6FGwJspIG06EMgg9GDgHn0IWAWPeguhNcGtLa2atq0aXr55ZclST179tRDDz2kiRMnGq2rR48eOvjgg9tuBy4gCUQtr7g9wHYyAiEQ5EU7TqOrkSFS4kJAJ6Fjd8aipJuvv5aOPVY6+2xpo82LCj/5ifTJJ9KUKVKPDP7V4+RrToANAAAAAEBEXLDRgGuuuUZPPvmkJCswvueee3TUUUcZrsoyZMiQto832gVQLhe46iuv8EWQVyyNn+t8VXFhiTToiOhWXEc7RziwX7yD4sD5guvo+HhuCa5bW6UHH5SuuUbavDl0+4AB0pw50llnSVlZ3X64lO7BWEfnSKHfK2sWRdcPgAEp3YeAC9CDgHn0IWAWPeguGbz8LTXdeOONeuyxx9pu//73v9eJJ55orqAgDQ3ts3z79u1rsJLU5PP55PP5TJeR+mIN3GINrk3MEY60arb8HHcE16tWSYcdZq2mtguuTz1Vqqy0VmPHIbiWUrwHkz06BzAkpfsQcAF6EDCPPgTMogfdhfA6iWbNmqV58+a13b7pppt0xhlnGKwo1IoVK9o+Hjp0qMFKgCCpOEc43OPZzeLOpOC6uVm67TZp3DjprbdCt++8s1RWZs29dtvPkWSNzgEAAAAAwAUYG5Ik99xzj+67776229OnT9cFF1xgsKJQn3/+uT788MO226ZncANtnM4RliKP9IincI/XUSYF1+Xl0qRJUkWF/fYLLpDuuENy85WfEz06BwAAAAAAl2DldRLMmzdPd9xxR9vtSy65RNOmTUvKY2/ZsiWq/RoaGjR16lS1tLRIkgYOHKgjjzwykaUB0Yl1jrDdiug1i6zzxVthiTVz207OwMwIrhsapKuvlg480D64HjFCeu016eGH3R1cByRqdA4AAAAAAC5CeJ1gf//733XTTTe13T733HN13XXXdfu8J598soYNG6Zhw4bp5JNPDrvfgQceqD/84Q/6/PPPw+7zwQcf6Gc/+5k++uijtvuuvPJK9evXr9t1At2WDnOEa8rsR4VI1v2JGFmSTP/5j7T33taK6u9f4GrTo4c0fbr08cfSD39opj4AAAAAAJCRGBti46yzzpLX6+1037ffftv2cUVFhY466qiQ4x599FEVFBS03a6srNSVV14pv98vyboAot/vjzq8njRpkkaMGBHLU2hTV1enOXPmaM6cOSooKNCoUaM0aNAg9e7dWz6fTx9//HHbVVoDzj33XJ199tndetxMxRxwQwJzhCtnSMNLnc0RlqwV14maIxxupElHiRpZkmjffWettp471377XntJ8+dL+++ftJLoQcA8+hAwix4EzKMPAbPoQXchvLbx6aefas2aNWG3b926VStXrgy5v7m5udPturo6tba2djpu4cKFUddx3HHHdTu87sjr9YaE8h3l5+fruuuuS7mLSKaSji9OIMlScY5wuOA6Z2DoSux0C7CfeUa6+GLpm29Ct/XqJV1/vXTNNVJOTlLLogcB8+hDwCx6EDCPPgTMogfdhfA6wy1dulTl5eUqLy/XypUrtWHDBtXV1WnLli3q16+fdtppJ+2999469NBD9fOf/1x9+vTp+qSAKak0R7iri0jabU+HAHvdOunyy6W//91++8SJ0rx50ujRya0LAAAAAAC4TpY/MNMCiAOPxyOv16uCggKVl5ebLifuqqqqJEkjR440XAmM6iq4drpfKvD7pb/9zQquN2wI3d63r3T77dKvfy1lZye/vu/Rg4B59CFgFj0ImEcfAmbRg+7CymvAgcbGRtMlwDQngXTgdqqvwF69WrroIun55+23H3WU9PDD0q67JrUsO/QgYB59CJhFDwLm0YeAWfSgu/QwXQAApI2mOuvij8EiraQuLLG2B1uzyDqfSa2t0gMPWCNA7ILrAQOkP/9ZeumllAiuAQAAAACAuxBeA0C0cgZIo2ZK2R1mw0czAiQ4wM7uY50nEbO4o1VVJR1+uDUGZPPm0O0nnyytXCmdc46UlZX8+gAAAAAAgOsRXgOAE3nF7QG2k9nVgQA7EFznFSe2znCam63Z1ePGSW++Gbq9oEB68klp8WLrYwAAAAAAAEOYeQ0ATuUVS+PnOl85XVgiDTrC3IrrZcukSZOk5cvtt593nnTnnda4EAAAAAAAAMMIrwEHioqKTJeAVBFrAG0iuG5okG6+2QqmW1pCt++2m3VBxh//OPm1OUQPAubRh4BZ9CBgHn0ImEUPugvhNeBAfn6+6RIAZ954Qzr/fOmzz0K39eghTZ0qzZwp9euX9NJiQQ8C5tGHgFn0IGAefQiYRQ+6C+E1AGSiTZukq6+WHnrIfvuYMdL8+dKBBya3LgAAAAAAgChxwUbAgYqKClVUVJguA4jsueescNouuO7VS7rpJmv+dRoG1/QgYB59CJhFDwLm0YeAWfSgu7DyGgAyxbffWmNA/vY3++0HHmitth4zJqllAQAAAAAAxIKV1wCQ7vx+K7AePdo+uO7bV7r7bumttwiuAQAAAABA2mDlNQCks9WrpYsvtkaF2Pnxj6WHH5Z22y25dQEAAAAAAHQTK68BIB21tlozrceMsQ+u8/OtESEvv0xwDQAAAAAA0hIrrwEg3Xz6qXTBBdIbb9hv/8UvpPvvl3beObl1AQAAAAAAxBHhNeDAyJEjTZcAN9u+XbrrLunGG6Vt20K3Dx0q/fGP0kknJb+2JKEH4UpNdVLOgOQd1wX6EDCLHgTMow8Bs+hBd2FsCOBAbm6ucnNzTZcBN1q+XDrwQOmaa+yD61/9SqqszOjgWqIH4UL1q6Tlk6WaMmfH1ZRZx9WvintJ9CFgFj0ImEcfAmbRg+5CeA040NjYqMbGRtNlwE0aG6XrrpP2209atix0+667WnOtFyyQBsR/hWWqoQdlraZN5nEwp36VVDlDammQqhdEH2DXlFn7tzRYx8c5wKYPAbPoQcA8+hAwix50F8JrwIGqqipVVVWZLgNu8eab0vjx0m23SS0tnbdlZUlTp0orVkhHHWWiOiNc34MpuAoXCdJU1x5cB0QTYAeC64BAgB3HFy9c34eAYfQgYB59CJhFD7oL4TWQbKyaRFfq66UpU6RDD5XsfiGPHi29/bZ0991Sv37Jrw9mpOgqXCRIzgBpeGno/ZG+9sHBdcDw0oTMvgYAAACARCO8BpKJVZPoyvPPS2PGWBdeDNarlzRjhjU+ZMKE5NcGc1J4FS4SqLBEKjov9H67r3244LroPOs8AAAAAJCGCK+BZGHVJCJZv1466yzpuOOk1atDtx9wgBVa33yz1Lt38uuDWazCda9oAmyCawAAAAAZivAaSAZWTSIcv1/6+9+tUSB//Wvo9j59pNmzrTEhY8cmvz6kDlbhulekr335OXytAQAAAGQswmsgGVg1CTtr1kg//7lUWip9+23o9h/+0Log47RpUnZ28utD6mEVrnuF+9o3bQy9j681AAAAgAyR5ff7/aaLQObweDzyer0qKChQeXm56XJST7ShEuFTZmttlR55RLrqKmnTptDtO+5orbb+1a+krKzk14fUF+5nRM5AwsxMF+5rH8DXGgAAAEAGYeU1kEysmsRnn1krqi+6yD64PvFEaeVK6bzzCK4RHqtw3auwxHqRwk7OQL7WAAAAADIK4TXggM/nk8/n695JmF3qTtu3S3fcIe29t/Sf/4RuHzpUWrxYevJJqbAw+fWlibj0YKYI97OkI352ZJ6aMvsXKSTr/mgvBtwN9CFgFj0ImEcfAmbRg+7S03QBQDqprq6WJOXn53fvRIEwKTioZtVkZqqosFZSL1tmv/2cc6wxIQPDrKZEm7j1YKYoLJHWPmX/s4NVuJmnq5EhUvv2BH7t6UPALHoQMI8+BMyiB92FldeAKayazHyNjdL110v77WcfXO+6q/TSS9Kf/0xwjdikwCpcJEmkOefBIl0MGAAAAADSCOE1YBKzSzPXW29J++wj3XqrNTKko6ws6fLLpY8/lo4+2kx9SH/RrsIlxEx/ka6F4FnY9bUUAAAAACBNEV4DJrFqMvPU10uXXiodeqi0alXo9lGjrGB7zhypf/+kl4cMwSpc94jmIr7RXAwYAAAAANIQ4TVgCqsmM8+LL0pjx0r33y/5/Z239ewpzZghffSRNHGimfqQGViF6x7RBNcBBNgAAAAAMhAXbAQcyM3Njc+JIq2aDF6JnYSLb6GbNmyQpk2THn3Ufvv++0vz5kl7753cujJQ3HowXUW7ClcK3Y+fJemlqU5asyj0/kjXQgj3tV+zSBp0hJQzIC6lub4PAcPoQcA8+hAwix50lyy/P3h5IBA7j8cjr9ergoIClZeXmy4nNXUVPjlZaQez/H7p8cetMSHffhu6vU8f6ZZbrPnW2dnJrw+ZxenPBn6WpL/6VVLlDKmlwbod7deu49c+u480aqaUV5y4OgEAAAAgQRgbAiQTs0szxzffSCeeKJ1+un1wfeSR1gUZr7iC4BrdF+sqXLufJWsWWedD6ssrtoLn7D7OXnQIfO0JrgEAAACkOcJrwAGv1yuv1xvbwcwuzQytrdLDD0ujR0tLloRu33FH6ZFHpNdek3bfPfn1Zbhu9WA6yxnQHmIGRBNmBv8sCYSZcRofgSTIK5bGz3W+Wr6wxDouAcG1a/sQSBH0IGAefQiYRQ+6C+E14EBtba1qa2udH8iqyczw+efSj34kTZ4sbdoUuv3nP5dWrpTOP1/Kykp+fS4Qcw9mAlbhulesLzYk6EUKV/chkALoQcA8+hAwix50F8JrIBlYNZnetm+X7rxT2msv6fXXQ7cPGWLNvi4rkwoLk14eXCQFV+ECAAAAAJAohNdAsrBqMj1VVEgTJkhXXik1NoZuP/tsa7X1Kaew2hrJkWKrcAEAAAAASJSepgsAXCWwatJpiFRYIg06gvApmbZtk265RZo1y1p5HewHP7BmX//kJ8mvDQAAAAAAwAUIr4FkY9Vk6nv7bWnSJGnVqtBtWVnSlCnSrbdKeXnJrw0AAAAAAMAlCK8BB/Lz802XgETavFn67W+l+++X/P7Q7cXF0rx50sEHJ7+2cJrqYnthI9bjDKMHAfPoQ8AsehAwjz4EzKIH3SXL77dLaIDYeDweeb1eFRQUqLy83HQ5QPReekmaPFmqrg7d1rOndPXV0vXXS7m5ya8tnPpVUuUMaXipswv41ZRJaxYxQx0AAAAAAKQ0LtgIwN02bJDOOUc65hj74NrjkT780Jp/nYrBdUuDVL3ACqSjUVNm7d/SYB1fbzMaBQAAAAAAIAUQXgMOVFdXq9ou4ET68fulxYul0aOlv/wldHturnTHHdK770rjxiW/vkia6tqD64BoAuxAcB0QCLCb6hJTZwLQg4B59CFgFj0ImEcfAmbRg+5CeA044PP55PP5TJeB7qqpkUpKpFNPldatC91++OHSxx9LV15pjQxJNTkDrFEhwSIF2MHBdcDw0rSafU0PAubRh4BZ9CBgHn0ImEUPugvhNQD38PutCy6OHi09/XTo9h12kObOlf71L2mPPZJfnxOFJVLReaH32wXY4YLrovOczcoGAAAAAABIohRcUggACfDFF9IFF0j//rf99p/9THrwQWnYsOTW1R2B4Dk4mA7cLiwhuAYAAAAAAGmL8Bqw01QX2yiFWI9D4rS0SHPmSDfcIDU0hG4fPFi67z5rhEhWVtLL67ZIAfbap6SmjaHHEFwDAAAAAIA0wNgQIFj9Kmn55K4vfhespsw6rn5VYuqCcx9/LE2cKE2fbh9cn3WWVFkpnXZaegbXAeFGiBBcAwAAAACANMbKa6Cj+lVS5QyppaHz6IXvDR061P64jqMZKmdIo2ZKecUJLhZhbdsm3Xab9d/27aHbd9nFmm39058mv7ZECbcCu6MMCK7D9iCApKEPAbPoQcA8+hAwix50lyy/3+83XQQyh8fjkdfrVUFBgcrLy02X40xTnbVyuiVohW5XgZ/dTOHsPtL4uYwQMeGdd6RJk6wV1XamTLFC7by85NaVLOXn2K+4zhkoeRYmvx4AAAAAAIAYMTYECMgZIA0vDb2/ekH4ESLhLoY3vJTgOtk2b5amTpUOPtg+uB45Ulq61JpvnanBdU2ZfXAtWfc7HYXjRFNdco8DAAAAAAAZj/Aa6Cjc7ODvA+yqqipVVVVZ94ULrjNgNEPaeeUVaa+9pHvukYLfTJKdLf32t9Ly5dIhhxgpLynCfT92FOmFmO5I4pz4Tj0IwAj6EDCLHgTMow8Bs+hBdyG8BoJFCLAbN1SqsbGR4DpV1NVJ550nHX209NVXodv33Vf68EPp1lul3Nykl5c04b4fcwaG3hfvADt4Tny05w7U3NJgHR9lgN3Y2Gj1IABj6EPALHoQMI8+BMyiB92F8BqwEy7A3lwpffsvgutU8M9/SqNGSX/6U+i23Fzp97+X3ntPGj8+6aUlVaQXUjwLI76ToNua6tqDayfnDq45EGAzQgQAAAAAAHRAeA2EEy7AbrV5dY/gOnnWrpVOOkk6+WSptjZ0+2GHSf/9r3TVVVLPnsmvL5mieQdAF6NwuoU58QAAAAAAIIEIr4FIwgV/HRFcJ4ffLy1YII0eLT35ZOj2vDzpwQelf/9b2nPP5NeXbE5G1yQywHZybsbtAAAAAAAABwivga4UltjPDpas+wndEu9//7PmWk+aJPl8oduPP15auVK66CKphwt+rDXVSWsWhd4fKQQOFzKvWdT9cR3RBNgE1wAAAAAAwKEMf089EAc1ZVLTRklSUW7Q1WybNlrbCd8So6VFuvde6frrpa1bQ7cPGiTdd5902mlSVlby6zMlZ4A0ambnedPRhMCB7YEQObuPdZ54jOsIPndA9QJp7VNtPdRJDMF1UVFRbPUBiBv6EDCLHgTMow8Bs+hBd8ny+/1+00Ugc3g8Hnm9XhUUFKi8vNx0Od0XbrVoMFaPxt+KFdL551sXXbTzy19Kc+ZYAXY8NNXFFuLGelw81K+yAuzhpc6+/2rKrBXXo2ZKecXxrYmeAQAAAAAAceKC99cDMQoXwtmNEInH7GBYmpqkm2+W9t3XPrjeZRfpueekv/41fsF1/Spp+WTnX8OaMuu4+lXxqcOpvGJp/FznIXBhiXVcvIPrwLmZEw8AAAAAAOKA8BqwEya4rvBPUkXPKxJ38Tu3e+89K7S+6SapuTl0+yWXWCuyjz02fo8ZWL3c0uDsaxj4HmlpsI43FWDHuuo7kavFEzgnvqKiQhUVFTEfD6D76EPALHoQMI8+BMyiB92F8BoIFunCcv12sz6O5gJ1iN6WLdIVV0gTJ0qffBK6/f/+T3rjDemPf5R22CF+j9tU13lutBTd1zD4eyQQYHf3woeZosOc+BCBOfEAAAAAAABdILwGOooUXAevFiXAjo9XX5X22ku6+24peAR/drZ0zTVSRYV06KHxf+ycAda86GCRvobhvkeGl5qbfZ1Kopl5TY8AAAAAAIAoEF4DAU111kXsgkWazxsuwF6ziFW4XamrkyZNko46Svryy9Dt++wjffCBdPvtUm5u4upw8iKEkxc33CjT58TH2tP8LAAAAAAAICaE10BAzgBp1Ewpu0/7fdGEksHhZ3Yf6zyswg3vySel0aOlBTZBZ+/e0qxZ1vzrffZJTj3RBNgE15FF+vx4Fqb/uxTS9aKeAAAAAACkMcJroKO84vYA20koGQg/A8F1XnFi60xXXq908snSSSdZHwc79FDpv/+Vrr5a6tWr+4/nZMVrxwDb3+FikdULpPJzCK4jiSbYT+cxO+l+UU8AAAAAANJUlt8fPGQWiJ3H45HX61VBQYHKy8tNlxO7pjrbldONjY2SpNxwYyzCHOd6fr+0cKE0bZrk84Vuz8uT7rhDuvBCqUecXlMLBI7DS50FzCuullY/KuWNlLL7h9+P4NridEV6N1ewd9mD8dZUZ62c7nhRT6nreu2eZ3YfafxcfkYg7SW9DwF0Qg8C5tGHgFn0oLuw8hqwEyZcys3NjfzDkVAq1JdfSj/5ifSrX9kH18cdJ33yiXTRRfEPrmNZKVu/UsotlOqrpJbN9vsRXFsMzInvsgfjjYt6AiGS3ocAOqEHAfPoQ8AsetBdCK8BBxobG9te4UMXWlqke+6Rxo6VXnkldPugQdJjj0nPPCPtskv8Hreprj24DogmwO4YOObuLGVlWwF2xxEiknXxQYJri4E58UZ6kIt6Ap3wuxAwix4EzKMPAbPoQXchvAYcqKqqUlVVlekyUt8nn0gHHyxNnSpt3Rq6/YwzpJUrrf9nZcX3seOxUrZxrdTaJPUZJmUFzd5u2pj6M5qTKclz4o31IBf1BNrwuxAwix4EzKMPAbPoQXfpaboAABmkqUmaNUu65RapuTl0+/Dh0kMPWaNCEikQFAYHiYHbHYNEu+C6YbXU9wdS7wL789udx83yimOb5VxYIg06In1GaUT6vlr7lPXCRjCCawAAAAAAYkZ4DSA+3n9fmjRJWrHCfvvFF1vB9g47JKeeaALsaIPrnIGhwSQBdmexBtDpElwHhPu+IrgGAAAAACDuCK8BdM+WLdKMGdKcOVJra+j2PfeU5s2TDjss6aU5WikbLrgOBJB2IyEIsN0p3PdVRwTXAAAAAAB0GzOvAcTuX/+S9t5bmj07NLjOzpauvlqqqDATXAeEm1XsJLiOdJ5oLgaJzFNYYq3It8NFPQEAAAAAiAvCawDO+XzS+edLP/qR9L//hW4fP94aIzJrltSnT7KrCxUueJaiC667Ok+6BNhNdck9LpPVlNmPCpG4qCcAAAAAAHGS5ff7/aaLQObweDzyer0qKChQeXm56XKQCGVl0q9/La1dG7qtd2/pxhul6dOlXr2SX1tXys/pHDi2NkmbPpaysqUdx7ff39XIB7sRItl9YrtoYbLUr5IqZ0jDS52tCq4pk9YskkbNtC7MCPuvvx1GhwAAAAAA0C2svAYQHa9XOuUU6Re/sA+uDz5YWr5cuvba1Ayu7VbK9siR+o+U/C3SNq91XzSBY/AK7Ow+Vrib6sF1S4OzVeKBkLalwTq+flVi60wH4YJruxEi6bIiHwAAAACAFEV4DTjg8/nk8/lMl5Fcfr/05z9Lo0dLTzwRur1/f+m++6Q33pCKU3RlbqSVsj37WwF2wzdS3ujoV8oGAuxAcJ2qq5Kb6tqD64BoQtXgz1kgwDY8QsRoD4b7Pio6T/IsTO+RMoADrvxdCKQQehAwjz4EzKIH3aWn6QKAdFJdXS1Jys/PN1tIsnz1lXThhdIrr9hv/+lPpYcekn7wg6SW5UiklbKBldg9+0s77CXVr7T2dxJgDzoidVdcS1Ztw0tDPweB23bPNdznbHip8edqrAcjBdcdL+opOftcA2nIdb8LgRRDDwLm0YeAWfSgu7DyGkColhbp3nulsWPtg+uddpIefVR67rn0DK7tVsr2yLH+73SlbCoH1wFOLjQZTUjrNk4+J+l+UU8AAAAAAFII4TXgVuHGP6xcKR1yiHT55dKWLaHbT/2Ftc+ZZ0pZWYmro7vHRbtS1i1BYzTPleA6VFOddcHKYJE+J+E+12sWGR+7AgAAAABAOiG8BtyofpW0fHLngLapSfrd76R99pHefTf0mMJC6U/XSL/JlvpsDN0erzqiUVNmHRfuAoKslLUX6bmWn0NwbSdngDXTPLtP+32ZeFFPAAAAAABSEOE14Db1q9ov4BcIaD/4QNpvP2nGDCvEDjZ5svTa76WRK9ov3BcuOO5OHdEIBNPh6mClbGThnmuTzQsSbg+uA/KK2wNsJ5+TdLmoJwAAAAAAKYrwGnAgNzdXubm5psuIXVNde2AsSY0t0vTp0oQJ0scfh+6/xx7Sv/8tzfiJVPeP9vsDwXF3Rn50rEOKLsAOXlFtVwcrZbsWLsDuKEWDa2M9mFcsjZ/r/HNSWGIdR3CNDJL2vwuBNEcPAubRh4BZ9KC7ZPn9fr/pIpA5PB6PvF6vCgoKVF5ebroc2AkEwOXrpdv/K9VsDd2nRw/pN7+RbrpJ8r2UmHESTucrO90/sLJ7eKmzOmvKrBXXblgpW36O/YrrnIHWBS0BAAAAAAAM6mm6AABJ1vdI6Y8PSo/ZzLWWpL33lubPt8aIJPICfoHjg88fuN3x/LHUEVgp63TldGGJNOiIzFxx3VFNmX1wLVn315Sl5MprAAAAAADgHowNARzwer3yer2my4jd009LY8ZIj70Suq1XD+nCkdKS6xMfXAdEc7HE7tQRawDthuDa7nPaUYpesDLtexDIAPQhYBY9CJhHHwJm0YPuwsprwIHa2lpJUkFBgeFKbDTVhQ9da2ulyy6THn/cfvteA6Rrx0m79pdq/iKtfzZ5F/CLtAJ77VNcSDDewgXXOQNDP9d2q+ANS+keBFyCPgTMogcB8+hDwCx60F1YeQ1kgvpV0vLJoStl/X7p0Uel0aPtg+t+udJlu0n3720F1wHJDozDrcAmuI6vSKvYPQu7XgUPAAAAAACQRKy8BtJd4MKELQ2dV8pWV0sXXSS9+KL9cUfuI00ZIO3c1wqJWzZL2f3t901GYBxuBXay68hU0YxfcTKHHAAAAAAAIMFYeQ2ks6a69uA64Mv50q0XWLOt7YLrgQOley6Tbim0gmvJGhmx5UvJ3xy6f87A5IWWhSXW49lJZh2Zxsnc8GjmkAMAAAAAACQB4TWQznIGSMNL229/tVm65G3p+nnSli2h+592mvSvO6X9/ydlZbXf37hW6j1YyuoVekzTxuSFljVl9qNCkl1HJmmqk9YsCr0/0ir2cAH2mkXW+eJRUzKPAwAAAAAAaYmxITZaWlpUVVWlioqKtv8qKyvV3GytSp04caKeeOKJmM69dOlSLV68WMuWLZPX61Xv3r2188476/DDD1dpaan22GOPeD6VlHv8dJefn2+6hFCFJVLzdun2G6QFn0nNrTb7FEoPPCDt3xq6ArdxrRVk945woYNkjI0Itzo42XVkmpwB0qiZnVfoRzN+JXiESHYf6zzhLgoarcCYm+Glzr6ONWXSmkXK3/EKKXfn7tUAoFtS8nch4CL0IGAefQiYRQ+6S5bf7/ebLiKVvPjii5oyZYoaGhrC7hNLeF1fX6+rrrpKS5YsCbtPr1699Jvf/EaXXnqpo3On0uN7PB55vV4VFBSovLw85vPAgfJyadIkqaLCfvsvj5Luf1za+u/og+ucgcm9WGK44DrZdWSybobGGjVTyiuOTw1OQvRADcEhendrAQAAAAAAKY+V10G+++67iMF1LJqbmzVp0iS99dZbbfcVFxdr7Nix2rZtm95//33V1taqublZs2bN0vbt2zVt2rSMeXwkSEODdNNN0p13Sq02q62H9ZWu2Vvy9Ja+uDw0BA4XXAcCRbtAORErn7uax5ysOjJdXrE0fq7zldOFJdKgI7q/4tpuPns0X8fgr39Lg3WeWJ4LAAAAAABIK4TXYQwePFjjxo3T+PHjNW7cOL3++uuaP39+TOeaM2dOW3Ccm5ur2bNn6+c//3nb9qamJt1xxx168MEHJUl33XWXJkyYoIkTJ3b/iaTA42eS6upqSVJRUZHZQv7zH+n886XPPw/d1qOHdPqu0vkjpdxs6z6nwbUUOjYiIJ7BcTQXEkxGHW4Ra9gbj5A4MJ/dydfR5vujumGktNPBKiK4BoxJmd+FgEvRg4B59CFgFj3oLlywMciRRx6p999/X8uXL9fChQs1bdo0/fCHP9SOO+4Y0/nWr1+vhx9+uO32TTfd1Ck4lqScnBxdf/31OuGEEyRJfr9ft99+e+xPIoUeP9P4fD75fD5zBXz3nXTRRdIRR9gH13vtJb37rvSHO9uD62DRBNcB4S7cV72g+xdPjCa4TkYdSB4nX8cw3x++3EPk04gEFQggGsZ/FwIuRw8C5tGHgFn0oLsQXgcZMmSIhg0bFrfzLV68WFu3bpUkjRgxQmeeeWbYfa+//nr16GF9ScrLy7VixYq0f3zE0bPPSmPGSHPnhm7LyZFmzpQ+/FDaf38rJMwZGLpfa5PUtD664DogXOC4ZpE1CiIWTXXW8cGSXQeSL5oAO9ILG/12S2x9AAAAAAAgZRBeJ9iLL77Y9vGpp56qrKyssPsOGzZMBx98cNvtF154Ie0fH3Hw7bfSGWdIP/uZ9M03odsnTpQ++ki64QYrxJas8M/uQoc9cqS+u0nNHbZFc9G84MAxcNG87oyhGDXTOo/JOmBGpAC7/JzoV+QDAAAAAICMRnidQI2NjVq2bFnb7WhmSB900EFtH3e8wGI6Pr5rdGf1cSR+v/TYY9KoUdIim1XK/fpJ99wjLV0qjR7dfn+4VasBPftLWTlWgO0kEAwEjoHAOK84uuPCyStuD7BN1gEzwgXYdi+6EFwDAAAAAOBKXLAxgb744gu1trZKkrKysjR27Nguj9lrr73aPv7ss8/S+vFdoX6VVDnDuhCdk3CtpswadxEufF292ppt/fzz9scffbQ1PmTXXUPPaxdc5wzsHAr27G+NEHGqsEQadET8VjrnFUvj5zo/X7zrgBnhLsbZEcE1AAAAAACuRXidQF988UXbx4MGDVJubm6Xx3Sct+3z+bRhwwbttNNOaff4ra2tqqmpibhPYWGh4/OaNnTo0PYbgeC6paE9fIsmZOsYMFfO6Bxgt7ZKDz0kXX21tHlz6LEDBkh33y2dfbZ10cVw5+0oEP4Fb++R46zugHgHxt0ZPYL0V1girX3KfsV1zsCQ781OPQjACPoQMIseBMyjDwGz6EF3IbxOoLq69rEQgwYNiuqYwYMHh5wj1vDa5OOvW7dO+++/f8R9nrdZVTxu3DhJVnBeXV0dsj03N1cjR46UJHm9XtXW1obsk5+fr6KiIklSdXW17RVohw4dqoIC66KFVVVVamxsDNmnqKhI+fn5kqSKiopO22rXfi2t/49G9pFys6XGlj6qWrFK+uqpkAvKdXpOK1+XNq+S1D6eJff9xzXy0EulL9ep6eyzlfP++yG1SJJOOUW6915Vb9sm33//23nbli81tOkVFfS2blZtGa/G1r5S/1HSt7tJ31ZIGqGiQecpf70VWFfUf19DUN0jR45Ubm6uGhsbVVVVZVtKunydAnhOKfyctnwpbbZevBnZ9yPlZjdY/bR1H2v720916qm0eE4dZMzXiefEc7J5TrW1tRn3nKTM+zrxnHhOPCeeE88pcc+ptrY2456TlHlfJ55T5j2ngoIC+Xw+2/Ok63OSQr9OgfvdjpnXCbR169a2j6NZ9Wy3X8dzpNvjZ7QevaV+e4bev7nSCuPsfPtva3uwfqOkux6Sxo2zDa6bBw3Suocekh5/XPr+B2cnW760P2//USFBugYfaT9nOFLdQKKE+97tiO9NAAAAAABcK8vv9/tNF5EO7rrrLs2ePVuSdeHDJ554ostj7r77bt15552SpAMPPFBPPvlkl8e0trZql112abtdVlamAw44IKaaTTy+x+OR1+vVkCFD9Nxzz0XcNx3HhgReJQu8itflqI6AcPttOly65jFp+XL7B5w0SfrDH6xxIXaa6qTlk63RJZEeP5hdPdl9Yps/DcQi2vnsAd9/T4f0IICkow8Bs+hBwDz6EDCLHnQXxoYkUMdVzE1N0V0cb9u2bWHPkU6P36NHj7QMp7sS8jaRcBec6zhL2i6k29Yi/bOP9OA1UktL6AONGCE9/LD0ox9FLihngDUzOzB7W4ruAnfBdWf3sc5DcI1kcDqfXWq73dg4IgkFAojE7i2TAJKHHgTMow8Bs+hBdyG8TqC+ffu2fRxtYwXv1/Ec6fb4rhEpwLa7EN1HG6Q7v5K+XBt6rh49pKlTpZkzpX79onv8vOL2AHt4afQXXwzst2ZR54tGAokUzbsVIvWUf1LoOBwAAAAAAJCRCK8TaECHUQ/r16+P6phvv/027DnS7fFdJVzY1jG43tIsPbBKKgu9SIIkaexYaf58KZYxMXnFsY38KCyRBh3BimskR7RjdqTwPdU2I5sLVwAAAAAAkOm4YGMC7b777m0fr1+/PqrVz998803bx/n5+dppp53S9vFdp7DE/mKIkvRWrfTL/9gH1716STffLJWXxxZcB8QaQBNcIxma6qxV/sEijbkJ11NbPrPOBwAAAAAAMhrhdQLtvvvu6tHD+hT7/X598sknXR7z8ccft3285557pvXju1JhiXXBuYC6bdJNy6QrP5DW2bx4MGGC9NFH0owZUk5O8uoEki0wnz27T/t90c5n7xhgZ/WUBhzAiy4AAAAAALgA4XUC5ebmat999227/c4773R5zLvvvtv28cEHH5zWj5+JioqKVFRUFH6HmjJrVIjfL738jbXa+uWa0P369pXmzJHefFMaMyZh9QIpJTCfPbtPdMF1QCDAzu6jojFHqWgPRoYAJnX5uxBAQtGDgHn0IWAWPeguhNcJdswxx7R9/Pjjj0fc95tvvtGbb75pe2y6Pn6myc/PV35+vv3GwDzf2gZrpfVNH0m+ptD9DhsnrVghXX65lJ2d0HqBlBOYzx5tcB1QWCKNn6v8wvHhexBAUkT8XQgg4ehBwDz6EDCLHnQXwusEO+WUU9S3b19J0hdffKG//e1vYfe97bbb1NLSIknyeDzaa6+90v7xXaOmTPpyvvTkV9Zq67fXhe6T10u6bpx0+3Cp9/JkVwikDuazAwAAAACAKBBeJ9igQYN04YUXtt2+4YYbtGTJkk77NDc367bbbtNTTz3Vdt+1114b8bwHHnighg0bpmHDhmnq1KlJf3y3qqioUEVFRec7a8qkpfdKv35HunOFtHV76IFH7iz97XDpuF2krCxrhXZNWXKKBjKIbQ8CSCr6EDCLHgTMow8Bs+hBd+lpuoBUdNZZZ8nr9Xa679tvv237uKKiQkcddVTIcY8++qgKCgpC7p86dao++OADvfXWW2psbNTFF1+se++9V2PHjtW2bdv03nvvqba2tm3/6dOna+LEiXF7PqYfP6NVL5ZmzZAWfCo1tYZuLyiQ/vhHacL3gXWnY7+/7XR8AgAAAAAAAOAChNc2Pv30U61Zsybs9q1bt2rlypUh9zc3N9vu36tXL82bN09XXXWVnnnmGUlSZWWlKisrQ/a74oordNlll3Wj+tR7/Iz18l3SpTOlTzfZbz/vPOnOO6UBHUYdEGADAAAAAAAAUSG8TpIddthBDz30kM444wwtXrxYy5YtU21trXr16qXCwkIdfvjhKi0t1Z577pmRj59JshobpaumSbPvkVr8oTvstpv08MPSj3/c+f5AQB0cYK9ZJA06gnm+AAAAAAAAQAeE1zbee++9hJ37sMMO02GHHdbt88RaY7we3636LVum4TffLFVXh27MypKmTpV+9zupXz/7EwQH2Nl9pFEzCa4BAAAAAACAIITXQDQ2bZKuvVZ7PPCA/fb/20Va+Lg0YULX5woE2GsWWcF1XnH86gQAAAAAAAAyRJbf77eZewDExuPxyOv1qqCgQOXl5abLiZ/jj5eeey70/l69pKunSdfPlHr3dnbOpjpWXAMONTY2SpJyc3MNVwK4F30ImEUPAubRh4BZ9KC7sPIaiMZNN0kvvCC1trbfd8AB0vz50tixsZ2T4BpwjH+cAObRh4BZ9CBgHn0ImEUPuksP0wUAaWG//aQrrpAk+fv0kWbPlt5+O/bgGkBMGhsb215lB2AGfQiYRQ8C5tGHgFn0oLsQXgPRuvlmbTzhBK1avFiaNk3KzjZdEeA6VVVVqqqqMl0G4Gr0IWAWPQiYRx8CZtGD7sLYECBafftq9cyZpqsAAAAAAAAAXIGV1wAAAAAAAACAlEN4DQAAAAAAAABIOYTXAAAAAAAAAICUQ3gNAAAAAAAAAEg5WX6/32+6CGQOj8cjr9ergoIClZeXmy4HAAAAAAAAQJpi5TUAAAAAAAAAIOUQXgMO+Hw++Xw+02UArkUPAubRh4BZ9CBgHn0ImEUPuktP0wUA6aS6ulqSlJ+fb7YQwKXoQcA8+hAwix4EzKMPAbPoQXdh5TUAAAAAAAAAIOUQXgMAAAAAAAAAUg7hNQAAAAAAAAAg5RBeAwAAAAAAAABSDhdsBBzIzc01XQLgavQgYB59CJhFDwLm0YeAWfSgu2T5/X6/6SKQOTwej7xerwoKClReXm66HAAAAAAAAABpirEhAAAAAAAAAICUQ3gNOOD1euX1ek2XAbgWPQiYRx8CZtGDgHn0IWAWPeguhNeAA7W1taqtrTVdBuBa9CBgHn0ImEUPAubRh4BZ9KC7EF4DAAAAAAAAAFIO4TUAAAAAAAAAIOUQXgMAAAAAAAAAUg7hNQAAAAAAAAAg5fQ0XQCQTvLz802XALgaPQiYRx8CZtGDgHn0IWAWPeguWX6/32+6CGQOj8cjr9ergoIClZeXmy4HAAAAAAAAQJpibAgAAAAAAAAAIOUQXgMOVFdXq7q62nQZgGvRg4B59CFgFj0ImEcfAmbRg+5CeA044PP55PP5TJcBuBY9CJhHHwJm0YOAefQhYBY96C6E1wAAAAAAAACAlEN4DQAAAAAAAABIOYTXAAAAAAAAAICUQ3gNAAAAAAAAAEg5PU0XAKSToUOHmi4BcDV6EDCPPgTMogcB8+hDwCx60F0IrwEHCgoKTJcAuBo9CJhHHwJm0YOAefQhYBY96C6MDQEAAAAAAAAApBzCa8CBqqoqVVVVmS4DmaypLrnHpRl6EDCPPgTMogcB8+hDwCx60F0IrwEHGhsb1djYaLoMZKr6VdLyyVJNmbPjasqs4+pXJaauFEIPAubRh4BZ9CBgHn0ImEUPugvhNQCkgvpVUuUMqaVBql4QfYBdU2bt39JgHe+CABsAAAAAALgD4TUAmNZU1x5cB0QTYAeC64BAgO2SESIAAAAAACCzEV4DgGk5A6ThpaH3Rwqwg4PrgOGl1vkAAAAAAADSHOE1AKSCwhKp6LzQ++0C7HDBddF51nkAAAAAAAAyQE/TBQDppKioyHQJyGSB4Dk4mA7cLixxfXBNDwLm0YeAWfQgYB59CJhFD7pLlt/v95suApnD4/HI6/WqoKBA5eXlpssB0lO4gDpnoNS0MfR+lwTXAAAAAADAXRgbAgCpJtwIEYJrAAAAAADgIoTXgAMVFRWqqKgwXQbcIFyA3ZELg2t6EDCPPgTMogcB8+hDwCx60F0IrwEgVRWWWKNC7OQMdF1wDQAAAAAA3IXwGgBSVU2Z/agQybq/piy59QAAAAAAACQR4TUApKJwF23sqHoBATYAAAAAAMhYhNcAkGrCBdd2I0QIsAEAAAAAQIYivAaAVBIuuC46T/IstL+IIwE2AAAAAADIQD1NFwCkk5EjR5ouAZksUnAduDhj4P/B+wVuZ/hFHOlBwDz6EDCLHgTMow8Bs+hBdyG8BhzIzc01XQIyVTTBdYCLA2x6EDCPPgTMogcB8+hDwCx60F0YGwI40NjYqMbGRtNlINM01UlrFoXebxdcBxSW2I8QWbPIOl+GogcB8+hDwCx6EDCPPgTMogfdhfAacKCqqkpVVVWmy0CmyRkgjZopZfdpvy9ScB0QHGBn97HOkzMgMXWmAHoQMI8+BMyiBwHz6EPALHrQXQivASAV5BW3B9jRBNcBgQA7EFznFSe2TgAAAAAAgCRh5jUApIq8Ymn8XOcrpwtLpEFHZPSKawAAAAAA4D6svAaAVBJrAE1wDQAAAAAAMgzhNQAAAAAAAAAg5RBeAwAAAAAAAABSTpbf7/ebLgKZw+PxyOv1qqCgQOXl5abLAQAAAAAAAJCmWHkNAInWVJfc4wAAAAAAADIA4TXggM/nk8/nM10G0kn9Kmn5ZKmmzNlxNWXWcfWrElNXmqIHAfPoQ8AsehAwjz4EzKIH3aWn6QKAdFJdXS1Jys/PN1sI0kP9KqlyhtTSIFUvsO4rLOn6uJqy9v0rZ0ijZkp5xYmrM43Qg4B59CFgFj0ImEcfAmbRg+7CymsASISmuvbgOqB6QdcrsDsG15J1fOUMRogAAAAAAADXIbwGgETIGSANLw29P1KAHRxcBwwvtc4HAAAAAADgIoTXAJAohSVS0Xmh99sF2OGC66Lzohs1AgAAAAAAkGEIrwEgkaIJsAmuAQAAAAAAQnDBRsCB3Nxc0yUgHQUC6OCAunqBtPYpqWlj6DEE17boQcA8+hAwix4EzKMPAbPoQXfJ8vv9ftNFIHN4PB55vV4VFBSovLzcdDlAagm3wjoYwTUAAAAAAABjQwAgacKNEOmI4BoAAAAAAEAS4TXgiNfrldfrNV0G0llhiZQz0H5bzkCC6y7Qg4B59CFgFj0ImEcfAmbRg+5CeA04UFtbq9raWtNlIJ3VlNnPuJas+wMXcYQtehAwjz4EzKIHAfPoQ8AsetBdCK8BIFmimXldvYAAGwAAAAAAQITXAJAc4YJruxEiBNgAAAAAAACE1wCQcOGC66LzJM9C+4s4EmADAAAAAACXI7wGgESKFFwHLs5YWEKADQAAAAAAEKSn6QKAdJKfn2+6BKSTaILrgMDt4P0Dt4P3dyl6EDCPPgTMogcB8+hDwCx60F2y/H6/33QRyBwej0der1cFBQUqLy83XQ5gTlOdtHyy1NLQ+X674Loju8A7u480fq6UMyD+dQIAAAAAAKQoxoYAQCLkDJBGzbSC54CugmspdIRIdh/rPATXAAAAAADAZQivAQeqq6tVXV1tugyki7zi9gA7muA6IBBgB4LrvOLE1plG6EHAPPoQMIseBMyjDwGz6EF3IbwGHPD5fPL5fKbLQDrJK7ZGfjidWV1YYh1HcN0JPQiYRx8CZtGDgHn0IWAWPeguhNcAkGixjvxgVAgAAAAAAHAxwmsAAAAAAAAAQMohvAYAAAAAAAAApBzCawAAAAAAAABAyulpugAgnQwdOtR0CYCr0YOAefQhYBY9CJhHHwJm0YPuQngNOFBQUGC6BMDV6EHAPPoQMIseBMyjDwGz6EF3YWwIAAAAAAAAACDlEF4DDlRVVamqqsp0GYBr0YOAefQhYBY9CJhHHwJm0YPuwtiQBHv77bd1yimnxHz87Nmzddppp8V8/D/+8Q9dccUVjo4pLS3VnXfeGfNjZrLGxkbTJQCuRg8C5tGHgFn0IGAefQiYRQ+6CyuvU9yQIUNMlwAAAAAAAAAAScfK6wQrKCjQueeeG/X+//nPf/Tll19KkgYPHqxDDz00brXsscceOuSQQ7rcb7/99ovbYwIAAAAAAABALAivE2zEiBG69dZbo9q3paWlU3BcUlKinj3j9yXaZ599oq4FAAAAAAAAAExibEgKef3117Vu3bq2292ZlQ0AAAAAAAAA6YyV1ylk8eLFbR+PHTtWo0ePNlgN7BQVFZkuAXA1ehAwjz4EzKIHAfPoQ8AsetBdCK9TxHfffadXXnml7TarrlNTfn6+6RIAV6MHAfPoQ8AsehAwjz4EzKIH3YWxISnimWeeUWNjoySpV69eKikpMVwRAAAAAAAAAJjDyusU0XFkyA9/+EPttNNOcX+MTZs26ZlnntGnn36qTZs2KS8vT0OHDpXH49GoUaOUlZUV98fMNBUVFZKkcePGGa4EcCd6EDCPPgTMogcB8+hDwCx60F0Ir1PA//73P3344YdttxM1MuSll17SSy+9ZLttt912069//WudfvrphNgAAAAAAAAAjCO8TgFPPPFE28cDBgzQj370o6TX8OWXX2r69Ol68cUX9eCDD6pv377dOl9ra6tqamoi7lNYWNitxwAAAAAAAACQuQivDfP7/XryySfbbpeUlCgnJyeujzFs2DAdf/zxOuSQQ1RcXKyddtqpLVx+8803tWDBAn3++eeSpFdffVW//vWvNX/+fPXoEftI9HXr1mn//fePuM/zzz8fcl/gLR8+n0/V1dUh23NzczVy5EhJktfrVW1tbcg++fn5bVeera6uls/nC9ln6NChKigokCRVVVW1zRvvqKioqO0iAIG3pGzYsKHT7ZEjRyo3N1eNjY2qqqqyfZ6p/pyC8Zx4Tqn8nAIy6Tll4teJ55TZz6nj78JMeU4d8Zx4Tqn+nAIy6Tll4teJ55TZz6nj78JMeU4d8Zx4TunwnLZt22Z7nnR+TsFfJ8aiWAivDXvnnXe0evXqttvxHhlyzDHH6JRTTrENonfffXftvvvuKi0t1TXXXKN//OMfkqSXX35ZZWVlOumkk+JaCwAAAAAAAABEK8vv9/tNF+Fm06ZN0+OPPy5JKi4u1muvvWakjtbWVp188sl67733ulWLx+OR1+vVkCFD9Nxzz0XcN93GhtTU1LStJv/ggw/Srn4g3dGDgHn0IWAWPQiYRx8CZtGD7sPKa4MaGho6jc5I1IUao9GjRw9NmzZNp59+uiRp1apVqqmpifmHQI8ePfgBAgAAAAAAACBmsQ81Rrc9//zz2rx5syQpOztbJSUlRuuZMGGCevXq1XY7MAcbAAAAAAAAAJKN8NqgxYsXt318+OGHd7oAiwm9evXSwIED225v3LjRYDUAAAAAAAAA3Izw2pCamhq99dZbbbdNjgzpaOvWrW0f9+3b12AlAAAAAAAAANyM8NqQJ598Uq2trZKkHXfcUUcffbThiqTq6mrV19e33Ta9EhwAAAAAAACAexFeG9JxZMjPfvYz5ebmGqzG8ve//73t4x122EFjxowxWA0AAAAAAAAANyO8NuCjjz7qdDHEU089NSGPs2XLlqj3/eCDD/Twww+33T7hhBPUs2fPRJQFAAAAAAAAAF0ivDag46rrESNGyOPxODp+9erVGjZsWNt///jHP2z3e/bZZ3Xcccdp8eLF2rRpk+0+jY2Nmj9/vk4//XQ1NjZKssaYXHHFFY5qAgAAAAAAAIB4YmltkjU1Nenpp59uu53oCzUuX75cU6dOVc+ePbXHHnto9913V35+vlpaWuT1elVeXt5pznVubq4WLFgQ87zr9evXS5LWrVvnOJRPdYEZ5ZJ03HHHqUcPXvsBkokeBMyjDwGz6EHAPPoQMMttPThkyBC98MILpsswivA6yV599VX5fD5JUo8ePXTyyScn5XG3b9+uVatWadWqVWH32WeffXT33Xdrzz33jPlxAj9EWltb5fV6Yz5Pqlu3bp3pEgBXowcB8+hDwCx6EDCPPgTMogfdgfA6yTqODDn44INVWFiYsMc68cQTNWLECJWXl6u8vFzV1dXauHGj6urq5Pf7lZeXp1122UX77ruvjj/+eB1wwAHdfszevXtr27Ztys7O1k477RSHZwEAAAAAAAC4z5AhQ0yXYFyW3+/3my4CAAAAAAAAAICOMnswDAAAAAAAAAAgLRFeAwAAAAAAAABSDuE1AAAAAAAAACDlEF4DAAAAAAAAAFIO4TUAAAAAAAAAIOUQXgMAAAAAAAAAUg7hNQAAAAAAAAAg5RBeAwAAAAAAAABSTk/TBQCprqmpSUuWLNHTTz+tqqoqrV+/XjvuuKN22WUXHXvssTr11FM1cOBA02UCGWf16tV644039O6776qyslI1NTXasmWL+vfvr5133ln77ruvSkpKNHHiRNOlAq5000036ZFHHmm7PXz4cL333nsGKwIy38cff6xnnnlGS5culdfrlc/n04ABAzR48GCNGTNGBx10kA477DANGTLEdKlARvnwww/1z3/+U8uWLdOaNWu0efNm5ebmatCgQRo7dqyOOeYYHXvsserdu7fpUoG00dLSoqqqKlVUVLT9V1lZqebmZknSxIkT9cQTT8R07qVLl2rx4sVatmyZvF6vevfurZ133lmHH364SktLtccee8TzqSDBsvx+v990EUCq+vzzz3XJJZfok08+CbvPoEGDNHv2bP3oRz9KYmVA5lqxYoWuueYaffTRR1HtP3HiRN1zzz0aNmxYgisDEPDRRx/phBNOUGtra9t9hNdA4qxfv14333yznnzyyS73Pffcc3XrrbcmoSog823cuFHTp0/XSy+91OW+u+66q+bMmaP9998/CZUB6e3FF1/UlClT1NDQEHafWMLr+vp6XXXVVVqyZEnYfXr16qXf/OY3uvTSSx2dG+aw8hoIo6amRqeddpq8Xq8kKSsrSxMmTFBRUZE2bNigpUuXqrGxUevXr9ekSZP017/+VYcccojhqoH098UXX4QE1yNGjFBxcbEGDBigTZs26cMPP9TatWslSe+8845OOOEEPfnkkyoqKjJRMuAqzc3NuvLKKzsF1wAS55tvvtHJJ5+sr7/+uu2+3Xffve33YkNDg6qrq/XJJ59EDAEAONPQ0KDTTz+900KmnXbaSWPHjtXOO++sDRs26NNPP1V1dbUk6auvvlJpaakef/xx7bvvvqbKBtLCd999F/ffWc3NzZo0aZLeeuuttvuKi4s1duxYbdu2Te+//75qa2vV3NysWbNmafv27Zo2bVpca0BiEF4DYUyZMqUtuB4+fLgWLFigMWPGtG3fuHGjLr74Yr355ptqbm7W5MmT9fbbb2vHHXc0VTKQUXbddVedccYZ+sUvfqGdd96507bW1lY9/vjjuv7669XQ0CCv16spU6ZoyZIlysrKMlQx4A5//OMfVVlZKUkqKSlRWVmZ4YqAzLVp0yadcsopbcH1QQcdpJtvvlmjR48O2bepqUlvvfWWNm/enOwygYz0wAMPtAXXWVlZuvLKK3XhhReqT58+bfv4/X4tWbJE11xzjTZt2qSGhgZdddVVevXVV02VDaSVwYMHa9y4cRo/frzGjRun119/XfPnz4/pXHPmzGkLrnNzczV79mz9/Oc/b9ve1NSkO+64Qw8++KAk6a677tKECRMYQ5kGGBsC2Hjttdd09tlnS5JycnL0/PPPa9SoUSH7bd26VT/+8Y/bXm2fMmWKrr322qTWCmSad955R19//bVOPvlkZWdnR9z3hRde0Pnnn992+7HHHtMRRxyR4AoB9/r888919NFHa9u2bfrFL36hQw45RFdccYUkxoYAiXDllVfqb3/7myTphBNO0P3339/l70YA8XHggQdqzZo1kqRJkyZp5syZYfd99tlnNXny5Lbbr776qu3fjwAs69atU3Nzc8jox7vuukuzZ8+W5GxsyPr16zVx4kRt3bpVkjRr1iydddZZtvtefPHFbWNFPB5PxBEjSA09TBcApKI///nPbR+fcsopYf/h0bdvX02fPr3t9l//+ldt37490eUBGW3ixIk67bTTovrj/Kc//an22WefttuvvfZaIksDXM3v92v69Onatm2b8vPzdeONN5ouCchoK1asaAuuCwsL9Yc//IHgGkiS+vr6tuBakk488cSI+x9zzDGdVmT/73//S1RpQEYYMmRIXK9ZtHjx4rbgesSIETrzzDPD7nv99derRw8rDi0vL9eKFSviVgcSg/AaCLJly5ZOM5JOPfXUiPsfe+yx6tevnyTJ5/Pp3XffTWh9ADrbb7/92j5evXq1wUqAzLZw4UJ98MEHkqx/9A8aNMhwRUBme/TRR9s+Pvfcc9W/f3+D1QDusmXLlk63uxoN2bNnT+Xl5bXd5roQQHK9+OKLbR+feuqpEUdJDhs2TAcffHDb7RdeeCGhtaH7CK+BIB9++KG2bdsmyVpZPX78+Ij75+bmyuPxtN3uGHwDSLyO/zBpaWkxWAmQub755hvdfvvtkqy3UZ9++umGKwIyW0tLi55++um228cee6zBagD32WmnnZSbm9t2+9NPP424/4YNG7R+/fq223Zz6QEkRmNjo5YtW9Z2O5oZ1gcddFDbx2Q4qY/wGgjy2WeftX1cXFysnj27vq7pXnvt1fbx559/npC6ANhbtWpV28eFhYUGKwEy129/+1tt3rxZOTk5+v3vf8+FUYEEW7Vqlerr6yVJO+ywg3bddVdt375d//jHP3Tqqadq/Pjx2m233eTxeHTmmWdq4cKFbYsvAHRfr169dOSRR7bdvueee9TQ0BB2/1tvvbVttfUh/9/enQfHfD5wHP9EpCElVhxpBUUSU6oxjpZSzPwaRhyDKVJ1TmcYx4whUhGGopOj1arqMWmnU6VNG6GtUMeocatz4khDNahBEEekQuTA/v7I9Pvb3eZYZLPf3+b9munM99k8j378sbL72e8+z6uvKjg42OUZAZQ6e/as8fzz8vJShw4dKl1j2+HYdkAwJ8prwMHZs2eN6+bNmzu1xrYwo7wGqk92drbdJ+W9evVyYxrAM6WlpWnbtm2SpKlTpyo0NNTNiQDPd/z4ceO6WbNmunz5soYOHaqoqCjt27dP169fV3Fxsa5evaodO3Zo7ty56tWrl44dO+a+0ICHmTNnjrE9ZEZGhsLDw5Wamqq//vpLhYWFys7O1rZt2zRs2DCtXr1aktS2bVvjsDkA1cO2w2ncuLHdtybKY7vfdl5enm7evOmSbKgald9SCtQwt27dMq6bNGni1JqmTZsa13l5eVUdCUA5Fi5caGwVEhQUpL59+7o5EeBZcnNzNX/+fEmlh99Mnz7dzYmAmuHy5ct247Fjx+r06dOSpJCQEHXs2FHe3t46deqUMjIyJJV+oDt8+HD99NNPCgsLq/bMgKcJCQnRunXrNGHCBGVnZ+v8+fOaOXNmmXMbNGig119/XTExMexPD1Qz2w7H2TNZHLueW7duqVGjRlWaC1WH8hpwYHs4hzOf2DnOczzcA4BrpKamatOmTcY4NjZWvr6+bkwEeJ6FCxcad6IkJibyHAOqye3bt43rf7bHqlu3rj766CMNHjzYbu6+ffs0efJk5ebm6t69e5oyZYp27Nihp556qlozA56offv22rNnj3744QfFxcWpoKCgzHl9+vTRkCFDKK4BN7B9Xj5Oh+P4Z8B82DYEcGC7X6CPj49Ta2zfHBQWFlZ5JgD2jh8/rtjYWGM8dOhQDRs2zI2JAM+za9cu/fjjj5KkESNG2J3KDsC1ynoT/cknn/yruJaknj17asWKFapVq/St3fnz5/Xzzz+7PCNQE+Tm5io2NlYLFy5UQUGBmjZtqgEDBmj06NEaPHiwsc3k+vXrNWTIEM2ePZsDxIFqZtvBOPvBreMNGfQ45sad14AD23/ESkpKnFpTXFxsXDv7SR+Ax3PhwgVNmDDBeIHRrl07JSYmujkV4FkKCgoUExMjSWrYsKEWLFjg5kRAzeL4prpLly6KiIgod37Xrl0VERGhjRs3Siot0iIjI12aEfB0586d08iRI3XlyhX5+voqLi5OY8aMUe3a/6tRrFar0tLSNGfOHOXn5ys5OVne3t5KSEhwY3KgZrHtYGy7mYo4HnJMj2Nu3HkNOPjnUA7J+U/fbOfZrgdQtXJycjRq1Chdu3ZNkvTcc88pOTlZ9evXd3MywLMkJibq4sWLkqQFCxYoICDAzYmAmsXx9WRFxXVZc44cOVLlmYCa5P79+5o4caKuXLkiSUpISNCECRPsimtJ8vLy0tChQ/Xll18aj61atUpHjx6t1rxATebn52dcP06H4/hnwHworwEHDRs2NK6vX7/u1Jp/ijRJslgsVR0JgEq/tjlq1CidP39ekhQYGKiUlBQFBga6NxjgYTIyMrRixQpJUo8ePTRy5Eg3JwJqHtvXo5IUGhpa6RrbOXfu3NGdO3eqPBdQU2zcuNHYbz44OLjS34W9e/dWr169jPHq1atdmg/A/9j+zrxx44ZTaxy7HsffuzAXtg0BHAQHBxvXly5dcmqN7YnwISEhVZ4JqOny8/M1evRonT59WpIUEBCglJQUtWzZ0s3JAM9z8uRJPXz4UFLp77dBgwaVOzc3N9e4vnbtmt3cGTNmKDw83HVBAQ9m+3pUcu6bfY5z7ty5w+FxwGPauXOncd2jRw95eXlVuqZnz57as2ePJOnEiROuigbAge3vzBs3bqiwsLDSbUCys7ONa4vFokaNGrksH54c5TXgwPaulT/++EP379//19fDHGVkZBjXlNdA1SooKNDYsWONNwH+/v5KTk5W27Zt3ZwM8Hznz583vu1QmeLiYruvSd+8edNFqQDP9/zzz9uN7969W+kaxzn+/v5VmgmoSa5evWpcO3tHpu0WW7dv367yTADKFhwcrFq1aunhw4eyWq3KzMxUly5dKlxj2+E48+0muBfbhgAOunbtahySU1BQoOPHj1c4v6ioSOnp6ca4Z8+eLs0H1CSFhYWaMGGCDh8+LEmqW7euVq1apbCwMDcnAwDAdVq2bGn37aKsrKxK19jOsVgs7N8JPAHbuzbz8vKcWnPr1i3jukGDBlUdCUA56tSpo86dOxvj/fv3V7rmwIEDxjUdjvlRXgMOnn76abt/vFJTUyucv3nzZmNPQYvFou7du7s0H1BTlJSUaOLEidq3b58kydfXV19//bVeeuklNycDPFtkZKSys7Od+m/p0qXGuubNm9v9LDIy0o1/C+D/n+0BjFu2bKl0vu0cXo8CTyYoKMi4/u2335xa889rVklq1apVVUcCUIH+/fsb15V1ONnZ2dq7d2+Za2FOlNdAGcaPH29cr1mzxthn19G9e/e0ZMkSYzxmzJhKtxgBULkHDx5o2rRp2r59uySpdu3aSkpKUu/evd2cDACA6jFu3Dj5+PhIko4cOaKtW7eWO/fo0aPavHmzMeagVeDJ2B6+eObMGa1du7bC+Xv37tXu3buNcZ8+fVyWDcC/jRgxwvjG0dmzZ/X999+XOzc+Pl4PHjyQJHXp0kUvvvhitWTE46O8BsoQHh6ubt26SSrdFmT8+PE6efKk3Zzc3Fy99dZbxl6gFotFU6dOre6ogMexWq2aNWuWNm7cKEmqVauWli9frn79+rk5GQAA1adVq1YaN26cMZ42bZo2bdr0r3n79+/X+PHjjTfinTt35ncm8IRee+01tWnTxhjHxMRo1apVxvPsH1arVevXr9fEiRONx5o1a6YhQ4ZUW1YAUuPGjTVp0iRjPH/+fK1fv95uTklJieLj47Vu3TrjsdjY2OqKiCfgZbVare4OAZjR5cuXNWjQIOXk5EiSvLy81L17d7Vq1Uo3b97Unj17dO/ePUmld4V+9913dp/QA3g833zzjebNm2eMW7du/Uh3r8TFxbkiFoAyrF69WlFRUZJKtw05ePCgmxMBnqWoqEijRo2ye26FhoaqY8eO8vb21qlTp4wDjSUpMDBQGzZssNvyAMDjSU9P18iRI433fFLpc6xLly4KCAhQfn6+0tPTdfHiRePnvr6+SklJ0csvv+yOyMD/lbFjx9odjipJ169f1/Xr1yVJfn5+ZW7B8+233+qZZ5751+MlJSUaPXq03RY+7dq1U4cOHVRUVKSDBw8a/Y4kRUdHa+bMmVX0t4ErUV4DFThz5oymTp2qzMzMcuc0atRIS5cuVXh4eDUmAzzXhx9+aLeP7qPKzs6uwjQAKkJ5Dbje7du3FRsba3enWFk6deqkL774guIaqEJHjx7V9OnTde7cuUrntmzZUsuXL+d8FsBJ3bp106VLlx553YEDB9SiRYsyf3b79m3Nnj1bGzZsKHe9j4+PoqKiNH369Ef+f8M92JwXqEBISIh++eUXpaWlKS0tTadPn9aNGzfk7++vli1basCAAYqMjFRAQIC7owIAAMAD+fv767PPPtPYsWO1du1aHTp0SFevXtWDBw/UpEkTde7cWYMHD1b//v3l5eXl7riAR+nUqZN27NihrVu3asuWLTpx4oRycnJ09+5d+fn5qXHjxgoLC1O/fv00cOBAY596AO7h7++vpKQkvfnmm1qzZo3S09OVk5MjHx8fNWvWTH369NGoUaMUGhrq7qh4BNx5DQAAAAAAAAAwHQ5sBAAAAAAAAACYDuU1AAAAAAAAAMB0KK8BAAAAAAAAAKZDeQ0AAAAAAAAAMB3KawAAAAAAAACA6VBeAwAAAAAAAABMh/IaAAAAAAAAAGA6lNcAAAAAAAAAANOhvAYAAAAAAAAAmA7lNQAAAAAAAADAdCivAQAAAAAAAACmQ3kNAAAAAAAAADAdymsAAAAAAAAAgOlQXgMAAAAAAAAATIfyGgAAAAAAAABgOpTXAAAAAAAAAADTobwGAAAAAAAAAJgO5TUAAAAAAAAAwHQorwEAAAAPsWDBAgUFBSkoKEidO3fW33///VhrO3XqpLy8PNcFBQAAAJxAeQ0AAAB4iDlz5qhFixaSpJycHC1evNipdUeOHNGKFSuMcXx8vCwWiysiAgAAAE6jvAYAAAA8hJ+fn95//31jnJKSot27d1e4pqioSLNmzdLDhw8lSQMHDlRERIRLcwIAAADOoLwGAAAAPEjv3r0VGRlpjGNiYlRQUFDu/KVLl+rMmTOSJIvFori4OJdnBAAAAJxBeQ0AAAB4mHfeeUeBgYGSpAsXLigxMbHMeb///ruSkpKM8aJFi9SkSZNqyQgAAABUhvIaAAAA8DANGjSwu4N6xYoVOnLkiN2c+/fvKyoqSvfv35ck/ec//9Hw4cOrNScAAABQEcprAAAAwANFRERo0KBBkqSHDx8qOjpaRUVFxs8//fRTZWZmSpLq1atX7t3ZAAAAgLtQXgMAAAAeKi4uThaLRZKUlZWlZcuWSZL+/PNPffzxx8a8uXPnKigoyA0JAQAAgPJRXgMAAAAeqnHjxlq4cKEx/vzzz5WRkaGoqCgVFxdLkrp3765x48a5KSEAAABQPi+r1Wp1dwgAAAAArjNmzBjt2LFDklS/fn3l5+dLkurUqaNff/1Vbdq0cWc8AAAAoEzceQ0AAAB4uPfee0/16tWTJKO4lqTo6GiKawAAAJgW5TUAAADg4YKCgjR58mS7xzp27KhJkya5KREAAABQOcprAAAAwMMVFxcrLS3N7jEvLy83pQEAAACcQ3kNAAAAeLhly5YpKyvL7rFjx47pq6++clMiAAAAoHIc2AgAAAB4sMzMTA0cOFAlJSWSpFdffVV79+6VJPn5+Wn79u1q0aKFOyMCAAAAZeLOawAAAMBDPXjwQNHR0UZx3bdvXyUnJ6t9+/aSpIKCAsXExLgzIgAAAFAuymsAAADAQyUlJenEiROSpPr16yshIUG1a9fWhx9+KG9vb0nSrl27lJqa6s6YAAAAQJkorwEAAAAPdPbsWS1dutQYz5s3T88++6wkKSwsTBMnTjR+tnjxYt28ebPaMwIAAAAVobwGAAAAPIzValV0dLQKCwslSa+88orGjBljNyc6OlqtWrWSJN26dUvz58+v7pgAAABAhSivAQAAAA+zcuVKHTp0SJJUp04dLVmyRF5eXnZz6tatq8TERGOclpambdu2VWtOAAAAoCKU1wAAAIAHuXTpkuLj441xdHS0WrduXebcXr166Y033jDGsbGxunPnjsszAgAAAM6gvAYAAAA8SExMjO7evSupdG/rSZMmVTh//vz5atq0qSTp8uXLSkhIcHlGAAAAwBmU1wAAAICHSE1N1c6dOyVJPj4++uCDD+Tt7V3hGovFonfffdcYr1y5UocPH3ZlTAAAAMAplNcAAACAB7h27ZoWLVpkjKdMmaIXXnjBqbWDBg1S//79JZUe9vj222+ruLjYJTkBAAAAZ1FeAwAAAB5g3rx5ysvLkySFhIRoxowZj7Q+Li5O/v7+kqSsrCwtX768ihMCAAAAj8bLarVa3R0CAAAAAAAAAABb3HkNAAAAAAAAADAdymsAAAAAAAAAgOlQXgMAAAAAAAAATIfyGgAAAAAAAABgOpTXAAAAAAAAAADTobwGAAAAAAAAAJgO5TUAAAAAAAAAwHQorwEAAAAAAAAApkN5DQAAAAAAAAAwHcprAAAAAAAAAIDpUF4DAAAAAAAAAEyH8hoAAAAAAAAAYDqU1wAAAAAAAAAA06G8BgAAAAAAAACYDuU1AAAAAAAAAMB0KK8BAAAAAAAAAKZDeQ0AAAAAAAAAMB3KawAAAAAAAACA6VBeAwAAAAAAAABMh/IaAAAAAAAAAGA6lNcAAAAAAAAAANOhvAYAAAAAAAAAmA7lNQAAAAAAAADAdCivAQAAAAAAAACmQ3kNAAAAAAAAADAdymsAAAAAAAAAgOn8F6MAqrBDGvRbAAAAAElFTkSuQmCC;" vertex="1" parent="1">
          <mxGeometry x="76" y="309" width="634.36" height="480" as="geometry" />
        </mxCell>
        <mxCell id="rl5POnUg0VRBX6LyOwiJ-2" value="" style="endArrow=none;dashed=1;html=1;strokeWidth=2;rounded=0;exitX=0.743;exitY=0.437;exitDx=0;exitDy=0;exitPerimeter=0;fillColor=#d80073;strokeColor=#FF0000;" edge="1" parent="1">
          <mxGeometry width="50" height="50" relative="1" as="geometry">
            <mxPoint x="557.9979999999998" y="518.8693000000001" as="sourcePoint" />
            <mxPoint x="558.3" y="437" as="targetPoint" />
          </mxGeometry>
        </mxCell>
        <mxCell id="rl5POnUg0VRBX6LyOwiJ-3" value="" style="endArrow=none;html=1;rounded=0;entryX=0.952;entryY=0.106;entryDx=0;entryDy=0;entryPerimeter=0;strokeWidth=3;" edge="1" parent="1" target="rl5POnUg0VRBX6LyOwiJ-8">
          <mxGeometry width="50" height="50" relative="1" as="geometry">
            <mxPoint x="165" y="693.05" as="sourcePoint" />
            <mxPoint x="739.932" y="269.9999000000001" as="targetPoint" />
          </mxGeometry>
        </mxCell>
        <mxCell id="rl5POnUg0VRBX6LyOwiJ-4" value="" style="endArrow=none;html=1;rounded=0;strokeWidth=3;" edge="1" parent="1">
          <mxGeometry width="50" height="50" relative="1" as="geometry">
            <mxPoint x="149" y="374" as="sourcePoint" />
            <mxPoint x="180" y="374" as="targetPoint" />
          </mxGeometry>
        </mxCell>
        <mxCell id="rl5POnUg0VRBX6LyOwiJ-5" value="" style="shape=curlyBracket;whiteSpace=wrap;html=1;rounded=1;flipH=1;labelPosition=right;verticalLabelPosition=middle;align=left;verticalAlign=middle;fillColor=#d80073;fontColor=#ffffff;strokeColor=#FF0000;strokeWidth=2;" vertex="1" parent="1">
          <mxGeometry x="570" y="440" width="20" height="80" as="geometry" />
        </mxCell>
        <mxCell id="rl5POnUg0VRBX6LyOwiJ-6" value="오차(e)" style="text;strokeColor=#A50040;align=center;fillColor=#d80073;html=1;verticalAlign=middle;whiteSpace=wrap;rounded=0;fontColor=#ffffff;fontStyle=1" vertex="1" parent="1">
          <mxGeometry x="590" y="465" width="60" height="30" as="geometry" />
        </mxCell>
        <mxCell id="rl5POnUg0VRBX6LyOwiJ-9" value="" style="endArrow=none;html=1;rounded=0;strokeWidth=3;dashed=1;" edge="1" parent="1">
          <mxGeometry width="50" height="50" relative="1" as="geometry">
            <mxPoint x="90" y="741.05" as="sourcePoint" />
            <mxPoint x="170" y="690" as="targetPoint" />
          </mxGeometry>
        </mxCell>
        <mxCell id="rl5POnUg0VRBX6LyOwiJ-10" value="" style="ellipse;whiteSpace=wrap;html=1;aspect=fixed;fillColor=#1ba1e2;fontColor=#ffffff;strokeColor=#3399FF;" vertex="1" parent="1">
          <mxGeometry x="136" y="702" width="10" height="10" as="geometry" />
        </mxCell>
        <mxCell id="rl5POnUg0VRBX6LyOwiJ-12" style="edgeStyle=orthogonalEdgeStyle;rounded=0;orthogonalLoop=1;jettySize=auto;html=1;exitX=1;exitY=0.5;exitDx=0;exitDy=0;entryX=0.164;entryY=0.829;entryDx=0;entryDy=0;entryPerimeter=0;fillColor=#1ba1e2;strokeColor=#006EAF;" edge="1" parent="1" source="rl5POnUg0VRBX6LyOwiJ-10" target="rl5POnUg0VRBX6LyOwiJ-8">
          <mxGeometry relative="1" as="geometry" />
        </mxCell>
        <mxCell id="rl5POnUg0VRBX6LyOwiJ-13" value="&lt;font&gt;절편(w0)&lt;/font&gt;" style="text;strokeColor=#006EAF;align=center;fillColor=#1ba1e2;html=1;verticalAlign=middle;whiteSpace=wrap;rounded=0;fontColor=#FFFFFF;fontStyle=1" vertex="1" parent="1">
          <mxGeometry x="180" y="692" width="60" height="30" as="geometry" />
        </mxCell>
        <mxCell id="rl5POnUg0VRBX6LyOwiJ-14" value="" style="endArrow=none;html=1;rounded=0;strokeWidth=3;dashed=1;fillColor=#d5e8d4;strokeColor=#82b366;entryX=0.605;entryY=0.567;entryDx=0;entryDy=0;entryPerimeter=0;gradientColor=#97d077;" edge="1" parent="1" target="rl5POnUg0VRBX6LyOwiJ-8">
          <mxGeometry width="50" height="50" relative="1" as="geometry">
            <mxPoint x="339" y="581" as="sourcePoint" />
            <mxPoint x="402.18" y="580" as="targetPoint" />
          </mxGeometry>
        </mxCell>
        <mxCell id="rl5POnUg0VRBX6LyOwiJ-15" value="" style="endArrow=none;html=1;rounded=0;strokeWidth=3;dashed=1;fillColor=#d5e8d4;strokeColor=#82b366;gradientColor=#97d077;exitX=0.605;exitY=0.565;exitDx=0;exitDy=0;exitPerimeter=0;" edge="1" parent="1" source="rl5POnUg0VRBX6LyOwiJ-8">
          <mxGeometry width="50" height="50" relative="1" as="geometry">
            <mxPoint x="480" y="584" as="sourcePoint" />
            <mxPoint x="460" y="500" as="targetPoint" />
          </mxGeometry>
        </mxCell>
        <mxCell id="rl5POnUg0VRBX6LyOwiJ-16" value="&lt;font&gt;기울기(w1)&lt;/font&gt;" style="text;strokeColor=#2D7600;align=center;fillColor=#60a917;html=1;verticalAlign=middle;whiteSpace=wrap;rounded=0;fontColor=#FFFFFF;fontStyle=1" vertex="1" parent="1">
          <mxGeometry x="466" y="551" width="60" height="30" as="geometry" />
        </mxCell>
        <mxCell id="rl5POnUg0VRBX6LyOwiJ-17" value="" style="endArrow=classic;html=1;rounded=0;entryX=0.29;entryY=0.502;entryDx=0;entryDy=0;entryPerimeter=0;" edge="1" parent="1" target="rl5POnUg0VRBX6LyOwiJ-8">
          <mxGeometry width="50" height="50" relative="1" as="geometry">
            <mxPoint x="260" y="631" as="sourcePoint" />
            <mxPoint x="310" y="581" as="targetPoint" />
          </mxGeometry>
        </mxCell>
        <mxCell id="rl5POnUg0VRBX6LyOwiJ-18" value="선형회귀&lt;br/&gt;&lt;div&gt;일차직선&lt;/div&gt;" style="text;strokeColor=#314354;align=center;fillColor=#647687;html=1;verticalAlign=middle;whiteSpace=wrap;rounded=0;fontColor=#ffffff;fontStyle=1" vertex="1" parent="1">
          <mxGeometry x="230" y="520" width="60" height="30" as="geometry" />
        </mxCell>
      </root>
    </mxGraphModel>
  </diagram>
</mxfile>
